<svg xmlns="http://www.w3.org/2000/svg" viewBox="0 0 233.1 548.5"><path fill="#B39F78" d="M98.3 498.9l-48.9 7.7c-8.9 1.4-12.6-11-4.3-14.6L79 476.9l-5.3-57.5h34.1l-9.5 79.5z"/><path fill="#EFDB9F" d="M115.7 454.5v59.8L86 545.6c-7.2 7.6-19.3-1.2-14.4-10.4l24.1-45.3-6.5-39.3 26.5 3.9z"/><path fill="#EFA950" d="M150.4 183.3c19-12.6 25.9-35.4 12.5-53.1l-29.2-38.5 2.6-40.2c.5-7.9-4.1-15.2-11.4-18.1L88.7 18.7C61.5 7.7 34 33.9 43.6 61.6L47.9 74l-22.4 52.9c-10.7 25.3-9.2 78.2 67.9 79.6 38.6.8 57-23.2 57-23.2z"/><path fill="#EFDB9F" d="M119.5 153.4l43.8 60.5-22.6 53.8 12.6 8.4 26-54.8c3-6.3 2.5-13.6-1.4-19.4L137.8 141l-18.3 12.4zM18 75l17.9-42.7c2.8-6.8 1.5-14.6-3.4-20l-6.4-7C19-2.4 6.6-1.6.7 7.1L0 8l23.1 15L1.9 67.7c-3 6.3-2.5 13.6 1.4 19.4L43.4 148l18.4-12.5L18 75z"/><path fill="#FF644B" d="M42 161.9l-2.2 3.5c-3.3 5.7-3.9 12.7-1.4 18.8l16.1 40c.4 1.1.9 2.1 1.5 3.1L27.9 365.2c2.2 7.6 6 14.6 11.5 20.6l17.2 19c31.7 35 84.9 40 122.5 11.4l29.3-22.3c11.9-9 19.6-21.4 22.9-34.8-2.4-9.6-7-18.7-14-26.6L116.7 219.7l18.7-63.4c3.4-11.6-5.3-23.3-17.4-23.3H79.1c-12.8 0-24.6 6.9-31 18L42 161.9z"/><path fill="#281E32" d="M79.1 132.9h.5c-4.3-6-11.2-9.4-19-9.4-13.2 0-23.8 10.7-23.8 23.8 0 5.4 1.8 10.5 4.9 14.5L48 151c6.4-11.2 18.3-18.1 31.1-18.1z"/><path fill="#EFA950" d="M39.4 415.8l17.2 19c31.7 35 84.9 40 122.5 11.4l29.3-22.3c20.6-15.7 28.6-41.4 22.9-64.8-3.3 13.4-11 25.8-22.9 34.8l-29.3 22.3c-37.6 28.6-90.9 23.6-122.5-11.4l-17.2-19c-5.4-6-9.3-13.1-11.5-20.6l-1 5c-3.3 16.3 1.3 33.2 12.5 45.6z"/><circle fill="#281E32" cx="129.5" cy="147.4" r="23.8"/><path fill="#281E32" d="M83.6 234.6h-.5c-10.9 0-21.1-2.4-27.9-6.5-.8-.5-1.1-1.6-.6-2.4.5-.8 1.6-1.1 2.4-.6 6.2 3.8 15.9 6 26 6h.5c15 0 27.9-6.2 31.7-12.3.5-.8 1.6-1.1 2.4-.6.8.5 1.1 1.6.6 2.4-4.9 8-19.8 14-34.6 14z"/><path fill="#EFDB9F" d="M106 68.5V61H94.1c-5.3 0-10.2-2.3-13.4-6.4L70.1 40.9c-10.7 5.3-17.7 16.8-16.5 29.7l2.1 23c.8 9.1 7.7 16.5 16.8 17.9l1.6.3v21.5c0 5.3 2.2 10.4 5.9 14.1v.1l22-14.4v-24.8l7.8-19.5c1.2.8 2.7 1.2 4.2 1.1 3.5-.2 6.5-3 6.7-6.5.3-3.7-2.3-7.4-5.7-7.4h-2.1c-4-.1-6.9-3.5-6.9-7.5z"/><path fill="#B39F78" d="M80.3 112.7l-6.2-1v5.8zm-8.4-27.9c-2.2 0-4.3.9-5.7 2.4.9 2.3 3.1 3.9 5.7 3.9s4.8-1.6 5.7-3.9c-1.5-1.5-3.5-2.4-5.7-2.4z"/><circle fill="#281E32" cx="84.8" cy="77.2" r="4.3"/><circle fill="#281E32" cx="60" cy="77.2" r="4.3"/><path fill="#FF644B" d="M85.5 92.8c1.2 3.3-.6 7-3.9 8.2s-7-.6-8.2-3.9l12.1-4.3z"/></svg>