<svg xmlns="http://www.w3.org/2000/svg" viewBox="0 0 596 360"><path fill="#FF644B" d="M595.1 327.9c-5.6-14.3-19.5-24.4-35.8-24.4l-3.3.1c-1.1-22.2-19.5-39.9-42-39.9h-.9c-2.3-40.9-36.2-73.4-77.7-73.4-34.4 0-63.6 22.3-73.9 53.3-8.9-5.6-19.5-8.9-30.8-8.9-7.5 0-14.7 1.4-21.3 4-9.7-53-56-93.1-111.8-93.1-22.2 0-42.8 6.4-60.3 17.3C117.9 104.7 64.3 62 .2 58.9v268.9h594.9z"/><path fill="#EFDB9F" d="M365.1 83.3l-19.2-45.8c-3-7.3-1.6-15.6 3.7-21.5l6.8-7.5c7.6-8.3 20.9-7.4 27.3 1.9l.7 1-24.8 16.1 22.7 47.9c3.2 6.7 2.6 14.6-1.5 20.8l-43.1 65.4-19.7-13.4 47.1-64.9z"/><circle fill="#281E32" cx="319.3" cy="161" r="25.6"/><path fill="#EFA950" d="M289.7 131.3H159.1l-78.5 65.3c-5.7 4.7-2.3 13.9 5 13.9h95c8.9 0 17.6-3.1 24.5-8.8l84.6-70.4z"/><path fill="#FF644B" d="M363.5 210.3c6.2-1.2 8.7-9.4 3.4-13.7l-77.8-64.7-10 8.3 84.4 70.1z"/><path fill="#B39F78" d="M180.7 210.5h-95v77.2h109v-79.9c-4.4 1.7-9.2 2.7-14 2.7z"/><path fill="#FF644B" d="M321.2 64.2c6.2-1.2 8.7-9.4 3.4-13.7l-43.8-36.3-10 8.3 50.4 41.7z"/><path fill="#B39F78" d="M206.9 64.2h-79.7v113.7H209V64.2h-2.1z"/><path fill="#EFA950" d="M166.6 14.2l-43.4 36.1c-5.7 4.7-2.3 13.9 5 13.9h78.7c8.9 0 17.6-3.1 24.5-8.8l49.5-41.2H166.6z"/><path fill="#EFDB9F" d="M270.9 22.5l-.1.1-39.4 32.8c-6.3 5.2-14.1 8.3-22.2 8.8l-.1.1V178l56.1-46.7h24.6l-.6.5 32.2 26.8V64.2l-50.5-41.7z"/><path fill="#EFDB9F" d="M363.5 210.3l-84.4-70.2-73.9 61.5c-3.2 2.6-6.7 4.7-10.4 6.2v79.9H247V214c0-5.1 4.2-9.3 9.3-9.3H302c5.1 0 9.3 4.2 9.3 9.3v73.7h52.2v-77.4z"/><path fill="#46466E" d="M363.2 265.3v22.4l-35.3-.1h-16.7V214c0-5.1-4.1-9.5-9.2-9.5h-45.8c-5.1 0-9 4.4-9 9.5v73.6H85.8L63.5 309l54.9-8.8c29 0 57 10.7 78.6 30l9.6 8.6c29.1 26.1 73.2 26.1 102.4 0l9.6-8.6c21.6-19.4 49.6-30 78.6-30l27.4 4-61.4-38.9zm-107 22.3v-73.1h46v73.1h-46z"/><path fill="#281E32" d="M256.2 214H302v73.7h-45.8z"/><path fill="#46466E" d="M293.6 121.4h-56.9c-3.8 0-7-3.1-7-7V74.9c0-3.8 3.1-7 7-7h56.9c3.8 0 7 3.1 7 7v39.5c0 3.8-3.2 7-7 7z"/><path fill="#B39F78" d="M291.3 77.2H239V83h46.5v29.1h5.8z"/><path fill="#EFDB9F" d="M239 83h46.5v29.1H239z"/><path fill="#B39F78" d="M266.2 92.2c2.4 0 4.6 1 6.1 2.6-1 2.4-3.4 4.2-6.1 4.2s-5.2-1.7-6.1-4.2c1.5-1.6 3.7-2.6 6.1-2.6z"/><circle fill="#281E32" cx="251.8" cy="84.6" r="4.6"/><circle fill="#281E32" cx="278.9" cy="84.1" r="4.6"/><path fill="#FF644B" d="M251 101.4c-1.3 3.6.6 7.5 4.2 8.8 3.6 1.3 7.5-.6 8.8-4.2l-13-4.6z"/><path fill="#EFDB9F" d="M108.5 97.8l8.4-62L95.7 2.4l-1.1.6C84.5 8 81.8 21.1 89 29.7L99.3 42l-9.6 52.7c-1.3 7.3 1.3 14.8 6.8 19.7l58.6 51.9 15.5-18.1-62.1-50.4z"/><circle fill="#281E32" cx="172.9" cy="161" r="25.6"/><path fill="#281E32" d="M436.6 324.9c-.4-13.8-12.1-24.6-25.9-24.6h-13.6c-29 0-57 10.7-78.6 30l-9.6 8.6c-5.6 5-11.7 9-18.1 12.1h120.4c14.3 0 25.8-11.8 25.4-26.1zM197 330.3c-21.6-19.4-49.6-30-78.6-30H83c-13.8 0-25.5 10.8-25.9 24.6-.3 14.3 11.2 26.1 25.4 26.1h142.2c-6.4-3.1-12.5-7.1-18.1-12.1l-9.6-8.6z"/><path fill="#281E32" d="M267.5 360.5c-10.9-14-27.9-22.9-47.1-22.9-3.3 0-6.6.3-9.8.8-8-15.1-23.8-25.4-42-25.4-2.4 0-4.8.2-7.1.5-.7-27.1-22.9-48.9-50.2-48.9-7.5 0-14.7 1.7-21.1 4.6-10.2-40.6-46.5-70.8-90-71.6v162.9h267.3z"/><path fill="#EFDB9F" d="M512.8 301.1l-45.3 24.1-129.1-9.2c-7 4.1-13.7 8.9-19.8 14.3l-9.6 8.6c-2.6 2.3-5.3 4.4-8.1 6.3h191l31.3-29.7c7.5-7.2-1.2-19.3-10.4-14.4z"/><path fill="#FF644B" d="M81.7 353.7c-4.6-3.1-7.5-8.5-7-14.5.1-1.1.3-2.3.6-3.3-1 .5-2 .9-3.2 1.1-5.8 1.4-11.6-.5-15.5-4.5 1.5-5.3 5.8-9.7 11.6-11.2 1.1-.3 2.2-.4 3.3-.5-.8-.8-1.5-1.7-2.1-2.7-3.1-5.1-3.1-11.2-.5-16.1 5.6-.2 11.1 2.5 14.2 7.6.6 1 1.1 2 1.5 3 .5-1 1.1-1.9 1.9-2.8 3.8-4.6 9.7-6.5 15.1-5.5 1.9 5.2 1 11.3-2.8 15.9-.7.9-1.6 1.7-2.4 2.3 1.1.2 2.2.5 3.2.9 5.5 2.2 9.1 7.2 9.9 12.7-4.4 3.4-10.4 4.5-15.9 2.2-1.1-.4-2.1-1-3-1.6.2 1.1.2 2.2.1 3.4-.4 6.2-4 11.1-9 13.6z"/><circle fill="#fff" cx="82.8" cy="326.1" r="8"/><path fill="#46466E" d="M129.1 327.6c1.9-2.7 5.2-4.3 8.8-4 .7.1 1.3.2 2 .4-.3-.6-.5-1.2-.6-1.9-.8-3.5.5-6.9 2.9-9.2 3.2 1 5.7 3.6 6.5 7.1.1.7.2 1.3.2 2 .5-.4 1-.8 1.6-1.2 3.1-1.8 6.7-1.7 9.6-.1 0 3.3-1.7 6.6-4.8 8.4-.6.3-1.2.6-1.8.8.6.3 1.1.7 1.6 1.2 2.7 2.4 3.7 5.9 3 9.1-3.2 1-6.8.4-9.4-1.9-.5-.5-1-1-1.4-1.5-.1.6-.3 1.3-.6 1.9-1.4 3.3-4.4 5.3-7.8 5.7-2-2.7-2.5-6.3-1.1-9.6.3-.6.6-1.2 1-1.7-.7.1-1.3.1-2 0-3.4-.2-6.3-2.5-7.7-5.5zM44.8 279c-.9-3.2-.1-6.8 2.4-9.3.5-.5 1-.9 1.5-1.3-.6-.2-1.3-.4-1.9-.7-3.2-1.6-5.1-4.7-5.4-8 2.8-1.8 6.4-2.2 9.6-.6.6.3 1.2.7 1.7 1.1 0-.7 0-1.3.1-2 .5-3.5 2.9-6.3 6-7.6 2.6 2.1 4.1 5.4 3.6 8.9-.1.7-.3 1.3-.5 2 .6-.2 1.3-.4 1.9-.5 3.5-.6 6.9.8 9 3.3-1.2 3.1-3.9 5.6-7.4 6.2-.7.1-1.3.2-2 .1.4.5.8 1.1 1.1 1.7 1.7 3.2 1.4 6.8-.4 9.6-3.3-.1-6.5-2-8.1-5.1-.3-.6-.6-1.2-.7-1.9-.4.6-.8 1.1-1.2 1.6-2.5 2.4-6 3.3-9.3 2.5z"/></svg>