<svg xmlns="http://www.w3.org/2000/svg" viewBox="0 0 349.2 379.1"><path fill="#B4A078" d="M257.4 102.8l49-49-10.3-10.3-68.9 54.8H85.5l30.6-30.6h28.7c16.4 0 32.1-6.5 43.6-18.1l38.7-38.7L216.8.6l-57.7 42.2h-46.4c-16.4 0-32.1 6.5-43.6 18.1L38.5 91.4 0 91.2v114.3l36.4-40.6c5.5-6.1 13-9.9 21.2-10.6L341 127.7v-24.9h-83.6z"/><path fill="#F0DCA0" d="M216.8.6c-1.2 2.9-.6 6.3 1.8 8.6 2.3 2.3 5.7 2.9 8.6 1.8 1.2-2.9.6-6.3-1.8-8.6-2.3-2.4-5.7-3-8.6-1.8zm79.3 42.9c-1.2 2.9-.6 6.3 1.8 8.6 2.3 2.3 5.7 2.9 8.6 1.8 1.2-2.9.6-6.3-1.8-8.6-2.4-2.4-5.8-3-8.6-1.8zm44.9 59.3c-4.8 2.1-8.2 6.9-8.2 12.5s3.4 10.4 8.2 12.5c4.8-2.1 8.2-6.9 8.2-12.5s-3.4-10.4-8.2-12.5z"/><path d="M291.4 98.5c-2.9 0-5.3 2.4-5.3 5.3-.8 70.5-9.4 136.3-24.6 186.3-15.1 49.7-35.2 78.2-55 78.2s-39.9-28.5-55-78.2c-15.5-51.2-24.3-118.9-24.7-191.2 0-2.9-2.4-5.3-5.3-5.3h-.1c-3 0-5.4 2.4-5.3 5.4.4 73.3 9.3 142.2 25.1 194.3 8 26.3 17.4 47 27.8 61.6 11.6 16.1 24.2 24.3 37.5 24.3s25.9-8.2 37.5-24.3c10.5-14.6 19.8-35.3 27.8-61.6 15.5-51 24.3-117.8 25.1-189.3 0-3-2.4-5.4-5.3-5.4h-.2zM99.7 157h.1c2.8 0 5.2-2.2 5.3-5 1.1-17.3 1.7-35 1.8-53 0-3-2.4-5.4-5.3-5.4h-.1c-2.9 0-5.3 2.4-5.3 5.3-.1 17.8-.7 35.3-1.8 52.3-.2 3.1 2.2 5.8 5.3 5.8zm212.4 131.5h-.1c-3 0-5.3-2.4-5.3-5.3V131l10.8-1v153.2c-.1 2.9-2.5 5.3-5.4 5.3z" fill="#FF644B"/></svg>