<svg xmlns="http://www.w3.org/2000/svg" viewBox="0 0 371.8 517.6"><path fill="#281E32" d="M43.3 299.4H16.5L3.6 270.1c-4.8-10.9 6.2-22 17.2-17.3l22.5 9.8v36.8zm72.1 0h26.8l12.9-29.2c4.8-10.9-6.2-22-17.2-17.3l-22.5 9.8v36.7zm116.8 151.8v39.4l-18.1 18.1 3.6 3.6c7.1 7.1 18.7 7.1 25.8 0l61.2-61.2-72.5.1zM74 463.7l27.9 27.9v25.5h5.1c10.1 0 18.3-8.2 18.3-18.3v-86.6L74 463.7z"/><path fill="#46466E" d="M285.3 0h-37.6l27.2 183.8-25 44.6c-12.9 23.1-15.7 50.5-7.6 75.7l6.8 21h-73.5c-11.9 0-22.6-7.3-27.2-18.3l-8.6-20.9c-21.4-51.6-93.7-53.6-117.8-3.3L9.3 309.1c-16.3 34-10.8 74.5 14.2 102.8l17.3 19.6v59l-18 18.1 3.6 3.6c7.1 7.1 18.7 7.1 25.9 0l35.4-35.4c50.9 33.3 119.5 30.9 168.3-10.1l9.1-7.7 27.7 27.9V512h5.3c10.1 0 18.7-7.8 18.7-17.9V431c0-9.9-2.6-19.6-7.3-28.3L286.8 361v-74.2l47.2-47.5c24.4-24.4 37.8-57.4 37.8-91.9V87c0-48.1-38.4-87-86.5-87z"/><circle fill="#EFDB9F" cx="110.4" cy="297.8" r="12.9"/><circle fill="#EFDB9F" cx="55.4" cy="297.8" r="12.9"/><path fill="#281E32" d="M225 324.7v53.9l18.6-53.9H225zm-71.8-10.4v64.4l18.6-53.9-.3-.3c-7.2-1.1-13.7-4.7-18.3-10.2zm47.9 64.4l18.6-53.9h-18.6v53.9zm-24 0l18.6-53.9h-18.6v53.9zM71.5 301.3h22.8c3.4 0 5.1 4.1 2.7 6.5l-11.4 11.4c-1.5 1.5-3.9 1.5-5.4 0l-11.4-11.4c-2.4-2.5-.7-6.5 2.7-6.5z"/><circle fill="#281E32" cx="110.4" cy="297.8" r="6.5"/><circle fill="#281E32" cx="55.4" cy="297.8" r="6.5"/><path fill="#FF644B" d="M152.9 340.4c-2.1-2.1-4.8-3.5-7.6-4.1 1.4-6.2-.2-13-5.1-17.8-7.4-7.4-19.5-7.4-26.9 0-16.8 16.8-44.2 16.8-61 0-7.4-7.4-19.5-7.4-26.9 0-7.4 7.4-7.4 19.5 0 26.9C38 358 53.7 365.6 70.1 368.1c11.2 8.1 24.4 12.2 37.6 12.2 16.4 0 32.8-6.2 45.3-18.7 5.8-5.9 5.8-15.4-.1-21.2z"/><path fill="#281E32" d="M42.5 328.4c-2-2-5.2-2-7.2 0s-2 5.2 0 7.2c6.6 6.6 14.3 11.6 22.7 15 .1-3.4 1.4-6.7 3.7-9.4-7-3-13.6-7.2-19.2-12.8zm65.8 21.9c8.2-3.3 15.7-8.3 22.2-14.8 2-2 2-5.2 0-7.2s-5.2-2-7.2 0c-9.3 9.3-21.3 15-34.3 16.4 5.8 3.9 12.6 5.7 19.3 5.6z"/></svg>