<svg xmlns="http://www.w3.org/2000/svg" viewBox="0 0 667.4 587.7"><path fill="#46466E" d="M224.4 384.9c-38.6 0-70.9 26.7-79.7 62.5-2.3-.4-4.6-.5-7-.5-25.2 0-45.7 20.4-45.7 45.7v1.2c-2.4-.2-4.9-.3-7.3-.3-37.9 0-70.5 22.8-84.7 55.4h306.4v-82c0-45.3-36.7-82-82-82z"/><path fill="#281E32" d="M473 386.8h132.3v193.6H473zm-164.6 18.1c-38.6 0-70.9 26.7-79.7 62.5-2.3-.4-4.6-.5-7-.5-25.2 0-45.7 20.4-45.7 45.7v1.2c-2.4-.2-4.9-.3-7.3-.3-37.9 0-70.5 22.8-84.7 55.4h306.4v-82c0-45.3-36.7-82-82-82z"/><path fill="#EFDB9F" d="M281.6 484.8c-10.8 31.4 12.5 64.1 45.7 64.1h198.3c33.2 0 56.5-32.7 45.7-64.1l-15.2-43.9H296.7l-15.1 43.9z"/><path fill="#B39F78" d="M527.6 406.9H325.2c-10 0-18.9 6.3-22.2 15.8l-6.3 18.2H556l-6.3-18.2c-3.2-9.4-12.1-15.8-22.1-15.8z"/><path fill="#46466E" d="M185.7 401.3v-7.9c-.4 2.7-.4 5.4 0 7.9z"/><path fill="#FF644B" d="M581.1 272.6c-27.4-15-48.3-39.6-59.4-68.8l-10.7-28c-13.3-34.9-46.7-57.9-84-57.9h-1.3c-37.3 0-70.7 23-84 57.9l-10.6 27.9c-11.1 29.2-32 53.8-59.4 68.8-44.8 24.5-77.4 68.6-86 120.8h481.4c-8.7-52.1-41.2-96.2-86-120.7z"/><path fill="#EFDB9F" d="M209.6 421.4h433.6c14.9 0 26.3-13.4 23.9-28.1H185.7v7.9c1.9 11.3 11.7 20.2 23.9 20.2z"/><path fill="#46466E" d="M341.3 580.2c3.5-8.8 12-15 22-15 .7 0 1.4 0 2.1.1.7-13.7 12-24.6 25.9-24.6h.6c1.4-25.2 22.3-45.2 47.8-45.2 21.2 0 39.1 13.8 45.5 32.8 5.5-3.4 12-5.5 19-5.5 19.1 0 34.7 15 35.7 33.9.9-.1 1.9-.1 2.8-.1 14.9 0 27.4 9.9 31.4 23.5H341.3z"/><path fill="#EFDB9F" d="M534.5 519.7h-45.1l-7.4 47.2c-1.7 10.9 6.7 20.8 17.8 20.8h24.4c11.1 0 19.5-9.9 17.8-20.8l-7.5-47.2z"/><path fill="#EFA950" d="M568.9 542.3c-2.1-12.4-9.8-22.8-20.4-28.6-6.5-3.5-11.4-9.4-14.1-16.3l-2.5-6.6c-3.1-8.2-11-13.7-19.9-13.7h-.3c-8.8 0-16.7 5.5-19.9 13.7l-2.5 6.6c-2.6 6.9-7.6 12.7-14.1 16.3-10.6 5.8-18.3 16.2-20.4 28.6v1.9c.4 2.7 2.8 4.8 5.6 4.8H563c3.8-.1 6.5-3.2 5.9-6.7z"/><path fill="#FF644B" d="M199.7 506.8c3.6-4.3 9.3-6.6 15.1-5.5 1.1.2 2.2.5 3.2.9-.4-1-.7-2.1-.8-3.3-.8-5.9 1.6-11.5 6-14.9 5.2 2.1 9.1 6.8 9.9 12.7.2 1.1.2 2.3.1 3.4.9-.7 1.8-1.3 2.8-1.8 5.4-2.6 11.4-2 16.1 1.1-.4 5.5-3.6 10.7-9 13.4-1 .5-2.1.9-3.2 1.2.9.6 1.8 1.3 2.6 2.2 4.1 4.3 5.4 10.3 3.9 15.6-5.4 1.3-11.3-.1-15.5-4.4-.8-.8-1.5-1.7-2.1-2.6-.3 1.1-.7 2.1-1.3 3.1-2.8 5.3-8.1 8.3-13.6 8.5-2.9-4.7-3.4-10.8-.6-16.1.5-1 1.2-1.9 1.9-2.8-1.1 0-2.2 0-3.4-.2-5.6-1.2-10.2-5.3-12.1-10.5z"/><circle fill="#fff" cx="227" cy="510.7" r="8"/><path fill="#FF644B" d="M361.9 122.9h-36.1c-1.4 0-2.5-1.1-2.5-2.5s1.1-2.5 2.5-2.5h36.1c1.4 0 2.5 1.1 2.5 2.5s-1.1 2.5-2.5 2.5z"/><path fill="#281E32" d="M316.5 287.4l33.5 20.7-8.8 11.5c-5 6.6-2.8 16.1 4.7 19.7l.1.1 21-22.8c7.5-8.2 9.2-20.1 4.3-30.1l-10-20.5-44.8 21.4zm107.4-1.2l11.5 37.7-14.2 2.8c-8.1 1.6-12.7 10.2-9.5 17.9l.1.1 30.8-3.2c11-1.1 20.2-9 23.1-19.7l6-22-47.8-13.6zm93.3 27.9l11.5 37.7-14.2 2.8c-8.1 1.6-12.7 10.2-9.5 17.9l.1.1 30.8-3.2c11-1.1 20.2-9 23.1-19.7l6-22-47.8-13.6zm81.5-14.9l36.9 13.8-6.4 12.9c-3.7 7.4.4 16.3 8.4 18.4h.2l16.2-26.4c5.8-9.5 5.2-21.5-1.5-30.3l-13.8-18.1-40 29.7z"/><path fill="#46466E" d="M366.8 140l-32-.3 1.6-14.4c.9-8.2-6-15.2-14.2-14.4h-.2l-6.2 30.3c-2.2 10.9 2.5 22 11.9 28l13.4 8.5.7-1.9c5.4-14.1 14.1-26.3 25-35.8z"/><path fill="#EFDB9F" d="M223.6 339.2l128.8-33.3L498 352.6c33.4 10.7 70 2.3 95.4-21.9l28.2-27.2c12.1-11.9 20.5-27.5 23.4-45l-74.6 48.6c-18 11.7-40.1 15.3-60.9 9.7l-134.9-36.2c-13.8-3.7-28.4-3-41.9 1.9l-131.5 48.8c4.7 6.4 12.7 10.4 22.4 7.9z"/><path fill="#46466E" d="M646.1 245.2c0-45-36.5-81.6-81.5-81.6h-.2c-14.2 0-27.8-5.6-37.9-15.6l-18.7-18.5c-11.7-11.7-18.3-27.4-18.3-43.9V59.9c0-32.4-25.7-59.5-58.1-59.9-32.9-.4-59.8 26.1-59.8 59l-.1 2.5V99c0 11.4 3.6 21.9 9.5 30.7 13.3-7.7 28.8-12.1 44.9-12.1h1.3c1.3 0 2.7.2 4 .3.4 0 .9.1 1.3.2.9.1 1.8.2 2.7.2l1.3.1c1.2.1 2.4.3 3.5.4l1.2.2 2.6.4c26.6 5 49.7 21.8 62.6 45.8l.4.8 1.1 2.1c1.2 2.5 2.3 5 3.3 7.6l.7 1.9 1.7 5.4-14.2 2.8c-8.1 1.6-12.7 10.2-9.5 17.9l.1.1 30.7-3.2 1.1 3c5.5 14.5 13.5 27.9 23.5 39.6l-19.7 12.6L395.3 221c-27.2-7.3-56.2-2.9-80.1 12.1l-107.9 67.6c-12 7.5-12.3 21.5-5.8 30.5l81.3-30.2 27.4 16.9-8.8 11.5c-5 6.6-2.8 16.1 4.7 19.7l.1.1 21-22.8c7.5-8.2 9.2-20.1 4.3-30.1l-5.6-11.3 7-2.6c13.4-5 28-5.7 41.9-1.9l11.5 3.1 9.2 30.2-14.2 2.8c-8.1 1.6-12.7 10.2-9.5 17.9l.1.1 30.8-3.2c11-1.1 20.2-9 23.1-19.7l4.4-16.3 48.5 13 10.1 33.3-14.2 2.8c-8.1 1.6-12.7 10.2-9.5 17.9l.1.1 30.8-3.2c11-1.1 20.2-9 23.1-19.7l5.5-20.4c13.5.8 27-2 39.2-8.2l32 12-6.4 12.9c-3.7 7.4.4 16.3 8.4 18.4h.2l16.2-26.4c5.8-9.5 5.2-21.5-1.5-30.3l-9.2-12 41.8-27.2c.4-4.2.8-8.7.8-13.2z"/><path fill="#EFDB9F" d="M520.6 201l1.1 2.8c5.5 14.5 13.5 27.9 23.5 39.6l19.7-12.4-44.3-30z"/><circle fill="#281E32" cx="391.6" cy="98.9" r="8.3"/><circle fill="#281E32" cx="444.5" cy="67.2" r="17.6"/><circle fill="#EFDB9F" cx="444.5" cy="62.5" r="12.9"/><circle fill="#46466E" cx="444.5" cy="62.5" r="8.6"/><circle fill="#281E32" cx="396.5" cy="67.2" r="17.6"/><circle fill="#EFDB9F" cx="396.5" cy="62.5" r="12.9"/><circle fill="#46466E" cx="396.5" cy="62.5" r="8.6"/><path fill="#FF644B" d="M428.2 76.3l-7.7-7.7-7.7 7.7c-4.2 4.2-4.2 10.9 0 15l.2.2c4.2 4.2 10.9 4.2 15 0l.2-.2c4.1-4.1 4.1-10.8 0-15zM324.9 122.9h-46c-1.4 0-2.5-1.1-2.5-2.5s1.1-2.5 2.5-2.5h46c1.4 0 2.5 1.1 2.5 2.5s-1.1 2.5-2.5 2.5z"/><circle fill="#FF644B" cx="278" cy="120.4" r="9.5"/><path fill="#B39F78" d="M282.4 253.6c-22.8-17.4-51.3-27.7-82.1-27.7-2.1-7.2-3.2-14.8-3.2-22.7 0-44.6 36.3-80.9 80.9-80.9 1.1 0 2-.9 2-2s-.9-2-2-2c-46.8 0-84.9 38.1-84.9 84.9 0 7.9 1.1 15.5 3.1 22.7-73 2.2-131.7 62.3-131.7 135.8 0 67.7 49.8 124.1 114.8 134.2.5-1.3 1.1-2.6 1.7-3.8-63.5-9.4-112.4-64.3-112.4-130.4 0-71.7 57.6-130.3 128.9-131.8 7.2 21.8 23.1 39.7 43.5 49.7l4.1-2.5c-20.2-9.1-36-26.1-43.4-47.1 28.9.3 55.6 9.9 77.2 25.9l3.5-2.3z"/></svg>