<svg xmlns="http://www.w3.org/2000/svg" viewBox="0 0 658.9 844.1"><path fill="#FF644B" d="M505.5 519.5L223 542.1s43.7 29.2 48.7 31.3c-3.5 4.2-29 50.1-29 50.1s52.4 3.5 57.8 2.8c-.9 5.4 0 57.9 0 57.9s47.1-23.2 51.5-26.5c1.9 5.1 28.9 50.2 28.9 50.2s29.2-43.7 31.3-48.7c4.2 3.5 50.1 29 50.1 29s3.5-52.4 2.8-57.8l40.4-110.9zm70.7-333.7l16.7-42.6-2.4-1.5-34.4-20.7-34.5 19.7 12.9-32.8L493.3 83l-19.5 11.1 7.9-20.1c-10.9-10-80.6-74-80.6-74L424 107l21.3 3.4-19.5 11.1.5 48.2 34.7 5.5-34.5 19.7.4 40.1c0 1 0 1.9.1 2.9l45.2 7.2-37.4 21.4c20.4 38.6 76.2 50.8 110.2 14.4l10.3-11 14.7-3.3c48.6-10.9 66.4-65.1 43.5-102.3l-37.3 21.5z"/><path fill="#281E32" d="M572.2 291.8l-40.7-70.6 31.1-73.5c.5-1.3-.1-2.7-1.3-3.2-1.3-.5-2.7 0-3.2 1.3l-29.9 69.5-40.6-70.5 15.2-36c.5-1.3-.1-2.7-1.3-3.2-1.3-.5-2.7 0-3.2 1.3L484.2 139l-38.8-67.4c-.8-1.4-2.5-1.8-3.9-1.1h-.1c-1.4.8-1.8 2.5-1.1 3.9l38.4 67.7-34.9-4.4c-1.4-.2-2.6.8-2.8 2.1-.2 1.4.8 2.6 2.1 2.8l38.8 5.2 40.1 70.8-75.1-9.5c-1.4-.2-2.6.8-2.8 2.1-.2 1.4.8 2.6 2.1 2.8l79.2 10.6 40.2 70.9c1 1.8 3.3 2.4 5 1.4h.1c1.9-1 2.5-3.3 1.5-5.1z"/><path fill="#EFDB9F" d="M338.7 404.3c3.6 0 7.1.1 10.6.4v-1.8c0-36.4 29.5-66 66-66 3.4 0 6.8.3 10.1.8 12.6-51.9 59.3-90.4 115.1-90.4 65.4 0 118.5 53 118.5 118.5v118.5H216.3c20.6-47.1 67.7-80 122.4-80z"/><path fill="#281E32" d="M496.3 540.3c-9 3.6-88.1 53.7-88.1 53.7s79.2 50.1 88.1 53.7c-6 7.6-49.5 90.6-49.5 90.6s93.6 3.8 103.2 2.5c-1.4 9.6 2.5 103.2 2.5 103.2s83-43.5 90.6-49.5c3.6 9 15.8 29.6 15.8 29.6V363.9s-12.2 20.6-15.8 29.6c-7.6-6-90.6-49.5-90.6-49.5s-3.8 93.6-2.5 103.2l-53.7 93.1z"/><path fill="#B39F78" d="M580.2 450.7c-37.3-14-77.8-17.4-117-9.8L281 476.3l-136-17.4c-23.7-3-47.8-.4-70.3 7.6L0 493.3l13 32 93-25 107.7 40.4c39.5 14.8 82.2 19.4 124 13.1l35.7-5.3-8.4 26.8-35.6 30 13.6 18 26.1-19.6c14.5-10.9 26.6-24.5 35.8-40.1l12.7-21.7 68.4-10.2 173 166.5v-218l-78.8-29.5z"/><path fill="#46466E" d="M97.1 544.9c9.2-6.6 15.2-16 17.7-26.2-10.5-.8-21.3 1.9-30.5 8.6-9.2 6.6-15.2 16-17.7 26.2 10.5.8 21.3-2 30.5-8.6z"/><path fill="#281E32" d="M120.8 549.7c1.8-11.2-.6-22.1-6.1-31.1-8 6.8-13.7 16.4-15.5 27.6s.6 22.1 6.1 31.1c8-6.8 13.7-16.4 15.5-27.6z"/><path fill="#46466E" d="M53.7 436.2c6.6 9.2 16 15.2 26.2 17.7.8-10.5-1.9-21.3-8.6-30.5-6.6-9.2-16-15.2-26.2-17.7-.8 10.5 2 21.3 8.6 30.5z"/><path fill="#281E32" d="M48.9 460c11.2 1.8 22.1-.6 31.1-6.1-6.8-8-16.4-13.7-27.6-15.5-11.2-1.8-22.1.6-31.1 6.1 6.8 8 16.4 13.7 27.6 15.5z"/><path fill="#FF644B" d="M552.1 642.2c5.5 1 10.3 4.8 12.3 10.4.4 1.1.7 2.2.8 3.3.7-.8 1.5-1.6 2.4-2.3 4.7-3.6 10.8-4.3 16-2.2.7 5.5-1.4 11.3-6.1 14.9-.9.7-1.9 1.3-2.9 1.8 1 .4 2 .9 3 1.6 4.9 3.4 7.4 9 7 14.5-5 2.4-11.1 2.2-16.1-1.2-.9-.6-1.8-1.4-2.6-2.2-.1 1.1-.3 2.2-.6 3.3-1.7 5.7-6.2 9.8-11.6 11.1-3.8-4-5.5-9.9-3.8-15.6.3-1.1.8-2.1 1.3-3.1-1.1.3-2.2.4-3.3.5-6 .2-11.3-2.9-14.2-7.6 2.6-4.9 7.7-8.3 13.7-8.5 1.1 0 2.3.1 3.4.2-.6-.9-1.1-1.9-1.5-3-2.1-5.7-.8-11.7 2.8-15.9z"/><circle fill="#fff" cx="562.2" cy="667.8" r="8"/><path fill="#FF644B" d="M641 415.9c-2.8 4.8-7.9 8.1-13.9 8.1-1.1 0-2.3-.1-3.3-.3.6 1 1 2 1.4 3.1 1.9 5.7.4 11.6-3.3 15.8-5.4-1.1-10.1-5.1-12-10.7-.4-1.1-.6-2.2-.7-3.3-.7.8-1.6 1.6-2.5 2.3-4.8 3.5-10.9 4-16 1.8-.6-5.5 1.7-11.2 6.5-14.7.9-.7 1.9-1.2 2.9-1.7-1-.4-2-1-2.9-1.7-4.8-3.5-7.2-9.1-6.6-14.7 5.1-2.3 11.2-1.9 16 1.6.9.7 1.8 1.4 2.5 2.2.1-1.1.3-2.2.7-3.3 1.8-5.7 6.5-9.6 11.9-10.8 3.7 4.1 5.2 10.1 3.4 15.7-.3 1.1-.8 2.1-1.4 3.1 1.1-.2 2.2-.4 3.3-.4 6-.1 11.2 3.1 14 7.9z"/><circle fill="#fff" cx="613.5" cy="416.9" r="8"/><path fill="#46466E" d="M522.7 692.9c-.7 3.3-3 6.1-6.4 7.2-.7.2-1.3.4-2 .4.5.4.9.9 1.4 1.5 2.1 2.9 2.4 6.5 1.1 9.6-3.3.4-6.7-1-8.8-3.9-.4-.6-.7-1.1-1-1.7-.3.6-.6 1.2-1 1.7-2.1 2.9-5.5 4.3-8.8 4-1.4-3-1.1-6.7 1-9.6.4-.6.9-1.1 1.3-1.5-.7-.1-1.3-.2-2-.4-3.4-1.1-5.8-3.9-6.5-7.1 2.5-2.2 6-3.1 9.4-2 .7.2 1.3.5 1.8.8-.1-.6-.2-1.3-.2-2 0-3.6 1.9-6.7 4.8-8.4 2.9 1.7 4.8 4.8 4.9 8.3 0 .7-.1 1.4-.2 2 .6-.3 1.2-.6 1.8-.8 3.4-1.2 6.9-.3 9.4 1.9zM498 579.4c2.1 2.6 2.9 6.2 1.6 9.5-.2.6-.5 1.2-.9 1.8.7-.1 1.3-.2 2-.1 3.6.1 6.6 2.2 8.1 5.2-1.8 2.8-5 4.6-8.5 4.5-.7 0-1.4-.1-2-.3.3.6.6 1.2.7 1.9 1 3.4-.1 7-2.4 9.3-3.2-.8-5.9-3.3-6.9-6.7-.2-.7-.3-1.3-.3-2-.5.5-1 .9-1.5 1.3-3 2-6.6 2.1-9.6.6-.2-3.3 1.3-6.7 4.3-8.6.6-.4 1.2-.7 1.8-.9-.6-.3-1.2-.7-1.7-1.1-2.8-2.2-4-5.7-3.6-9 3.1-1.2 6.7-.8 9.5 1.4.5.4 1 .9 1.4 1.4.1-.7.3-1.3.5-1.9 1.3-3.5 4.2-5.8 7.5-6.3zm109.9 132.3c2.1 2.6 2.9 6.2 1.6 9.5-.2.6-.5 1.2-.9 1.8.7-.1 1.3-.2 2-.1 3.6.1 6.6 2.2 8.1 5.2-1.8 2.8-5 4.6-8.5 4.5-.7 0-1.4-.1-2-.3.3.6.6 1.2.7 1.9 1 3.4-.1 7-2.4 9.3-3.2-.8-5.9-3.3-6.9-6.7-.2-.7-.3-1.3-.3-2-.5.5-1 .9-1.5 1.3-3 2-6.6 2.1-9.6.6-.2-3.3 1.3-6.7 4.3-8.6.6-.4 1.2-.7 1.8-.9-.6-.3-1.2-.7-1.7-1.1-2.8-2.2-4-5.7-3.6-9 3.1-1.2 6.7-.8 9.5 1.4.5.4 1 .9 1.4 1.4.1-.7.3-1.3.5-1.9 1.3-3.5 4.2-5.7 7.5-6.3z"/><path fill="#281E32" d="M148.7 514.9C140 507.6 129.5 504 119 504c1.7 10.4 7 20.2 15.6 27.5 8.6 7.3 19.2 10.9 29.7 10.9-1.7-10.4-7-20.2-15.6-27.5z"/><path fill="#46466E" d="M319 568.7c-11.1-2.3-22.1-.3-31.3 4.8 6.5 8.3 15.8 14.3 26.9 16.6 11.1 2.3 22.1.3 31.3-4.8-6.5-8.3-15.8-14.4-26.9-16.6z"/></svg>