<svg xmlns="http://www.w3.org/2000/svg" viewBox="0 0 622.7 763.7"><path fill="#FF644B" d="M249.1 451.9c-3.3 0-5.9 2.6-5.9 5.9-.9 78.3-10.5 151.4-27.4 207-16.8 55.3-39.1 86.9-61.1 86.9s-44.4-31.7-61.1-86.9c-17.3-56.9-27-132.1-27.4-212.5 0-3.3-2.7-5.9-5.9-5.9H60c-3.3 0-6 2.7-5.9 6 .5 81.5 10.3 158 27.9 216 8.9 29.2 19.3 52.3 30.9 68.5 12.9 17.9 26.9 27 41.7 27 14.8 0 28.8-9.1 41.7-27 11.6-16.2 22.1-39.3 30.9-68.5 17.2-56.6 27-131 27.9-210.4 0-3.3-2.6-6-5.9-6h-.1zm23 211.2h-.1c-3.3 0-5.9-2.7-5.9-5.9V447.9l12-1.1v210.3c-.1 3.3-2.7 6-6 6z"/><path fill="#281E32" d="M513.1 325.9c-7.7 0-15.3.6-22.7 1.9-18.5-35.1-55.4-59.1-97.9-59.1-5.6 0-11.2.4-16.6 1.2C374.2 206.7 322.5 156 259 156c-17.6 0-34.2 3.9-49.1 10.8C186.1 72.3 101.5 2 .2 0v521.9c14.7 48.8 59.9 84.3 113.5 84.3 55.7 0 102.5-38.5 115.1-90.4 3.3.5 6.7.8 10.1.8 36.4 0 66-29.5 66-66v-1.8c3.5.3 7 .4 10.6.4 50.8 0 94.9-28.3 117.5-70h189.8c-25.6-32.4-65.2-53.3-109.7-53.3z"/><path fill="#FF644B" d="M142.8 453.5l50.1 44c13.3 11.7 7.5 33.5-9.8 37.1L117.7 548c-38.4 7.9-77.5-9.6-97.2-43.5L-2 465.7l38.8-22.5c33.9-19.7 76.5-15.5 106 10.3z"/><path fill="#EFDB9F" d="M147.8 530.2L132 503l44.9 11.9c.9.2 1.8-.3 2-1.2.2-.9-.3-1.8-1.2-2l-44.9-11.9L160 484c.8-.5 1.1-1.5.6-2.3s-1.5-1.1-2.3-.6l-30.1 17.5-40.8-10.8 48.2-28c.8-.5 1.1-1.5.6-2.3-.5-.8-1.5-1.1-2.3-.6l-51 29.6-40.8-10.8 57.6-33.5c.8-.5 1.1-1.5.6-2.3s-1.5-1.1-2.3-.6l-60.5 35.2-21-5.6c-.9-.2-1.8.3-2 1.2-.1.4 0 .9.2 1.3s.6.7 1 .8l21 5.6 35.2 60.5c.5.8 1.5 1.1 2.3.6.8-.5 1.1-1.5.6-2.3L41.3 479l40.8 10.8 29.6 51c.5.8 1.5 1.1 2.3.6.8-.5 1.1-1.5.6-2.3l-28-48.2 40.8 10.8 17.5 30.1c.5.8 1.5 1.1 2.3.6.8-.4 1.1-1.4.6-2.2z"/><path fill="#46466E" d="M128.8 597.7l5.2 80.2c1.4 21.3-22.2 34.9-40 23.2l-67.1-44.3c-39.4-26-57.8-74.2-45.7-119.9L-5 484.7l52.3 13.8c45.6 12.2 78.4 52.1 81.5 99.2z"/><path fill="#EFDB9F" d="M67.7 667.3l9.7-36.7 28.1 48.4c.6 1 1.8 1.3 2.7.7 1-.6 1.3-1.8.7-2.7l-28.1-48.4 36.7 9.7c1.1.3 2.2-.4 2.4-1.4.3-1.1-.4-2.2-1.4-2.4l-40.6-10.7-25.6-44 64.9 17.2c1.1.3 2.2-.4 2.4-1.4.3-1.1-.4-2.2-1.4-2.4L49.5 575l-25.6-44 77.7 20.6c1.1.3 2.2-.4 2.4-1.4.3-1.1-.4-2.2-1.4-2.4l-81.5-21.6-13-22.9c-.6-1-1.8-1.3-2.7-.7-.5.3-.8.7-.9 1.2-.1.5-.1 1 .2 1.5l13.2 22.6-21.6 81.5c-.3 1.1.4 2.2 1.4 2.4s2.2-.4 2.4-1.4l20.6-77.7 25.6 44L28 645.6c-.3 1.1.4 2.2 1.4 2.4s2.2-.4 2.4-1.4L49 581.7l25.6 44-10.7 40.6c-.3 1.1.4 2.2 1.4 2.4 1.1.3 2.2-.3 2.4-1.4zm279-279c4.6 6.9 11.2 11.5 18.6 13.6.9-7.6-.8-15.5-5.4-22.4-4.6-6.9-11.2-11.5-18.6-13.6-.9 7.6.8 15.6 5.4 22.4z"/><path fill="#B39F78" d="M342.5 405.4c8.1 1.6 16.1.2 22.7-3.6-4.7-6-11.6-10.4-19.6-12-8.1-1.6-16.1-.2-22.7 3.6 4.7 6 11.5 10.4 19.6 12z"/><g fill="#FF644B"><path d="M87.4 293.9l11 23.6-11 23.6c-13.3 28.6 21.4 55.5 45.8 35.4l71.5-59-71.5-59c-24.5-20.1-59.2 6.8-45.8 35.4z"/><path d="M181 434.8l23.6-11 23.6 11c28.6 13.3 55.5-21.4 35.4-45.8l-59-71.5-59 71.5c-20.1 24.4 6.7 59.1 35.4 45.8zm129.8-117.3l11-23.6c13.3-28.6-21.4-55.5-45.8-35.4l-71.5 59 71.5 59c24.4 20.1 59.1-6.8 45.8-35.4l-11-23.6z"/><path d="M228.2 200.3l-23.6 11-23.6-11c-28.6-13.3-55.5 21.4-35.4 45.8l59 71.5 59-71.5c20.1-24.4-6.8-59.1-35.4-45.8z"/></g><g fill="#EFA950"><path d="M123 301.1l7.7 16.4L123 334c-9.3 19.9 14.9 38.6 31.9 24.6l49.8-41.1-49.8-41.1c-17-13.9-41.2 4.8-31.9 24.7z"/><path d="M188.2 399.1l16.4-7.7 16.4 7.7c19.9 9.3 38.6-14.9 24.6-31.9l-41.1-49.8-41.1 49.8c-13.9 17.1 4.8 41.2 24.8 31.9zm90.3-81.6l7.7-16.4c9.3-19.9-14.9-38.6-31.9-24.6l-49.8 41.1 49.8 41.1c17 14 41.1-4.7 31.9-24.6l-7.7-16.6z"/><path d="M221 235.9l-16.4 7.7-16.4-7.7c-19.9-9.3-38.6 14.9-24.6 31.9l41.1 49.8 41.1-49.8c13.9-17-4.9-41.1-24.8-31.9z"/></g><circle fill="#FF644B" cx="204.6" cy="365.6" r="20.3"/><path fill="#EFDB9F" d="M252.5 332.7l-7.3-7.6 18-18.4h-23.4c-4.5-15-18.6-26.2-35.2-26.2s-30.7 11.2-35.2 26.2H146l18 18.4-7.3 7.6H171c1.4 3 3 5.8 5.2 8.4l-.1-.2v15.7c0 5.1 4.4 9 9.6 9h9.7c5.1 0 9.3-4.2 9.3-9.3 0 5.1 4.2 9.3 9.3 9.3h9.7c5.1 0 9.4-3.9 9.4-9v-15.7c2-2.6 3.9-5.3 5.2-8.3h14.2z"/><path fill="#281E32" d="M189.2 323.5h30.7c4.6 0 6.8 5.5 3.6 8.7l-15.3 15.3c-2 2-5.2 2-7.2 0l-15.3-15.3c-3.3-3.1-1-8.7 3.5-8.7z"/><path fill="#FF644B" d="M220.6 284.5c3.8-5.3 10-8.8 17-8.8h3.7V310h-.8c-2.3-11.3-9.8-20.6-19.9-25.5zm-32 0c-3.8-5.3-10-8.8-17-8.8h-3.7V310h.8c2.3-11.3 9.8-20.6 19.9-25.5z"/><circle fill="#46466E" cx="233.4" cy="307.6" r="12.2"/><circle fill="#46466E" cx="175.8" cy="307.6" r="12.2"/><circle fill="#281E32" cx="175.8" cy="307.6" r="6.4"/><circle fill="#281E32" cx="233.4" cy="307.6" r="6.4"/></svg>