<svg xmlns="http://www.w3.org/2000/svg" viewBox="0 0 627 803.7"><path fill="#281E32" d="M170.9 455.7c78.4 0 144.1 54.2 161.9 127.1 4.6-.7 9.4-1.1 14.2-1.1 51.3 0 92.8 41.6 92.8 92.8 0 .8 0 1.6-.1 2.5 4.9-.4 9.9-.6 14.9-.6 77 0 143.2 46.3 172.2 112.6H4.3V622.3c0-92 74.6-166.6 166.6-166.6z"/><path fill="#46466E" d="M290.5 787.5c3.5-8.8 12-15 22-15 .7 0 1.4 0 2.1.1.7-13.7 12-24.6 25.9-24.6h.6c1.4-25.2 22.3-45.2 47.8-45.2 21.2 0 39.1 13.8 45.5 32.8 5.5-3.4 12-5.5 19-5.5 19.1 0 34.7 15 35.7 33.9.9-.1 1.9-.1 2.8-.1 14.9 0 27.4 9.9 31.4 23.5H290.5z"/><path fill="#EFDB9F" d="M388.9 628.5V788h50.9V628.5c0-3.2-1.2-6.4-3.5-8.7l-12.7-13.5c-5-5.3-13.5-5.3-18.5 0l-12.7 13.5c-2.3 2.3-3.5 5.5-3.5 8.7zm-98.7 0V788h50.9V628.5c0-3.2-1.2-6.4-3.5-8.7l-12.7-13.5c-5-5.3-13.5-5.3-18.5 0l-12.7 13.5c-2.3 2.3-3.5 5.5-3.5 8.7zm197.3 0V788h50.9V628.5c0-3.2-1.2-6.4-3.5-8.7l-12.7-13.5c-5-5.3-13.5-5.3-18.5 0L491 619.8c-2.2 2.3-3.5 5.5-3.5 8.7z"/><path fill="#B39F78" d="M388.9 702.9h50.9v10h-50.9zm-98.7 0h50.9v10h-50.9zm197.3 0h50.9v10h-50.9z"/><path fill="#EFDB9F" d="M577.9 652H233.8v50.9h344.1c3.2 0 6.4-1.2 8.7-3.5l13.5-12.7c5.3-5 5.3-13.5 0-18.5l-13.5-12.7c-2.3-2.3-5.4-3.5-8.7-3.5z"/><path fill="#46466E" d="M233.8 342.3c0 74.2-60.2 134.4-134.4 134.4S-35 416.5-35 342.3c0-31.3 11.1-61.5 31.3-85.4l.6-.7c20.2-23.9 31.3-54.1 31.3-85.4V71.2c0-39.4 32-71.3 71.4-71.2 39.3.1 70.9 32.6 70.9 71.9v98.8c0 31.3 11.1 61.5 31.3 85.4l.6.7c20.3 24 31.4 54.2 31.4 85.5z"/><g fill="#EFDB9F"><path d="M99.5 210.6h-.1c-3.5 0-6.4 2.8-6.4 6.4l-4.3 332.3h21.7L106.1 217c-.2-3.6-3.1-6.4-6.6-6.4z"/><path d="M99.4 354v20.8l50-51.3c2.5-2.5 2.4-6.6-.1-9.1l-.1-.1c-2.5-2.5-6.5-2.5-9.1-.1L99.4 354zm67.3 10.8l-67.3 65.5v22.2l76.5-78.5c2.5-2.5 2.4-6.6-.1-9.1l-.1-.1c-2.4-2.4-6.5-2.4-9 0z"/><path d="M58.6 314.3c-2.5-2.5-6.6-2.4-9.1.1l-.1.1c-2.5 2.5-2.5 6.5-.1 9.1l50 51.3V354l-40.7-39.7zm-35.5 50.6c-2.6 2.6-2.6 6.6-.1 9.1l76.5 78.5v-22.2l-67.3-65.5c-2.6-2.4-6.6-2.4-9.1.1z"/></g><path fill="#FF644B" d="M356 747.2c0-24.5-19.9-44.4-44.4-44.4s-44.4-19.9-44.4-44.4-19.9-44.4-44.4-44.4-44.4-19.9-44.4-44.4-19.9-44.4-44.4-44.4-44.4-19.9-44.4-44.4-19.9-44.4-44.4-44.4S.5 414.5.5 390L1 719.4 81.7 788h301.2c-15.9-6.8-26.9-22.5-26.9-40.8z"/><path fill="#281E32" d="M210 719.1c-13.9 7.1-23.5 19.1-28 32.8-4.4 13.7-14.1 25.7-28 32.8 10.8-11.2 16.1-25.6 15.9-40.1s5.1-28.9 15.9-40.1c-13.9 7.1-23.5 19.1-28 32.8-4.4 13.7-14.1 25.7-28 32.8 10.8-11.2 16.1-25.6 15.9-40.1-.2-14.4 5.1-28.9 15.9-40.1-13.9 7.1-23.5 19.1-28 32.8-4.4 13.7-14.1 25.7-28 32.8 10.8-11.2 16.1-25.6 15.9-40.1-.2-14.4 5.1-28.9 15.9-40.1-13.9 7.1-23.5 19.1-28 32.8-4.4 13.7-14.1 25.7-28 32.8 10.8-11.2 16.1-25.6 15.9-40.1-.2-14.4 5.1-28.9 15.9-40.1-13.9 7.1-23.5 19.1-28 32.8-4.4 13.7-14.1 25.7-28 32.8 10.8-11.2 16.1-25.6 15.9-40.1s5.1-28.9 15.9-40.1c-13.9 7.1-23.5 19.1-28 32.8s-14.1 25.7-28 32.8c10.8-11.2 16.1-25.6 15.9-40.1-.2-14.4 5.1-28.9 15.9-40.1-13.9 7.1-23.5 19.1-28 32.8-4.4 13.7-14.1 25.7-28 32.8 10.8-11.2 16.1-25.6 15.9-40.1-.2-14.4 5.1-28.9 15.9-40.1-13.9 7.1-23.5 19.1-28 32.8-2.6 8.1-7.1 15.7-13.2 21.9v116.1l185.2 1.7c5.9-9.4 8.8-20.1 8.7-30.8.5-13.9 5.8-28.4 16.7-39.5z"/><g fill="#281E32"><circle cx="302.1" cy="663.9" r="4.8"/><circle cx="329.1" cy="663.9" r="4.8"/><circle cx="302.1" cy="690.9" r="4.8"/><circle cx="329.1" cy="690.9" r="4.8"/></g><g fill="#281E32"><circle cx="400.8" cy="663.9" r="4.8"/><circle cx="427.8" cy="663.9" r="4.8"/><circle cx="400.8" cy="690.9" r="4.8"/><circle cx="427.8" cy="690.9" r="4.8"/></g><g fill="#281E32"><circle cx="499.5" cy="663.9" r="4.8"/><circle cx="526.5" cy="663.9" r="4.8"/><circle cx="499.5" cy="690.9" r="4.8"/><circle cx="526.5" cy="690.9" r="4.8"/></g><path fill="#FF644B" d="M577.4 721.2c5.5-.8 11.3 1.2 15 5.8.7.9 1.3 1.8 1.8 2.8.4-1 .9-2 1.5-3 3.3-5 8.8-7.6 14.4-7.2 2.5 5 2.4 11.1-.9 16.1-.6 1-1.3 1.8-2.1 2.6 1.1.1 2.2.2 3.3.5 5.7 1.6 9.9 6.1 11.3 11.4-4 3.9-9.8 5.7-15.6 4.1-1.1-.3-2.2-.7-3.1-1.2.3 1.1.5 2.2.5 3.3.3 6-2.7 11.3-7.4 14.3-4.9-2.6-8.4-7.6-8.7-13.5-.1-1.1 0-2.3.2-3.4-.9.6-1.9 1.1-3 1.5-5.6 2.1-11.6.9-15.9-2.6.9-5.5 4.6-10.4 10.2-12.5 1.1-.4 2.2-.7 3.3-.9-.9-.7-1.6-1.5-2.4-2.4-3.7-4.5-4.4-10.5-2.4-15.7z"/><circle fill="#fff" cx="595.3" cy="742.1" r="8"/><path fill="#46466E" d="M550.9 782.1c2.7-2 6.3-2.6 9.6-1.2.6.3 1.2.6 1.8 1-.1-.7-.1-1.3 0-2 .3-3.6 2.5-6.5 5.5-7.9 2.7 1.9 4.4 5.2 4.1 8.7-.1.7-.2 1.3-.4 2 .6-.3 1.2-.5 1.9-.7 3.5-.8 6.9.4 9.2 2.8-1 3.2-3.6 5.8-7 6.6-.7.2-1.3.2-2 .2.4.5.9 1 1.2 1.6 1.8 3.1 1.8 6.7.2 9.6-3.3.1-6.6-1.6-8.4-4.7-.4-.6-.6-1.2-.8-1.8-.3.6-.7 1.1-1.2 1.6-2.3 2.7-5.8 3.8-9.1 3.1-1.1-3.1-.5-6.8 1.8-9.5.5-.5.9-1 1.5-1.4-.6-.1-1.3-.3-1.9-.6-3.5-1.1-5.6-4.1-6-7.4zM350.8 617.3c1.1-3.1 3.9-5.6 7.4-6.2.7-.1 1.3-.2 2-.1-.4-.5-.8-1.1-1.1-1.7-1.7-3.2-1.4-6.8.4-9.6 3.3.1 6.5 2 8.2 5.1.3.6.6 1.2.8 1.9.4-.6.8-1.1 1.2-1.6 2.5-2.6 6-3.4 9.3-2.6.9 3.2.1 6.8-2.3 9.3-.5.5-1 .9-1.5 1.3.6.2 1.3.4 1.9.7 3.2 1.6 5.1 4.7 5.4 8-2.8 1.9-6.4 2.2-9.6.7-.6-.3-1.2-.7-1.7-1.1 0 .7 0 1.3-.1 2-.5 3.5-2.9 6.3-5.9 7.6-2.6-2.1-4.1-5.4-3.6-8.9.1-.7.3-1.3.5-2l-1.9.6c-3.8.5-7.2-.9-9.4-3.4z"/></svg>