<svg xmlns="http://www.w3.org/2000/svg" viewBox="0 0 1331 818"><path fill="#281E32" d="M1263.1 734h70V178L741 684H35L0 723l-1.2 110.9 1332.1-3 2.2-96.9"/><path fill="#FF644B" d="M667.6 658.2c24.5 0 44.4-19.9 44.4-44.4s19.9-44.4 44.4-44.4 44.4-19.9 44.4-44.4 19.9-44.4 44.4-44.4 44.4-19.9 44.4-44.4 19.9-44.4 44.4-44.4 44.4-19.9 44.4-44.4 19.9-44.4 44.4-44.4 44.4-19.9 44.4-44.4 19.9-44.4 44.4-44.4 44.4-19.9 44.4-44.4 19.9-44.4 44.4-44.4 44.4-19.9 44.4-44.4 19.9-44.4 44.4-44.4 44.4-19.9 44.4-44.4v327.1L883.2 702.5H623.3c0-24.5 19.8-44.3 44.3-44.3z"/><path fill="#281E32" d="M836 657.1c2.5 0 4.9.1 7.3.3v-1.2c0-25.2 20.4-45.7 45.7-45.7 2.4 0 4.7.2 7 .5 8.7-35.9 41.1-62.5 79.7-62.5 45.3 0 82 36.7 82 82v82H751.2c14.3-32.6 46.9-55.4 84.8-55.4z"/><path fill="#EFA950" d="M664.9 658.2c-24.5 0-44.4-19.9-44.4-44.4s-19.9-44.4-44.4-44.4-44.4-19.9-44.4-44.4-19.9-44.4-44.4-44.4-44.3-19.7-44.3-44.2c0-24.5-19.9-44.4-44.4-44.4s-44.4-19.9-44.4-44.4-19.9-44.4-44.4-44.4-44.4-19.9-44.4-44.4-19.9-44.4-44.4-44.4-44.4-19.9-44.4-44.4-19.9-44.4-44.4-44.4-44.4-19.9-44.4-44.4-19.9-44.4-44.4-44.4c-24.1.3-44-19.6-44-44.1v399.4l310.5 310.5h399.4c-.1-24.6-19.9-44.4-44.4-44.4z"/><path fill="#281E32" d="M-.6 287.4c56.6 0 102.5 45.9 102.5 102.5S56 492.4-.6 492.4v-205zM434.2 657.1c-2.5 0-4.9.1-7.3.3v-1.2c0-25.2-20.4-45.7-45.7-45.7-2.4 0-4.7.2-7 .5-8.7-35.9-41.1-62.5-79.7-62.5-45.3 0-82 36.7-82 82v82H519c-14.3-32.6-46.9-55.4-84.8-55.4z"/><path fill="#46466E" d="M190.1 329.3c-12.9 6.4-23.4 17.7-28.4 32.4 0-15.6 6.3-29.6 16.5-39.8 10.2-10.2 16.5-24.3 16.5-39.8-5 14.7-15.5 26-28.4 32.4-12.9 6.4-23.4 17.7-28.4 32.4 0-15.6 6.3-29.6 16.5-39.8 10.2-10.2 16.5-24.3 16.5-39.8-5 14.7-15.5 26-28.4 32.4s-23.4 17.7-28.4 32.4c0-15.6 6.3-29.6 16.5-39.8 10.2-10.2 16.5-24.3 16.5-39.8-5 14.7-15.5 26-28.4 32.4-12.9 6.4-23.4 17.7-28.4 32.4 0-15.6 6.3-29.6 16.5-39.8 10.2-10.2 16.5-24.3 16.5-39.8-5 14.7-15.5 26-28.4 32.4s-23.4 17.7-28.4 32.4c0-15.6 6.3-29.6 16.5-39.8s16.5-24.3 16.5-39.8c-5 14.7-15.5 26-28.4 32.4-12.9 6.4-23.4 17.7-28.4 32.4 0-15.6 6.3-29.6 16.5-39.8s16.5-24.3 16.5-39.8c-5 14.7-15.5 26-28.4 32.4-12.9 6.4-23.4 17.7-28.4 32.4 0-15.6 6.3-29.6 16.5-39.8s16.5-24.3 16.5-39.8c-5 14.7-15.5 26-28.4 32.4-9.6 4.7-17.9 12.2-23.5 21.7v260.8l186.1-131.3c0-15.6 6.3-29.6 16.5-39.8 10.2-10.2 16.5-24.3 16.5-39.8-5.6 14.3-16.1 25.6-29 32z"/><path fill="#EFDB9F" d="M210.3 682.5c-10.9 9.5-27.2 9.5-38.1 0-5.4 4.8-12.2 7.1-19.1 7.1s-13.6-2.4-19.1-7.1c-10.9 9.5-27.2 9.5-38.1 0-10.5 9.2-26.1 9.5-37 .9-2.9 5.8-4.4 12.2-4.4 18.8v.4h197.1v-.4c0-6.6-1.5-13-4.4-18.8-10.7 8.6-26.3 8.3-36.9-.9z"/><path fill="#B39F78" d="M94.6 678.4c.8-.8 2-.8 2.8 0 9.7 9.7 25.5 9.7 35.3 0 .8-.8 2-.8 2.8 0 9.7 9.7 25.5 9.7 35.3 0 .8-.8 2-.8 2.8 0 9.7 9.7 25.5 9.7 35.3 0 .8-.8 2-.8 2.8 0 9.2 9.2 23.8 9.7 33.6 1.5-.6-.9-1.2-1.9-1.9-2.8l-9.1-12.2H72l-9.1 12.2c-.7.9-1.3 1.8-1.9 2.8 9.8 8.2 24.4 7.6 33.6-1.5z"/><path fill="#46466E" d="M211.8 678.4c-.8-.8-2-.8-2.8 0-9.7 9.7-25.5 9.7-35.3 0-.8-.8-2-.8-2.8 0-9.7 9.7-25.5 9.7-35.3 0-.8-.8-2-.8-2.8 0-9.7 9.7-25.5 9.7-35.3 0-.8-.8-2-.8-2.8 0-9.2 9.2-23.8 9.7-33.6 1.5-.7 1.1-1.4 2.3-2 3.5 10.9 8.6 26.5 8.3 37-.9 10.9 9.5 27.2 9.5 38.1 0 5.4 4.8 12.2 7.1 19.1 7.1s13.6-2.4 19.1-7.1c10.9 9.5 27.2 9.5 38.1 0 10.5 9.2 26.1 9.5 37 .9-.6-1.2-1.3-2.4-2-3.5-9.9 8.2-24.6 7.6-33.7-1.5z"/><path fill="#EFDB9F" d="M323.5 530.6s-9.6-35.2-24.5-89.7c-4.6-1.1-8.8-3.2-12.4-6.4-10.9 9.5-27.2 9.5-38.1 0-10.9 9.5-27.2 9.5-38.1 0-5.3 4.6-12 7.2-19.1 7.2s-13.8-2.5-19.1-7.2c-5.3 4.6-12 7.2-19.1 7.2s-13.8-2.5-19.1-7.2c-5.3 4.6-12 7.2-19.1 7.2s-13.8-2.5-19.1-7.2c-10.9 9.5-27.2 9.5-38.1 0-10.9 9.5-27.2 9.5-38.1 0-3.6 3.1-7.8 5.3-12.4 6.4l-24.5 89.7C-36.6 602 17.2 672.4 91.2 672.4h124c74 0 127.8-70.4 108.3-141.8zM21.2 430.4c9.7 9.7 25.5 9.7 35.3 0 .8-.8 2-.8 2.8 0 9.7 9.7 25.5 9.7 35.3 0 .8-.8 2.1-.8 2.8 0 4.7 4.7 11 7.3 17.6 7.3s12.9-2.6 17.6-7.3c.8-.8 2.1-.8 2.8 0 4.7 4.7 11 7.3 17.6 7.3s12.9-2.6 17.6-7.3c.8-.8 2.1-.8 2.8 0 4.7 4.7 11 7.3 17.6 7.3s12.9-2.6 17.6-7.3c.8-.8 2.1-.8 2.8 0 9.7 9.7 25.5 9.7 35.3 0 .8-.8 2-.8 2.8 0 9.7 9.7 25.5 9.7 35.3 0 .8-.8 2-.8 2.8 0 2.8 2.8 6.1 4.8 9.8 6-.7-2.6-1.4-5.2-2.2-7.9-.3-1.1-.6-2.3-1-3.4-2.6-.9-5.3-1.3-8.1-1.3-6.7 0-12.9 2.6-17.6 7.3-.4.4-.9.6-1.4.6s-1-.2-1.4-.6c-4.7-4.7-11-7.3-17.6-7.3s-12.9 2.6-17.6 7.3c-.8.8-2.1.8-2.8 0-9.7-9.7-25.5-9.7-35.3 0-.8.8-2 .8-2.8 0-9.7-9.7-25.5-9.7-35.3 0-.8.8-2 .8-2.8 0-9.7-9.7-25.5-9.7-35.3 0-.8.8-2 .8-2.8 0-9.7-9.7-25.5-9.7-35.3 0-.8.8-2.1.8-2.8 0-4.7-4.7-11-7.3-17.6-7.3s-12.9 2.6-17.6 7.3c-.8.8-2.1.8-2.8 0-4.7-4.7-11-7.3-17.6-7.3-2.8 0-5.5.5-8.1 1.3-.3 1.1-.7 2.3-1 3.4l-2.2 7.9c3.6-1.2 7-3.2 9.8-6 1-.8 2.3-.8 3 0z"/><path fill="#EFDB9F" d="M38.9 427c5.3-4.6 12-7.2 19.1-7.2 7.1 0 13.8 2.5 19.1 7.2 10.9-9.5 27.2-9.5 38.1 0 5.3-4.6 12-7.2 19.1-7.2 7.1 0 13.8 2.5 19.1 7.2 5.3-4.6 12-7.2 19.1-7.2 7.1 0 13.8 2.5 19.1 7.2 10.9-9.5 27.2-9.5 38.1 0 5.3-4.6 12-7.2 19.1-7.2 7.1 0 13.8 2.5 19.1 7.2 5.3-4.6 12-7.2 19.1-7.2 2.3 0 4.5.3 6.6.8-.6-1.8-1.2-3.6-1.9-5.4-.8-2.3-3-3.8-5.4-3.8H20.5c-2.4 0-4.6 1.5-5.4 3.8-.6 1.8-1.3 3.6-1.9 5.4 2.1-.5 4.4-.8 6.6-.8 7.1 0 13.8 2.5 19.1 7.2z"/><path fill="#46466E" d="M37.5 431.1c.8.8 2.1.8 2.8 0 4.7-4.7 11-7.3 17.6-7.3s12.9 2.6 17.6 7.3c.8.8 2.1.8 2.8 0 9.7-9.7 25.5-9.7 35.3 0 .8.8 2 .8 2.8 0 9.7-9.7 25.5-9.7 35.3 0 .8.8 2 .8 2.8 0 9.7-9.7 25.5-9.7 35.3 0 .8.8 2 .8 2.8 0 9.7-9.7 25.5-9.7 35.3 0 .8.8 2.1.8 2.8 0 4.7-4.7 11-7.3 17.6-7.3s12.9 2.6 17.6 7.3c.4.4.9.6 1.4.6s1-.2 1.4-.6c4.7-4.7 11-7.3 17.6-7.3 2.8 0 5.5.5 8.1 1.3-.5-1.5-.9-3.1-1.4-4.6-2.1-.5-4.4-.8-6.6-.8-7.1 0-13.8 2.5-19.1 7.2-5.3-4.6-12-7.2-19.1-7.2-7.1 0-13.8 2.5-19.1 7.2-10.9-9.5-27.2-9.5-38.1 0-5.3-4.6-12-7.2-19.1-7.2-7.1 0-13.8 2.5-19.1 7.2-5.3-4.6-12-7.2-19.1-7.2-7.1 0-13.8 2.5-19.1 7.2-10.9-9.5-27.2-9.5-38.1 0-5.3-4.6-12-7.2-19.1-7.2-7.1 0-13.8 2.5-19.1 7.2-5.3-4.6-12-7.2-19.1-7.2-2.3 0-4.5.3-6.6.8-.5 1.5-1 3-1.4 4.6 2.6-.9 5.3-1.3 8.1-1.3 7.2 0 13.5 2.6 18.2 7.3z"/><path fill="#EFA950" d="M57.9 434.5c10.9 9.5 27.2 9.5 38.1 0 5.3 4.6 12 7.2 19.1 7.2s13.8-2.5 19.1-7.2c5.3 4.6 12 7.2 19.1 7.2s13.8-2.5 19.1-7.2c5.3 4.6 12 7.2 19.1 7.2s13.8-2.5 19.1-7.2c10.9 9.5 27.2 9.5 38.1 0 10.9 9.5 27.2 9.5 38.1 0 3.6 3.1 7.8 5.3 12.4 6.4l-1.2-4.5c-3.6-1.2-7-3.2-9.8-6-.8-.8-2-.8-2.8 0-9.7 9.7-25.5 9.7-35.3 0-.8-.8-2-.8-2.8 0-9.7 9.7-25.5 9.7-35.3 0-.8-.8-2.1-.8-2.8 0-4.7 4.7-11 7.3-17.6 7.3s-12.9-2.6-17.6-7.3c-.8-.8-2.1-.8-2.8 0-4.7 4.7-11 7.3-17.6 7.3s-12.9-2.6-17.6-7.3c-.8-.8-2.1-.8-2.8 0-4.7 4.7-11 7.3-17.6 7.3s-12.9-2.6-17.6-7.3c-.8-.8-2.1-.8-2.8 0-9.7 9.7-25.5 9.7-35.3 0-.8-.8-2-.8-2.8 0-9.7 9.7-25.5 9.7-35.3 0-.8-.8-2-.8-2.8 0-2.8 2.8-6.1 4.8-9.8 6L8 440.9c4.6-1.1 8.8-3.2 12.4-6.4 10.3 9.6 26.7 9.6 37.5 0z"/><path fill="#EFDB9F" d="M286.4 403.3C234.8 292 71.6 292 20 403.3h266.4z"/><path fill="#B39F78" d="M25.3 411.4h255.9c4.2 0 7-4.3 5.2-8.1H20c-1.8 3.8 1.1 8.1 5.3 8.1z"/><path fill="#EFDB9F" d="M386.2 443.8v-4.5c-8.4 1-16.3 4.7-22.3 10.8l-70 70h-6.1c-31 0-57.3 22.7-62 53.3l-2.3 15.3c-4.7 31 33.7 49.2 54.8 26l120.6-133.2h24.9c-20.8-.1-37.6-16.9-37.6-37.7z"/><path fill="#B39F78" d="M391 439.1h-.5c-1.4 0-2.8.1-4.2.2v4.5c0 1.9.1 3.8.4 5.7 16.2 2.5 29 15.3 31.5 31.5 1.8.3 3.7.4 5.7.4h4.8v-4.8c-.2-20.7-17-37.5-37.7-37.5z"/><path fill="#281E32" d="M386.6 449.5c2.5 16.2 15.3 29 31.5 31.5-2.4-16.2-15.3-29.1-31.5-31.5z"/><g><path fill="#281E32" d="M169.2 467.5c-1.1 0-2-.9-2-2v-54.1c0-1.1.9-2 2-2s2 .9 2 2v54.1c0 1.1-.9 2-2 2z"/><path fill="#FF644B" d="M204 485.7l-29.6-21.5c-3.1-2.3-7.3-2.3-10.5 0l-29.6 21.5c-2.3 1.7-3.7 4.3-3.7 7.2V548c0 4.9 4 8.9 8.9 8.9h59.2c4.9 0 8.9-4 8.9-8.9v-55.1c.1-2.8-1.3-5.5-3.6-7.2zm-34.8-9.3c-2.2 0-4-1.8-4-4s1.8-4 4-4 4 1.8 4 4-1.8 4-4 4z"/><path fill="#281E32" d="M172 471.6c-.5 0-1-.2-1.4-.6-.8-.8-.8-2 0-2.8l4.1-4.1c.8-.8 2-.8 2.8 0 .8.8.8 2 0 2.8l-4.1 4.1c-.4.4-.9.6-1.4.6zM166.4 471.6c-.5 0-1-.2-1.4-.6l-4.1-4.1c-.8-.8-.8-2 0-2.8.8-.8 2-.8 2.8 0l4.1 4.1c.8.8.8 2 0 2.8-.4.4-.9.6-1.4.6z"/></g><path fill="#B39F78" d="M327.5 560.3l-52.9 57.9s15.8-14.9 42.4-10.7c6.8-14.5 10.5-30.6 10.5-47.2z"/><path fill="#46466E" d="M428.7 525.4h-.4c-10 0-16.5-10.5-12-19.5l12.3-24.5 12.3 24.5c4.4 9-2.1 19.5-12.2 19.5z"/><circle fill="#B39F78" cx="161" cy="292.9" r="27"/><path fill="#281E32" d="M127.8 675.7c-2.5 0-4.9.1-7.3.3v-1.2c0-25.2-20.4-45.7-45.7-45.7-2.4 0-4.7.2-7 .5-8.7-35.9-41.1-62.5-79.7-62.5-45.3 0-82 36.7-82 82v82h306.4c-14.2-32.7-46.8-55.4-84.7-55.4z"/><path fill="#46466E" d="M58 712.3c-2.5 0-4.9.1-7.3.3v-1.2c0-25.2-20.4-45.7-45.7-45.7-2.4 0-4.7.2-7 .5-8.7-35.9-41.1-62.5-79.7-62.5-45.3 0-82 36.7-82 82v82h306.4C128.5 735 95.9 712.3 58 712.3zM1329.9 532c-59.3 0-107.3 48-107.3 107.3 0 1 .1 1.9.1 2.9-5.7-.4-11.4-.7-17.2-.7-16.9 0-33.4 1.9-49.2 5.6-14.4-23.7-40.4-39.5-70.1-39.5-38.6 0-70.9 26.7-79.7 62.5-2.3-.4-4.6-.5-7-.5-25.2 0-45.7 20.4-45.7 45.7v1.2c-2.4-.2-4.9-.1-7.3-.1-37.9 0-70.5 22.6-84.7 55.6H1333V532.1c-1 0-2-.1-3.1-.1z"/><g><circle fill="#FF644B" cx="326" cy="701.7" r="23"/><path fill="#EFDB9F" d="M303.2 682.3c8.1 1.6 16.1.2 22.7-3.6-4.7-6-11.6-10.4-19.6-12-8.1-1.6-16.1-.2-22.7 3.6 4.7 6 11.6 10.4 19.6 12z"/><path fill="#B39F78" d="M312.4 697.3c6.9-4.6 11.5-11.2 13.6-18.6-7.6-.9-15.5.8-22.4 5.4-6.9 4.6-11.5 11.2-13.6 18.6 7.6.9 15.6-.8 22.4-5.4z"/></g><g><circle fill="#FF644B" cx="906.1" cy="658.1" r="23"/><path fill="#EFDB9F" d="M928.8 638.6c-8.1 1.6-16.1.2-22.7-3.6 4.7-6 11.6-10.4 19.6-12s16.1-.2 22.7 3.6c-4.7 6-11.5 10.4-19.6 12z"/><path fill="#B39F78" d="M919.7 653.6c-6.9-4.6-11.5-11.2-13.6-18.6 7.6-.9 15.5.8 22.4 5.4s11.5 11.2 13.6 18.6c-7.7.9-15.6-.8-22.4-5.4z"/></g><g><circle fill="#FF644B" cx="368.6" cy="616.3" r="23"/><path fill="#B39F78" d="M375 603.6c-8.1 1.6-16.1.2-22.7-3.6 4.7-6 11.6-10.4 19.6-12 8.1-1.6 16.1-.2 22.7 3.6-4.7 5.9-11.5 10.3-19.6 12z"/></g><g><circle fill="#FF644B" cx="1313.6" cy="442.3" r="23"/><path fill="#B39F78" d="M1327.3 438.3c-6.7-4.8-11.1-11.6-13-19 7.6-.7 15.5 1.3 22.2 6.1 6.7 4.8 11.1 11.6 13 19-7.6.6-15.5-1.4-22.2-6.1z"/></g><g><path fill="#EFDB9F" d="M1030.5 555.1c.8-.8 2-.8 2.8 0 9.7 9.7 25.5 9.7 35.3 0 .8-.8 2.1-.8 2.8 0 4.7 4.7 11 7.3 17.6 7.3 6.7 0 12.9-2.6 17.6-7.3.8-.8 2.1-.8 2.8 0 4.7 4.7 11 7.3 17.6 7.3 6.7 0 12.9-2.6 17.6-7.3.8-.8 2.1-.8 2.8 0 4.7 4.7 11 7.3 17.6 7.3 6.7 0 12.9-2.6 17.6-7.3.8-.8 2.1-.8 2.8 0 9.7 9.7 25.5 9.7 35.3 0 .8-.8 2-.8 2.8 0 8.5 8.5 21.7 9.6 31.3 3.2v-9.2c-4.6 1-8.9 3.3-12.3 6.7-.4.4-.9.6-1.4.6s-1-.2-1.4-.6c-4.7-4.7-11-7.3-17.6-7.3s-12.9 2.6-17.6 7.3c-.8.8-2.1.8-2.8 0-9.7-9.7-25.5-9.7-35.3 0-.8.8-2 .8-2.8 0-9.7-9.7-25.5-9.7-35.3 0-.8.8-2 .8-2.8 0-9.7-9.7-25.5-9.7-35.3 0-.8.8-2 .8-2.8 0-9.7-9.7-25.5-9.7-35.3 0-.8.8-2.1.8-2.8 0-4.7-4.7-11-7.3-17.6-7.3s-12.9 2.6-17.6 7.3c-.8.8-2.1.8-2.8 0-3.4-3.4-7.7-5.7-12.3-6.7v9.2c9.9 6.4 23 5.3 31.5-3.2z"/><path fill="#EFDB9F" d="M1222.5 559.3c-10.9 9.5-27.2 9.5-38.1 0-5.3 4.6-12 7.2-19.1 7.2s-13.8-2.5-19.1-7.2c-5.3 4.6-12 7.2-19.1 7.2-7.1 0-13.8-2.5-19.1-7.2-5.3 4.6-12 7.2-19.1 7.2s-13.8-2.5-19.1-7.2c-10.9 9.5-27.2 9.5-38.1 0-9.2 8.1-22.3 9.3-32.7 3.7v24c0 66.1 53.5 119.6 119.6 119.6h16.8c66.1 0 119.6-53.5 119.6-119.6v-24.1c-10.2 5.6-23.3 4.4-32.5-3.6zM1031.9 544.5c7.1 0 13.8 2.5 19.1 7.2 10.9-9.5 27.2-9.5 38.1 0 5.3-4.6 12-7.2 19.1-7.2 7.1 0 13.8 2.5 19.1 7.2 5.3-4.6 12-7.2 19.1-7.2 7.1 0 13.8 2.5 19.1 7.2 10.9-9.5 27.2-9.5 38.1 0 5.3-4.6 12-7.2 19.1-7.2 7.1 0 13.8 2.5 19.1 7.2 3.9-3.4 8.6-5.7 13.7-6.7v-12.5c0-3.1-2.5-5.7-5.7-5.7h-244.7c-3.1 0-5.7 2.5-5.7 5.7V545c5.1.9 9.8 3.2 13.7 6.7 5.1-4.7 11.8-7.2 18.8-7.2z"/><path fill="#46466E" d="M1014.3 555.8c4.7-4.7 11-7.3 17.6-7.3s12.9 2.6 17.6 7.3c.8.8 2.1.8 2.8 0 9.7-9.7 25.5-9.7 35.3 0 .8.8 2 .8 2.8 0 9.7-9.7 25.5-9.7 35.3 0 .8.8 2 .8 2.8 0 9.7-9.7 25.5-9.7 35.3 0 .8.8 2 .8 2.8 0 9.7-9.7 25.5-9.7 35.3 0 .8.8 2.1.8 2.8 0 4.7-4.7 11-7.3 17.6-7.3s12.9 2.6 17.6 7.3c.4.4.9.6 1.4.6s1-.2 1.4-.6c3.4-3.4 7.7-5.7 12.3-6.7V545c-5.1.9-9.8 3.2-13.7 6.7-5.3-4.6-12-7.2-19.1-7.2-7.1 0-13.8 2.5-19.1 7.2-10.9-9.5-27.2-9.5-38.1 0-5.3-4.6-12-7.2-19.1-7.2-7.1 0-13.8 2.5-19.1 7.2-5.3-4.6-12-7.2-19.1-7.2-7.1 0-13.8 2.5-19.1 7.2-10.9-9.5-27.2-9.5-38.1 0-5.3-4.6-12-7.2-19.1-7.2-7.1 0-13.8 2.5-19.1 7.2-3.9-3.4-8.6-5.7-13.7-6.7v4.1c4.6 1 8.9 3.3 12.3 6.7 1.3.8 2.6.8 3.4 0z"/><path fill="#EFA950" d="M1223.9 555.1c-.8-.8-2-.8-2.8 0-9.7 9.7-25.5 9.7-35.3 0-.8-.8-2.1-.8-2.8 0-4.7 4.7-11 7.3-17.6 7.3-6.7 0-12.9-2.6-17.6-7.3-.8-.8-2.1-.8-2.8 0-4.7 4.7-11 7.3-17.6 7.3-6.7 0-12.9-2.6-17.6-7.3-.8-.8-2.1-.8-2.8 0-4.7 4.7-11 7.3-17.6 7.3-6.7 0-12.9-2.6-17.6-7.3-.8-.8-2.1-.8-2.8 0-9.7 9.7-25.5 9.7-35.3 0-.8-.8-2-.8-2.8 0-8.5 8.5-21.7 9.6-31.3 3.2v4.6c10.4 5.6 23.5 4.4 32.7-3.7 10.9 9.5 27.2 9.5 38.1 0 5.3 4.6 12 7.2 19.1 7.2s13.8-2.5 19.1-7.2c5.3 4.6 12 7.2 19.1 7.2 7.1 0 13.8-2.5 19.1-7.2 5.3 4.6 12 7.2 19.1 7.2s13.8-2.5 19.1-7.2c10.9 9.5 27.2 9.5 38.1 0 9.2 8.1 22.3 9.3 32.7 3.7v-4.6c-10.3 6.4-23.4 5.3-31.9-3.2z"/><path fill="#B39F78" d="M1001.4 631.4L969 598.9c-4-4-6.2-9.4-6.2-15.1 0-11.7 9.6-21.3 21.3-21.3 5.9 0 11.3 2.4 15.2 6.4v-23.5c-4.7-1.9-9.8-2.9-15.2-2.9-22.8 0-41.3 18.5-41.3 41.3 0 11 4.3 21.4 12.1 29.2l21.7 21.7c-3.4 6-2.6 13.9 2.5 19 6.2 6.2 16.2 6.2 22.4 0s6.1-16.1-.1-22.3z"/></g><path fill="#EFA950" d="M1163 414c-30.8.4-55.7 25.5-55.7 56.5-31.2 0-56.5 25.3-56.5 56.5h112.9c31.2 0 56.5-25.3 56.5-56.5 31.2 0 56.4-25.3 56.4-56.5s25.3-56.5 56.5-56.5V243.8c-94 0-170.1 76.2-170.1 170.2z"/><g><path fill="#EFDB9F" d="M1260.9 494.3c1.1 8.2 5 15.3 10.7 20.4 4.1-6.4 6.1-14.3 5-22.5s-5-15.3-10.7-20.4c-4.1 6.5-6.1 14.4-5 22.5z"/><path fill="#B39F78" d="M1249.6 507.9c6.5 5 14.3 7.2 22 6.8-1.6-7.5-5.8-14.4-12.3-19.4s-14.3-7.2-22-6.8c1.6 7.4 5.8 14.3 12.3 19.4z"/><path fill="#EFDB9F" d="M156.3 726.8c4.6 6.9 11.2 11.5 18.6 13.6.9-7.6-.8-15.5-5.4-22.4s-11.2-11.5-18.6-13.6c-.9 7.7.8 15.6 5.4 22.4z"/><path fill="#B39F78" d="M152.1 744c8.1 1.6 16.1.2 22.7-3.6-4.7-6-11.6-10.4-19.6-12-8.1-1.6-16.1-.2-22.7 3.6 4.7 5.9 11.5 10.3 19.6 12z"/><path fill="#EFDB9F" d="M398 689.1c-6.9-4.6-11.5-11.2-13.6-18.6 7.6-.9 15.5.8 22.4 5.4 6.9 4.6 11.5 11.2 13.6 18.6-7.7.9-15.6-.8-22.4-5.4zM824.1 692.2c-6.9-4.6-11.5-11.2-13.6-18.6 7.6-.9 15.5.8 22.4 5.4s11.5 11.2 13.6 18.6c-7.6.9-15.5-.8-22.4-5.4zM101.8 675c1.6 8.1.2 16.1-3.6 22.7-6-4.7-10.4-11.6-12-19.6s-.2-16.1 3.6-22.7c6 4.7 10.4 11.6 12 19.6z"/><path fill="#B39F78" d="M34.5 638.3c-8.1 1.6-16.1.2-22.7-3.6 4.7-6 11.6-10.4 19.6-12 8.1-1.6 16.1-.2 22.7 3.6-4.7 6-11.5 10.4-19.6 12z"/></g><path fill="#FF644B" d="M715.6 817.4c-5.6-14.2-19.4-24.2-35.6-24.2-1.1 0-2.2 0-3.3.1-1.1-22.1-19.4-39.8-41.8-39.8h-.9c-2.3-40.7-36-73-77.3-73-34.2 0-63.3 22.2-73.5 53.1-8.9-5.6-19.4-8.8-30.7-8.8-30.9 0-56.2 24.3-57.7 54.8-1.5-.1-3-.2-4.6-.2-24 0-44.3 16-50.7 38h376.1z"/></svg>