<svg id="pot" xmlns="http://www.w3.org/2000/svg" viewBox="0 0 715 825"><path id="yellow-bush_1_" fill="#EFA950" d="M665.1 663.4c-24.5 0-44.4-19.9-44.4-44.4s-19.9-44.4-44.4-44.4-44.4-19.9-44.4-44.4-19.9-44.4-44.4-44.4-44.3-19.7-44.3-44.2-19.9-44.4-44.4-44.4-44.4-19.9-44.4-44.4-19.9-44.4-44.4-44.4-44.4-19.9-44.4-44.4-19.9-44.4-44.4-44.4-44.4-19.9-44.4-44.4-19.9-44.4-44.4-44.4S88 110.9 88 86.4 68.1 42 43.6 42c-24.1.3-44-19.6-44-44.1v399.4l310.5 310.5 399.4.1c-.1-24.7-19.9-44.5-44.4-44.5z"/><g id="tea-pot"><path fill="#EFDB9F" d="M210.5 687.7c-10.9 9.5-27.2 9.5-38.1 0-5.4 4.8-12.2 7.1-19.1 7.1s-13.6-2.4-19.1-7.1c-10.9 9.5-27.2 9.5-38.1 0-10.5 9.2-26.1 9.5-37 .9-2.9 5.8-4.4 12.2-4.4 18.8v.4h197.1v-.4c0-6.6-1.5-13-4.4-18.8-10.7 8.6-26.3 8.3-36.9-.9z"/><path fill="#B39F78" d="M94.8 683.6c.8-.8 2-.8 2.8 0 9.7 9.7 25.5 9.7 35.3 0 .8-.8 2-.8 2.8 0 9.7 9.7 25.5 9.7 35.3 0 .8-.8 2-.8 2.8 0 9.7 9.7 25.5 9.7 35.3 0 .8-.8 2-.8 2.8 0 9.2 9.2 23.8 9.7 33.6 1.5-.6-.9-1.2-1.9-1.9-2.8l-9.1-12.2H72.2l-9.1 12.2c-.7.9-1.3 1.8-1.9 2.8 9.8 8.2 24.4 7.6 33.6-1.5z"/><path fill="#46466E" d="M212 683.6c-.8-.8-2-.8-2.8 0-9.7 9.7-25.5 9.7-35.3 0-.8-.8-2-.8-2.8 0-9.7 9.7-25.5 9.7-35.3 0-.8-.8-2-.8-2.8 0-9.7 9.7-25.5 9.7-35.3 0-.8-.8-2-.8-2.8 0-9.2 9.2-23.8 9.7-33.6 1.5-.7 1.1-1.4 2.3-2 3.5 10.9 8.6 26.5 8.3 37-.9 10.9 9.5 27.2 9.5 38.1 0 5.4 4.8 12.2 7.1 19.1 7.1s13.6-2.4 19.1-7.1c10.9 9.5 27.2 9.5 38.1 0 10.5 9.2 26.1 9.5 37 .9-.6-1.2-1.3-2.4-2-3.5-9.9 8.2-24.6 7.6-33.7-1.5z"/><path fill="#EFDB9F" d="M323.7 535.8s-9.6-35.2-24.5-89.7c-4.6-1.1-8.8-3.2-12.4-6.4-10.9 9.5-27.2 9.5-38.1 0-10.9 9.5-27.2 9.5-38.1 0-5.3 4.6-12 7.2-19.1 7.2s-13.8-2.5-19.1-7.2c-5.3 4.6-12 7.2-19.1 7.2s-13.8-2.5-19.1-7.2c-5.3 4.6-12 7.2-19.1 7.2s-13.8-2.5-19.1-7.2c-10.9 9.5-27.2 9.5-38.1 0-10.9 9.5-27.2 9.5-38.1 0-3.6 3.1-7.8 5.3-12.4 6.4l-24.5 89.7c-19.3 71.4 34.5 141.8 108.5 141.8h124c74 0 127.8-70.4 108.3-141.8zM21.4 435.6c9.7 9.7 25.5 9.7 35.3 0 .8-.8 2-.8 2.8 0 9.7 9.7 25.5 9.7 35.3 0 .8-.8 2.1-.8 2.8 0 4.7 4.7 11 7.3 17.6 7.3s12.9-2.6 17.6-7.3c.8-.8 2.1-.8 2.8 0 4.7 4.7 11 7.3 17.6 7.3s12.9-2.6 17.6-7.3c.8-.8 2.1-.8 2.8 0 4.7 4.7 11 7.3 17.6 7.3s12.9-2.6 17.6-7.3c.8-.8 2.1-.8 2.8 0 9.7 9.7 25.5 9.7 35.3 0 .8-.8 2-.8 2.8 0 9.7 9.7 25.5 9.7 35.3 0 .8-.8 2-.8 2.8 0 2.8 2.8 6.1 4.8 9.8 6-.7-2.6-1.4-5.2-2.2-7.9-.3-1.1-.6-2.3-1-3.4-2.6-.9-5.3-1.3-8.1-1.3-6.7 0-12.9 2.6-17.6 7.3-.4.4-.9.6-1.4.6s-1-.2-1.4-.6c-4.7-4.7-11-7.3-17.6-7.3s-12.9 2.6-17.6 7.3c-.8.8-2.1.8-2.8 0-9.7-9.7-25.5-9.7-35.3 0-.8.8-2 .8-2.8 0-9.7-9.7-25.5-9.7-35.3 0-.8.8-2 .8-2.8 0-9.7-9.7-25.5-9.7-35.3 0-.8.8-2 .8-2.8 0-9.7-9.7-25.5-9.7-35.3 0-.8.8-2.1.8-2.8 0-4.7-4.7-11-7.3-17.6-7.3s-12.9 2.6-17.6 7.3c-.8.8-2.1.8-2.8 0-4.7-4.7-11-7.3-17.6-7.3-2.8 0-5.5.5-8.1 1.3-.3 1.1-.7 2.3-1 3.4l-2.2 7.9c3.6-1.2 7-3.2 9.8-6 1-.8 2.3-.8 3 0z"/><path fill="#EFDB9F" d="M39.1 432.2c5.3-4.6 12-7.2 19.1-7.2s13.8 2.5 19.1 7.2c10.9-9.5 27.2-9.5 38.1 0 5.3-4.6 12-7.2 19.1-7.2 7.1 0 13.8 2.5 19.1 7.2 5.3-4.6 12-7.2 19.1-7.2s13.8 2.5 19.1 7.2c10.9-9.5 27.2-9.5 38.1 0 5.3-4.6 12-7.2 19.1-7.2s13.8 2.5 19.1 7.2c5.3-4.6 12-7.2 19.1-7.2 2.3 0 4.5.3 6.6.8-.6-1.8-1.2-3.6-1.9-5.4-.8-2.3-3-3.8-5.4-3.8H20.7c-2.4 0-4.6 1.5-5.4 3.8-.6 1.8-1.3 3.6-1.9 5.4 2.1-.5 4.4-.8 6.6-.8 7.1 0 13.8 2.5 19.1 7.2z"/><path fill="#46466E" d="M37.7 436.3c.8.8 2.1.8 2.8 0 4.7-4.7 11-7.3 17.6-7.3s12.9 2.6 17.6 7.3c.8.8 2.1.8 2.8 0 9.7-9.7 25.5-9.7 35.3 0 .8.8 2 .8 2.8 0 9.7-9.7 25.5-9.7 35.3 0 .8.8 2 .8 2.8 0 9.7-9.7 25.5-9.7 35.3 0 .8.8 2 .8 2.8 0 9.7-9.7 25.5-9.7 35.3 0 .8.8 2.1.8 2.8 0 4.7-4.7 11-7.3 17.6-7.3s12.9 2.6 17.6 7.3c.4.4.9.6 1.4.6s1-.2 1.4-.6c4.7-4.7 11-7.3 17.6-7.3 2.8 0 5.5.5 8.1 1.3-.5-1.5-.9-3.1-1.4-4.6-2.1-.5-4.4-.8-6.6-.8-7.1 0-13.8 2.5-19.1 7.2-5.3-4.6-12-7.2-19.1-7.2s-13.8 2.5-19.1 7.2c-10.9-9.5-27.2-9.5-38.1 0-5.3-4.6-12-7.2-19.1-7.2s-13.8 2.5-19.1 7.2c-5.3-4.6-12-7.2-19.1-7.2s-13.8 2.5-19.1 7.2c-10.9-9.5-27.2-9.5-38.1 0-5.3-4.6-12-7.2-19.1-7.2s-13.8 2.5-19.1 7.2c-5.3-4.6-12-7.2-19.1-7.2-2.3 0-4.5.3-6.6.8-.5 1.5-1 3-1.4 4.6 2.6-.9 5.3-1.3 8.1-1.3 7.2 0 13.5 2.6 18.2 7.3z"/><path fill="#EFA950" d="M58.1 439.7c10.9 9.5 27.2 9.5 38.1 0 5.3 4.6 12 7.2 19.1 7.2s13.8-2.5 19.1-7.2c5.3 4.6 12 7.2 19.1 7.2s13.8-2.5 19.1-7.2c5.3 4.6 12 7.2 19.1 7.2s13.8-2.5 19.1-7.2c10.9 9.5 27.2 9.5 38.1 0 10.9 9.5 27.2 9.5 38.1 0 3.6 3.1 7.8 5.3 12.4 6.4l-1.2-4.5c-3.6-1.2-7-3.2-9.8-6-.8-.8-2-.8-2.8 0-9.7 9.7-25.5 9.7-35.3 0-.8-.8-2-.8-2.8 0-9.7 9.7-25.5 9.7-35.3 0-.8-.8-2.1-.8-2.8 0-4.7 4.7-11 7.3-17.6 7.3s-12.9-2.6-17.6-7.3c-.8-.8-2.1-.8-2.8 0-4.7 4.7-11 7.3-17.6 7.3s-12.9-2.6-17.6-7.3c-.8-.8-2.1-.8-2.8 0-4.7 4.7-11 7.3-17.6 7.3s-12.9-2.6-17.6-7.3c-.8-.8-2.1-.8-2.8 0-9.7 9.7-25.5 9.7-35.3 0-.8-.8-2-.8-2.8 0-9.7 9.7-25.5 9.7-35.3 0-.8-.8-2-.8-2.8 0-2.8 2.8-6.1 4.8-9.8 6l-1.2 4.5c4.6-1.1 8.8-3.2 12.4-6.4 10.3 9.6 26.7 9.6 37.5 0z"/><g><path fill="#EFDB9F" d="M286.6 408.5c-51.6-111.3-214.8-111.3-266.4 0h266.4z"/><path fill="#B39F78" d="M25.5 416.6h255.9c4.2 0 7-4.3 5.2-8.1H20.2c-1.8 3.8 1.1 8.1 5.3 8.1z"/></g><g><path fill="#EFDB9F" d="M386.4 449v-4.5c-8.4 1-16.3 4.7-22.3 10.8l-70 70H288c-31 0-57.3 22.7-62 53.3l-2.3 15.3c-4.7 31 33.7 49.2 54.8 26l120.6-133.2H424c-20.8-.1-37.6-16.9-37.6-37.7z"/><path fill="#B39F78" d="M391.2 444.3h-.5c-1.4 0-2.8.1-4.2.2v4.5c0 1.9.1 3.8.4 5.7 16.2 2.5 29 15.3 31.5 31.5 1.8.3 3.7.4 5.7.4h4.8v-4.8c-.2-20.7-17-37.5-37.7-37.5z"/><path fill="#281E32" d="M386.8 454.7c2.5 16.2 15.3 29 31.5 31.5-2.4-16.2-15.3-29.1-31.5-31.5z"/></g><g id="tea-bag"><path fill="#281E32" d="M169.4 472.7c-1.1 0-2-.9-2-2v-54.1c0-1.1.9-2 2-2s2 .9 2 2v54.1c0 1.1-.9 2-2 2z"/><path fill="#FF644B" d="M204.2 490.9l-29.6-21.5c-3.1-2.3-7.3-2.3-10.5 0l-29.6 21.5c-2.3 1.7-3.7 4.3-3.7 7.2v55.1c0 4.9 4 8.9 8.9 8.9h59.2c4.9 0 8.9-4 8.9-8.9v-55.1c.1-2.8-1.3-5.5-3.6-7.2zm-34.8-9.3c-2.2 0-4-1.8-4-4s1.8-4 4-4 4 1.8 4 4-1.8 4-4 4z"/><path fill="#281E32" d="M172.2 476.8c-.5 0-1-.2-1.4-.6-.8-.8-.8-2 0-2.8l4.1-4.1c.8-.8 2-.8 2.8 0s.8 2 0 2.8l-4.1 4.1c-.4.4-.9.6-1.4.6zM166.6 476.8c-.5 0-1-.2-1.4-.6l-4.1-4.1c-.8-.8-.8-2 0-2.8s2-.8 2.8 0l4.1 4.1c.8.8.8 2 0 2.8-.4.4-.9.6-1.4.6z"/></g><path id="shadow" fill="#B39F78" d="M327.7 565.5l-52.9 57.9s15.8-14.9 42.4-10.7c6.8-14.5 10.5-30.6 10.5-47.2z"/><path id="drop" fill="#46466E" d="M428.9 530.6h-.4c-10 0-16.5-10.5-12-19.5l12.3-24.5 12.3 24.5c4.4 9-2.1 19.5-12.2 19.5z"/><circle fill="#B39F78" cx="161.2" cy="298.1" r="27"/></g><path id="ink-bush_1_" fill="#281E32" d="M128 680.9c-2.5 0-4.9.1-7.3.3V680c0-25.2-20.4-45.7-45.7-45.7-2.4 0-4.7.2-7 .5-8.7-35.9-41.1-62.5-79.7-62.5-45.3 0-82 36.7-82 82v82h306.4c-14.2-32.7-46.8-55.4-84.7-55.4z"/><path id="purple-bush" fill="#46466E" d="M58.2 717.5c-2.5 0-4.9.1-7.3.3v-1.2c0-25.2-20.4-45.7-45.7-45.7-2.4 0-4.7.2-7 .5-8.7-35.9-41.1-62.5-79.7-62.5-45.3 0-82 36.7-82 82v82h306.4c-14.2-32.7-46.8-55.4-84.7-55.4z"/><g id="cherry_3_"><circle fill="#FF644B" cx="326.2" cy="706.9" r="23"/><path fill="#EFDB9F" d="M303.4 687.5c8.1 1.6 16.1.2 22.7-3.6-4.7-6-11.6-10.4-19.6-12-8.1-1.6-16.1-.2-22.7 3.6 4.7 6 11.6 10.4 19.6 12z"/><path fill="#B39F78" d="M312.6 702.5c6.9-4.6 11.5-11.2 13.6-18.6-7.6-.9-15.5.8-22.4 5.4-6.9 4.6-11.5 11.2-13.6 18.6 7.6.9 15.6-.8 22.4-5.4z"/></g><g id="cherry"><circle fill="#FF644B" cx="368.8" cy="621.5" r="23"/><path fill="#B39F78" d="M375.2 608.8c-8.1 1.6-16.1.2-22.7-3.6 4.7-6 11.6-10.4 19.6-12 8.1-1.6 16.1-.2 22.7 3.6-4.7 5.9-11.5 10.3-19.6 12z"/></g><g id="leafs"><path fill="#EFDB9F" d="M156.5 732c4.6 6.9 11.2 11.5 18.6 13.6.9-7.6-.8-15.5-5.4-22.4s-11.2-11.5-18.6-13.6c-.9 7.7.8 15.6 5.4 22.4z"/><path fill="#B39F78" d="M152.3 749.2c8.1 1.6 16.1.2 22.7-3.6-4.7-6-11.6-10.4-19.6-12-8.1-1.6-16.1-.2-22.7 3.6 4.7 5.9 11.5 10.3 19.6 12z"/><path fill="#EFDB9F" d="M398.2 694.3c-6.9-4.6-11.5-11.2-13.6-18.6 7.6-.9 15.5.8 22.4 5.4 6.9 4.6 11.5 11.2 13.6 18.6-7.7.9-15.6-.8-22.4-5.4zM102 680.2c1.6 8.1.2 16.1-3.6 22.7-6-4.7-10.4-11.6-12-19.6s-.2-16.1 3.6-22.7c6 4.7 10.4 11.6 12 19.6z"/><path fill="#B39F78" d="M34.7 643.5c-8.1 1.6-16.1.2-22.7-3.6 4.7-6 11.6-10.4 19.6-12 8.1-1.6 16.1-.2 22.7 3.6-4.7 6-11.5 10.4-19.6 12z"/><path fill="#EFDB9F" d="M690.2 704.2c-6.9-4.6-11.5-11.2-13.6-18.6 7.6-.9 15.5.8 22.4 5.4s11.5 11.2 13.6 18.6c-7.6.9-15.5-.8-22.4-5.4z"/></g><path id="red-clouds" fill="#FF644B" d="M715.8 822.6c-5.6-14.2-19.4-24.2-35.6-24.2-1.1 0-2.2 0-3.3.1-1.1-22.1-19.4-39.8-41.8-39.8h-.9c-2.3-40.7-36-73-77.3-73-34.2 0-63.3 22.2-73.5 53.1-8.9-5.6-19.4-8.8-30.7-8.8-30.9 0-56.2 24.3-57.7 54.8-1.5-.1-3-.2-4.6-.2-24 0-44.3 16-50.7 38h376.1z"/></svg>