<svg xmlns="http://www.w3.org/2000/svg" viewBox="0 0 715 825"><path fill="#FF644B" d="M49 666.8c24.5 0 44.4-19.9 44.4-44.4s19.9-44.4 44.4-44.4 44.4-19.9 44.4-44.4 19.9-44.4 44.4-44.4 44.4-19.9 44.4-44.4 19.9-44.4 44.4-44.4 44.4-19.9 44.4-44.4 19.9-44.4 44.4-44.4 44.4-19.9 44.4-44.4 19.9-44.4 44.4-44.4 44.4-19.9 44.4-44.4 19.9-44.4 44.4-44.4 44.4-19.9 44.4-44.4 19.9-44.4 44.4-44.4S715 25.3 715 .8v327.1l-450.6 380-259.7-.2c0-24.5 19.8-40.9 44.3-40.9z"/><path fill="#46466E" d="M711.3 540.6c-59.3 0-107.3 48-107.3 107.3 0 1 .1 1.9.1 2.9-5.7-.4-11.4-.7-17.2-.7-16.9 0-33.4 1.9-49.2 5.6-14.4-23.7-40.4-39.5-70.1-39.5-38.6 0-70.9 26.7-79.7 62.5-2.3-.4-4.6-.5-7-.5-25.2 0-45.7 20.4-45.7 45.7v1.2c-2.4-.2-4.9-.1-7.3-.1-37.9 0-70.5 22.6-84.7 55.6h471.2V540.7c-1 0-2-.1-3.1-.1z"/><path fill="#EFDB9F" d="M411.9 563.7c.8-.8 2-.8 2.8 0 9.7 9.7 25.5 9.7 35.3 0 .8-.8 2.1-.8 2.8 0 4.7 4.7 11 7.3 17.6 7.3 6.7 0 12.9-2.6 17.6-7.3.8-.8 2.1-.8 2.8 0 4.7 4.7 11 7.3 17.6 7.3 6.7 0 12.9-2.6 17.6-7.3.8-.8 2.1-.8 2.8 0 4.7 4.7 11 7.3 17.6 7.3 6.7 0 12.9-2.6 17.6-7.3.8-.8 2.1-.8 2.8 0 9.7 9.7 25.5 9.7 35.3 0 .8-.8 2-.8 2.8 0 8.5 8.5 21.7 9.6 31.3 3.2v-9.2c-4.6 1-8.9 3.3-12.3 6.7-.4.4-.9.6-1.4.6s-1-.2-1.4-.6c-4.7-4.7-11-7.3-17.6-7.3s-12.9 2.6-17.6 7.3c-.8.8-2.1.8-2.8 0-9.7-9.7-25.5-9.7-35.3 0-.8.8-2 .8-2.8 0-9.7-9.7-25.5-9.7-35.3 0-.8.8-2 .8-2.8 0-9.7-9.7-25.5-9.7-35.3 0-.8.8-2 .8-2.8 0-9.7-9.7-25.5-9.7-35.3 0-.8.8-2.1.8-2.8 0-4.7-4.7-11-7.3-17.6-7.3s-12.9 2.6-17.6 7.3c-.8.8-2.1.8-2.8 0-3.4-3.4-7.7-5.7-12.3-6.7v9.2c9.9 6.4 23 5.3 31.5-3.2z"/><path fill="#EFDB9F" d="M603.9 567.9c-10.9 9.5-27.2 9.5-38.1 0-5.3 4.6-12 7.2-19.1 7.2s-13.8-2.5-19.1-7.2c-5.3 4.6-12 7.2-19.1 7.2s-13.8-2.5-19.1-7.2c-5.3 4.6-12 7.2-19.1 7.2s-13.8-2.5-19.1-7.2c-10.9 9.5-27.2 9.5-38.1 0-9.2 8.1-22.3 9.3-32.7 3.7v24c0 66.1 53.5 119.6 119.6 119.6h16.8c66.1 0 119.6-53.5 119.6-119.6v-24.1c-10.2 5.6-23.3 4.4-32.5-3.6zm-190.6-14.8c7.1 0 13.8 2.5 19.1 7.2 10.9-9.5 27.2-9.5 38.1 0 5.3-4.6 12-7.2 19.1-7.2s13.8 2.5 19.1 7.2c5.3-4.6 12-7.2 19.1-7.2s13.8 2.5 19.1 7.2c10.9-9.5 27.2-9.5 38.1 0 5.3-4.6 12-7.2 19.1-7.2s13.8 2.5 19.1 7.2c3.9-3.4 8.6-5.7 13.7-6.7v-12.5c0-3.1-2.5-5.7-5.7-5.7H386.5c-3.1 0-5.7 2.5-5.7 5.7v12.5c5.1.9 9.8 3.2 13.7 6.7 5.1-4.7 11.8-7.2 18.8-7.2z"/><path fill="#46466E" d="M395.7 564.4c4.7-4.7 11-7.3 17.6-7.3s12.9 2.6 17.6 7.3c.8.8 2.1.8 2.8 0 9.7-9.7 25.5-9.7 35.3 0 .8.8 2 .8 2.8 0 9.7-9.7 25.5-9.7 35.3 0 .8.8 2 .8 2.8 0 9.7-9.7 25.5-9.7 35.3 0 .8.8 2 .8 2.8 0 9.7-9.7 25.5-9.7 35.3 0 .8.8 2.1.8 2.8 0 4.7-4.7 11-7.3 17.6-7.3s12.9 2.6 17.6 7.3c.4.4.9.6 1.4.6s1-.2 1.4-.6c3.4-3.4 7.7-5.7 12.3-6.7v-4.1c-5.1.9-9.8 3.2-13.7 6.7-5.3-4.6-12-7.2-19.1-7.2s-13.8 2.5-19.1 7.2c-10.9-9.5-27.2-9.5-38.1 0-5.3-4.6-12-7.2-19.1-7.2s-13.8 2.5-19.1 7.2c-5.3-4.6-12-7.2-19.1-7.2s-13.8 2.5-19.1 7.2c-10.9-9.5-27.2-9.5-38.1 0-5.3-4.6-12-7.2-19.1-7.2s-13.8 2.5-19.1 7.2c-3.9-3.4-8.6-5.7-13.7-6.7v4.1c4.6 1 8.9 3.3 12.3 6.7 1.3.8 2.6.8 3.4 0z"/><path fill="#EFA950" d="M605.3 563.7c-.8-.8-2-.8-2.8 0-9.7 9.7-25.5 9.7-35.3 0-.8-.8-2.1-.8-2.8 0-4.7 4.7-11 7.3-17.6 7.3-6.7 0-12.9-2.6-17.6-7.3-.8-.8-2.1-.8-2.8 0-4.7 4.7-11 7.3-17.6 7.3-6.7 0-12.9-2.6-17.6-7.3-.8-.8-2.1-.8-2.8 0-4.7 4.7-11 7.3-17.6 7.3-6.7 0-12.9-2.6-17.6-7.3-.8-.8-2.1-.8-2.8 0-9.7 9.7-25.5 9.7-35.3 0-.8-.8-2-.8-2.8 0-8.5 8.5-21.7 9.6-31.3 3.2v4.6c10.4 5.6 23.5 4.4 32.7-3.7 10.9 9.5 27.2 9.5 38.1 0 5.3 4.6 12 7.2 19.1 7.2s13.8-2.5 19.1-7.2c5.3 4.6 12 7.2 19.1 7.2s13.8-2.5 19.1-7.2c5.3 4.6 12 7.2 19.1 7.2s13.8-2.5 19.1-7.2c10.9 9.5 27.2 9.5 38.1 0 9.2 8.1 22.3 9.3 32.7 3.7v-4.6c-10.3 6.4-23.4 5.3-31.9-3.2z"/><path fill="#B39F78" d="M382.8 640l-32.4-32.5c-4-4-6.2-9.4-6.2-15.1 0-11.7 9.6-21.3 21.3-21.3 5.9 0 11.3 2.4 15.2 6.4V554c-4.7-1.9-9.8-2.9-15.2-2.9-22.8 0-41.3 18.5-41.3 41.3 0 11 4.3 21.4 12.1 29.2l21.7 21.7c-3.4 6-2.6 13.9 2.5 19 6.2 6.2 16.2 6.2 22.4 0s6.1-16.1-.1-22.3z"/><path fill="#EFA950" d="M544.4 422.6c-30.8.4-55.7 25.5-55.7 56.5-31.2 0-56.5 25.3-56.5 56.5h112.9c31.2 0 56.5-25.3 56.5-56.5 31.2 0 56.4-25.3 56.4-56.5s25.3-56.5 56.5-56.5V252.4c-94 0-170.1 76.2-170.1 170.2z"/><g><path fill="#EFDB9F" d="M642.3 502.9c1.1 8.2 5 15.3 10.7 20.4 4.1-6.4 6.1-14.3 5-22.5s-5-15.3-10.7-20.4c-4.1 6.5-6.1 14.4-5 22.5z"/><path fill="#B39F78" d="M631 516.5c6.5 5 14.3 7.2 22 6.8-1.6-7.5-5.8-14.4-12.3-19.4s-14.3-7.2-22-6.8c1.6 7.4 5.8 14.3 12.3 19.4z"/></g></svg>