<svg xmlns="http://www.w3.org/2000/svg" viewBox="0 -677.2 1200 1233"><style>.st0{fill:#281E32;} .st1{fill:#46466E;} .st2{fill:#FF644B;} .st3{fill:#EFA950;} .st4{fill:#B39F78;} .st5{fill:#EFDB9F;}</style><g id="far"><path class="st0" d="M1203.1-644.9l-.6.6v44.6l-12 12c-9.6 9.6-22.6 15-36.2 15h-59.8c-13.6 0-26.6 5.4-36.2 15l-15 15c6.2-5.2 15.5-4.9 21.4.9l.2.2c6.2 6.2 6.2 16.2 0 22.4l-6.3 6.3c-9.6 9.6-15 22.6-15 36.2v141.4c0 14.1-11.5 25.6-25.6 25.6h-57c-27.6 0-50 21.8-51.1 49.1 1.3-11.5 11-20.7 22.8-20.5 12.3.2 22.2 10.3 22.2 22.7v30.7c0 13.6-5.4 26.6-15 36.2L814.7-66.3c-9.6 9.6-15 22.6-15 36.2V78.2c0 14.1-11.5 25.6-25.6 25.6h-53.3c-27.4 0-49.8 21.5-51.1 48.6.8-11.5 10.5-20.7 22.2-20.7h.5c12.3 0 22.4 10 22.4 22.4v9.8c0 14.1-11.5 25.6-25.6 25.6h-19.6V155v34.5H498.9c-13.6 0-26.6-5.4-36.2-15l-39-39c-9.6-9.6-15-22.6-15.1-36.2V2.1l-55.4-55.4c-9.9-10-2.9-27 11.2-27h.5c3.4 0 6.7 1.1 9.4 3.1-9.2-7.8-20.9-12.1-33-12.1H310v-66.3c0-28.3-22.9-51.2-51.2-51.2h-42.5c-14.1 0-25.6-11.5-25.6-25.6v-32.9l-48.2-48.2c-8.4-8.4-13.1-19.8-13.2-31.6v-125.4L103-496.8c-9.9-10-2.9-27 11.2-27h.5c3.1 0 6.2.9 8.7 2.6-9.1-7.5-20.5-11.6-32.4-11.6H43.7l-46-46.1v165.5l49.1 49.1c9.6 9.6 15 22.6 15.1 36.3v37.3H42.3c-14.1 0-25.6-11.5-25.6-25.6v-32.9l-19-19v697h1205.4v-973.7z"/><path class="st1" d="M453.9 23.3v97.2l54 54c9.6 9.6 22.6 15 36.2 15-13.6 0-26.6-5.4-36.2-15l-54-54V23.3c0-13.6-5.4-26.6-15-36.2l-61.4-61.4 61.4 61.4c9.6 9.6 15 22.6 15 36.2zm-77.8-99c-.6-.6-1.2-1.1-1.8-1.5 1.1.9 2.2 1.9 3.2 2.9l-1.4-1.4z"/><path class="st1" d="M364.4-80.3c-14.1 0-21.1 17-11.2 27l55.4 55.4v97.2c.1 13.6 5.5 26.6 15.1 36.2l39 39c9.6 9.6 22.6 15 36.2 15h45.2c-13.6 0-26.6-5.4-36.2-15l-54-54V23.3c0-13.6-5.4-26.6-15-36.2l-61.4-61.4c-1-1-2.1-2-3.2-2.9-2.7-2-6-3.1-9.4-3.1h-.5zM669.6 154v1c0-.9 0-1.7.1-2.6-.1.5-.1 1.1-.1 1.6z"/><path class="st1" d="M689.2 189.5c14.1 0 25.6-11.5 25.6-25.6v-9.8c0-12.4-10.1-22.4-22.4-22.4h-.5c-11.8 0-21.4 9.2-22.2 20.7 0 .9-.1 1.7-.1 2.6v34.5h19.6zm220.6-448c0-.7 0-1.4.1-2.1-.1.9-.2 1.7-.2 2.6v51.4L769.5-66.4l140.3-140.2v-51.9z"/><path class="st1" d="M799.7 78.2V-30.1c0-13.6 5.4-26.6 15-36.2l125.2-125.2c9.6-9.6 15-22.6 15-36.2v-30.7c0-12.4-9.9-22.5-22.2-22.7-11.8-.2-21.5 9-22.8 20.5 0 .7-.1 1.4-.1 2.1v51.9L769.5-66.4c-9.6 9.6-15 22.6-15 36.2v134h19.6c14.1 0 25.6-11.5 25.6-25.6zm-783-394.5c0 14.1 11.5 25.6 25.6 25.6h19.6V-328c-.1-13.7-5.5-26.7-15.1-36.3l-49.1-49.1v45.2l19 19v32.9zm981.8-160.4c0-13.6 5.4-26.6 15-36.2l29.8-29.8c-.4.3-.7.6-1 .9l-28.9 28.9c-9.6 9.6-15 22.6-15 36.2v167h.1v-167z"/><path class="st1" d="M998.5-476.7v167h19.5c14.1 0 25.6-11.5 25.6-25.6v-141.4c0-13.6 5.4-26.6 15-36.2l6.3-6.3c6.2-6.2 6.2-16.2 0-22.4l-.2-.2c-5.9-5.9-15.1-6.2-21.4-.9l-29.8 29.8c-9.6 9.6-15 22.6-15 36.2zm204-167.6v-.6l-72.2 72.2h.6z"/><path class="st1" d="M1154.3-572.7c13.6 0 26.6-5.4 36.2-15l12-12v-44.6l-71.6 71.6h23.4zm-994.8 87.2c9.6 9.6 15 22.6 15 36.2v122.7l46.3 46.3c9.6 9.6 15 22.6 15 36.2v37.3h.1v-37.3c0-13.6-5.4-26.6-15-36.2l-46.3-46.3v-122.7c0-13.6-5.4-26.6-15-36.2l-33.7-33.7c-.8-.8-1.6-1.4-2.5-2 1.3 1.1 2.6 2.2 3.8 3.4l32.3 32.3z"/><path class="st1" d="M114.2-523.8c-14.1 0-21.1 17-11.2 27l26.3 26.3v125.4c.1 11.8 4.8 23.2 13.2 31.6l48.2 48.2v32.9c0 14.1 11.5 25.6 25.6 25.6h19.6-.1v-37.3c0-13.6-5.4-26.6-15-36.2l-46.3-46.3v-122.7c0-13.6-5.4-26.6-15-36.2l-32.3-32.3c-1.2-1.2-2.5-2.3-3.8-3.4-2.6-1.7-5.6-2.6-8.7-2.6h-.5z"/><g id="scenari"><path id="leaf_1_" class="st2" d="M17.9-512.2c-.4-.2-.7-.4-1-.7l-.1-.1c-1.5-1.6-1.5-4.1.1-5.6 1.2-1.2 2.9-1.5 4.3-.9l40.6 11.8c7.8-4.6 15.1-10.3 21.9-17 2.9-2.9 5.5-5.8 8-8.9L52.9-547c-.6-.2-1.1-.5-1.5-.9l-.1-.1c-1.5-1.6-1.5-4.1 0-5.6 1-1 2.5-1.4 3.8-1.1l46.4 6.6c5.3-9.2 9.1-18.9 11.6-29L87.8-582c-.8-.2-1.5-.6-2.1-1.1-1.6-1.6-1.6-4.1 0-5.7.9-.9 2.1-1.3 3.3-1.1h26.5c1.8-14.3.8-29-2.9-43-14-3.7-28.7-4.7-43-2.9v26.5c.1 1.2-.3 2.4-1.1 3.3-1.6 1.6-4.1 1.6-5.7 0-.5-.5-.9-1.3-1.1-2.1l-4.9-25.3c-10 2.5-19.8 6.3-29 11.6l6.6 46.4c.3 1.3 0 2.8-1.1 3.8-1.6 1.6-4.1 1.6-5.6 0l-.1-.1c-.4-.4-.7-.9-.9-1.5l-13.4-38.9c-3.1 2.5-6.1 5.2-8.9 8-6.8 6.8-12.4 14.1-17.1 21.9l11.8 40.6c.6 1.4.3 3.1-.9 4.3-1.5 1.5-4 1.6-5.6.1 0 0-.1 0-.1-.1-.3-.3-.5-.6-.7-1L-21.4-564c-8.2 21.9-9.2 45.8-3.3 68.2 22.4 6 46.3 4.9 68.2-3.3l-25.6-13.1z"/><path id="sun" class="st3" d="M648.7 189.6c0-26.9-21.8-48.7-48.7-48.7s-48.7 21.8-48.7 48.7h97.4z"/></g></g><g id="middle"><g id="left-montains"><g id="leaf_group"><path id="XMLID_240_" class="st4" d="M349.7 81.6l32.4-65c8.6-17.2 33.2-17.2 41.7 0l32.4 65c19 38.2 11.5 84.2-18.7 114.4L403 230.5 368.5 196c-30.2-30.2-37.8-76.2-18.8-114.4z"/><path id="XMLID_239_" class="st1" d="M429 54.9l-24.2 24.2V28.6c0-1-.8-1.8-1.8-1.8s-1.8.8-1.8 1.8v50.5L377 54.9c-.7-.7-1.8-.7-2.6 0-.7.7-.7 1.8 0 2.6l26.8 26.8v46l-42.9-42.9c-.7-.7-1.8-.7-2.6 0-.7.7-.7 1.8 0 2.6l45.4 45.4v46l-51.3-51.3c-.7-.7-1.8-.7-2.6 0s-.7 1.8 0 2.6l53.9 53.9v23.6c0 1 .8 1.8 1.8 1.8.5 0 1-.2 1.3-.5s.5-.8.5-1.3v-23.6l53.9-53.9c.7-.7.7-1.8 0-2.6-.7-.7-1.8-.7-2.6 0l-51.3 51.3v-46L450.1 90c.7-.7.7-1.8 0-2.6-.7-.7-1.8-.7-2.6 0l-42.9 42.9v-46l26.8-26.8c.7-.7.7-1.8 0-2.6s-1.7-.7-2.4 0z"/><path id="XMLID_238_" class="st2" d="M466.1 96.6L535 73.5c18.3-6.1 35.6 11.3 29.5 29.5l-23.1 68.9c-13.6 40.4-51.4 67.7-94.1 67.7h-48.8v-48.8c-.1-42.7 27.2-80.6 67.6-94.2z"/><path id="XMLID_230_" class="st0" d="M541 133.8h-34.3l35.7-35.7c.7-.7.7-1.8 0-2.6-.7-.7-1.8-.7-2.6 0l-35.7 35.7V96.9c0-1-.8-1.8-1.8-1.8s-1.8.8-1.8 1.8v37.9L468 167.3v-60.5c0-1-.8-1.8-1.8-1.8s-1.8.8-1.8 1.8V171l-32.5 32.5v-72.6c0-1-.8-1.8-1.8-1.8s-1.8.8-1.8 1.8v76.2l-16.7 16.7c-.7.7-.7 1.8 0 2.6.4.4.8.5 1.3.5s.9-.2 1.3-.5l16.7-16.7h76.2c1 0 1.8-.8 1.8-1.8s-.8-1.8-1.8-1.8h-72.6l32.5-32.5h64.2c1 0 1.8-.8 1.8-1.8s-.8-1.8-1.8-1.8h-60.6l32.5-32.5H541c1 0 1.8-.8 1.8-1.8 0-1.1-.8-1.9-1.8-1.9z"/></g><g id="XMLID_150_"><path id="XMLID_221_" class="st3" d="M598.8 319.7c-22.1 0-40.1-17.9-40.1-40.1 0-22.1-17.9-40.1-40.1-40.1-22.1 0-40.1-17.9-40.1-40.1 0-22.1-17.9-40.1-40.1-40.1-22.1 0-40.1-17.9-40.1-40.1 0-22.1-17.9-40.1-40.1-40.1S318.1 61.2 318.1 39 300.2-1.1 278-1.1c-22.1 0-40.1-17.9-40.1-40.1 0-22.1-17.9-40.1-40.1-40.1S158-99 158-121.1c0-22.1-17.9-40.1-40.1-40.1-22.1 0-40.1-17.9-40.1-40.1 0-22.1-17.9-40.1-40.1-40.1-22.1 0-40.1-17.9-40.1-40.1V79.3l280.5 280.5h360.8c0-22.1-17.9-40.1-40.1-40.1z"/></g><g id="tree"><path id="XMLID_237_" class="st3" d="M382-86.2c0 39.7-32.2 71.9-71.9 71.9s-71.9-32.2-71.9-71.9c0-16.7 5.9-32.9 16.7-45.7l.3-.4c10.8-12.8 16.7-28.9 16.7-45.7v-53.2c0-21.1 17.1-38.1 38.2-38 21 .1 37.9 17.4 37.9 38.5v52.8c0 16.7 5.9 32.9 16.7 45.7l.3.4c11.1 12.7 17 28.9 17 45.6z"/><g id="XMLID_276_"><path id="XMLID_236_" class="st1" d="M310.2-214c-2.7 0-4.9 2.1-4.9 4.8l-3.2 249.3h16.3l-3.3-249.3c-.1-2.6-2.2-4.8-4.9-4.8z"/><path id="XMLID_280_" class="st1" d="M310.2-106.4v15.6l37.5-38.5c1.8-1.9 1.8-4.9 0-6.8l-.1-.1c-1.9-1.9-4.9-1.9-6.8 0l-30.6 29.8zm50.5 8.2L310.2-49v16.6l57.4-58.9c1.8-1.9 1.8-4.9 0-6.8l-.1-.1c-1.9-1.9-4.9-1.9-6.8 0z"/><path id="XMLID_277_" class="st1" d="M279.6-136.2c-1.9-1.8-4.9-1.8-6.8 0l-.1.1c-1.9 1.9-1.9 4.9 0 6.8l37.5 38.5v-15.6l-30.6-29.8zm-26.7 38c-1.9 1.9-2 5-.1 6.9l57.4 58.9V-49l-50.5-49.2c-1.9-1.9-4.9-1.9-6.8 0z"/></g></g></g><g id="right-montains"><path id="XMLID_223_" class="st2" d="M601.3 319.7c22.1 0 40.1-17.9 40.1-40.1 0-22.1 17.9-40.1 40.1-40.1s40.1-17.9 40.1-40.1c0-22.1 17.9-40.1 40.1-40.1 22.1 0 40.1-17.9 40.1-40.1 0-22.1 17.9-40.1 40.1-40.1S882 61.2 882 39s17.9-40.1 40.1-40.1c22.1 0 40.1-17.9 40.1-40.1 0-22.1 17.9-40.1 40.1-40.1 22.2 0 40.1-17.9 40.1-40.1 0-22.1 17.9-40.1 40.1-40.1 22.1 0 40.1-17.9 40.1-40.1 0-22.1 17.9-40.1 40.1-40.1 22.1 0 40.1-17.9 40.1-40.1V13.7L796.1 359.8H561.2c0-22.1 18-40.1 40.1-40.1z"/><path id="XMLID_163_" class="st3" d="M1048.8 99.1c-27.8.4-50.3 23.1-50.3 51-28.2 0-51 22.8-51 51h102c28.2 0 51-22.8 51-51 28.2 0 51-22.8 51-51s22.8-51 51-51V-54.6c-84.9 0-153.7 68.8-153.7 153.7z"/><g id="brown-tree"><path id="XMLID_153_" class="st4" d="M1020.6-597.6c16.1 6.3 24.1 24.6 17.8 40.7-6.3 16.1 1.6 34.4 17.8 40.7 16.1 6.3 24.1 24.6 17.8 40.7-6.3 16.1 1.6 34.4 17.8 40.7 16.1 6.3 24.1 24.6 17.8 40.7-6.3 16.1 1.6 34.4 17.8 40.7 16.1 6.3 24.1 24.6 17.8 40.7-6.3 16.1 1.6 34.4 17.8 40.7 16.1 6.3 24.1 24.6 17.8 40.7-6.3 16.1 1.6 34.4 17.8 40.7 16.1 6.3 24.1 24.6 17.8 40.7l79.5-202.6c-3.5-1.3-7.2-2.1-11.2-2.1-17.3-.1-31.4-14.2-31.3-31.5s-13.9-31.5-31.3-31.5-31.4-14.2-31.3-31.5-13.9-31.5-31.3-31.5c-17.3-.1-31.4-14.2-31.3-31.5s-13.9-31.5-31.3-31.5c-17.3-.1-31.4-14.2-31.3-31.5s-13.9-31.5-31.3-31.5c-17.3-.1-31.4-14.2-31.3-31.5-6.5 15.9 1.4 34.2 17.6 40.5z"/><path id="XMLID_152_" class="st1" d="M1086.1-501.7c-1.8 1.2-2.3 3.5-1.2 5.4l162.2 259.2 6-15.2-161.6-248.3c-.6-.9-1.5-1.5-2.4-1.7-1-.1-2 0-3 .6z"/></g></g><g id="charaters"><g id="rabbit"><path id="XMLID_64_" class="st5" d="M872.9-7.6h-40.6l-26.2-35.1c-9.9-13.3-30.4-.5-22.8 14.2l19.5 37.9c5.7 11.1 17.1 18 29.5 18h32.4l8.2-35z"/><path id="XMLID_63_" class="st5" d="M865.8 76.8l-33.9 27.7c-20.4 16.6-20.5 47.7-.3 64.5l20.5 17-49.6-5.9c-11.1-1.3-20.9 7.4-20.9 18.5v.2h100.9c0-30.2 24.5-54.7 54.7-54.7 15.1 0 28.8 6.1 38.7 16l76.7-76.7-.2-.2c-8.6-8.6-22.8-7.8-30.4 1.7l-36.2 45.4v-22.4c0-25.4-15.2-48.4-38.6-58.3l-61.5 10.6-19.9 16.6z"/><circle id="XMLID_62_" class="st4" cx="879.9" cy="95.8" r="34.5"/><path id="XMLID_61_" class="st0" d="M885.2-30.2L849.9 5.1c-30.3 30.3-30.3 79.4 0 109.7l5.2 5.2 9.8-9.8 9.8 9.8 47.8-47.8-24.2-105.9-13.1 3.5z"/><path id="XMLID_60_" class="st3" d="M893.4-19.3v63.1c0 21.3 9.5 41.5 26 55.1l.4.3c6.3 5.2 15.6 4.3 20.8-2l37-45.3-44.2-14.1V7c0-14.6-11.8-26.4-26.4-26.4h-13.6v.1z"/><circle id="XMLID_59_" class="st2" cx="917.1" cy="45.3" r="34.8"/><path id="XMLID_57_" class="st5" d="M933.8 58.5c-2.8 5-8.8 7.3-14.2 5.6l-.2-.1c-6.7-2.1-10.2-9.6-7.5-16.1l9-22.2H936c-4.9-4.7-11.5-7.6-18.9-7.6-15.1 0-27.3 12.2-27.3 27.3s12.2 27.3 27.3 27.3 27.3-12.2 27.3-27.3c0-1.6-.1-3.1-.4-4.6l-10.2 17.7z"/><path id="XMLID_56_" class="st1" d="M943.9 40.7l5.2-9.1c-.9-2.1-2-4.1-3.3-5.9H936c4.1 3.9 6.9 9.1 7.9 15z"/><path id="XMLID_55_" class="st3" d="M911.8 47.9c-2.7 6.5.8 13.9 7.5 16.1l.2.1c5.5 1.7 11.4-.6 14.2-5.6l10.1-17.8c-1-5.9-3.9-11.1-8-15h-15.1l-8.9 22.2z"/><path id="XMLID_54_" class="st1" d="M893.7 51.2c-.7 0-1.4-.5-1.5-1.3-.2-.8.4-1.6 1.2-1.8l20.9-3.9-10.9-14c-.5-.7-.4-1.6.3-2.1s1.6-.4 2.1.3l12.5 16c.3.4.4 1 .2 1.5s-.6.9-1.2 1l-23.4 4.3h-.2z"/><path id="XMLID_53_" class="st5" d="M940.5-25.9L904.6-9.3v22.1c3.9-1.5 8.1-2.3 12.5-2.3 1.5 0 3 .1 4.5.3l-12 29.5c-2.7 6.5.8 13.9 7.5 16.1l.2.1c5.5 1.7 11.4-.6 14.2-5.6l30.4-53.5c8-14.1-6.8-30.1-21.4-23.3z"/><path id="XMLID_52_" class="st4" d="M918.4 18.4l8.2-20.2-12.4 12.5c.9-.1 1.9-.1 2.8-.1 1.5 0 3 .1 4.5.3l-3.1 7.5z"/><path id="XMLID_51_" class="st4" d="M874.8-19.8L864.9.5l28.5-16.9z"/><path id="XMLID_50_" class="st5" d="M914.1-72.2l62.6-76.3v4.1c0 26.3-12 51.2-32.5 67.7L922-58.9l-7.9-13.3z"/><path id="XMLID_49_" class="st4" d="M914.5-76.4v-79.1l-2.1 2.5c-13.4 16.3-18.7 37.9-14.3 58.5l4.7 22.2 11.7-4.1z"/><path id="XMLID_48_" class="st5" d="M938.8-39.1l-14.9-29.8c-5.4-10.9-18.2-15.9-29.6-11.7l-32.5 12c-14 5.2-18.3 23-8.1 34l1.4 1.5c19.4 20.9 52 22.3 73.3 3.3l10.4-9.3z"/><path id="XMLID_47_" class="st4" d="M926.9-62.9l-4.9 4h6.8z"/><path id="XMLID_46_" class="st1" d="M864.9 111.7c-.4 0-.8-.1-1.1-.4-30.8-30.8-30.8-81 0-111.9.6-.6 1.6-.6 2.2 0 .6.6.6 1.6 0 2.2-29.6 29.6-29.6 77.9 0 107.5.6.6.6 1.6 0 2.2-.4.2-.8.4-1.1.4z"/><circle id="XMLID_45_" class="st3" cx="863.7" cy="17.5" r="2.7"/><circle id="XMLID_44_" class="st3" cx="856.8" cy="32.8" r="2.7"/><circle id="XMLID_43_" class="st3" cx="853.7" cy="48.1" r="2.7"/><circle id="XMLID_42_" class="st3" cx="853.7" cy="63.4" r="2.7"/><circle id="XMLID_41_" class="st3" cx="858.3" cy="78.7" r="2.7"/><circle id="XMLID_40_" class="st3" cx="866" cy="94" r="2.7"/><path id="XMLID_39_" class="st2" d="M886.5-20.7l-8.6 8.6c-3.7 3.7-10 1.1-10-4.1v-.3c0-5.2 6.3-7.8 10-4.1l8.6 8.6c3.7 3.7 10 1.1 10-4.1v-.3c.1-5.4-6.3-8-10-4.3z"/><path id="XMLID_38_" class="st5" d="M807-36.8l3.7-4.1c1.9-2.2 5-3 7.8-2l-6.1 19.1-5.4-13z"/><path id="XMLID_37_" class="st3" d="M877.9-30.9c-2.9 0-5.2-2.3-5.2-5.1v-5.1H883v5.1c0 2.8-2.3 5.1-5.1 5.1z"/><circle id="XMLID_36_" class="st0" cx="893" cy="-64.4" r="4.6"/><circle id="XMLID_35_" class="st0" cx="877.7" cy="-72.1" r="4.6"/><path id="XMLID_34_" class="st1" d="M857.3-56l-5.4-5.4c-2.3-2.3-.7-6.1 2.5-6.1h10.8c3.2 0 4.8 3.9 2.5 6.1l-5.4 5.4c-1.4 1.4-3.6 1.4-5 0z"/><path id="XMLID_33_" class="st0" d="M883-41.1v4.4l8.2 2.1c6.8 1.8 13.2-4 12.1-11l-.8-5.2-19.5 9.7z"/></g><g id="knight"><g id="XMLID_320_"><path id="XMLID_32_" class="st4" d="M155.7-144.8l39.9-19.9 25.4 51 21.5-35.3-25.2-44.5c-6.4-11.4-20.4-16.1-32.5-11l-64.3 27.4 35.2 32.3z"/><path id="XMLID_31_" class="st5" d="M221-113.7l18.7-40.3 45.4 3.2z"/><circle id="XMLID_30_" class="st1" cx="229.4" cy="-131.7" r="7.2"/><g id="XMLID_321_"><path id="XMLID_29_" class="st5" d="M218.8-193.3c-.1.3-.2.6-.5.9-5.8 5.3-13.8 7.6-21.5 6.1-8.4-1.7-15.2-7.5-18.2-15.5-.3-.8.1-1.7.9-2 .8-.3 1.7.1 2 .9 2.6 7 8.5 12 15.8 13.5 6.7 1.4 13.7-.6 18.7-5.3.6-.6 1.7-.6 2.2.1.6.3.7.8.6 1.3z"/></g></g><g id="XMLID_314_"><path id="XMLID_28_" class="st4" d="M67.6-161.3L53.4-119l-54-18.1L9.1-97l49.3 13.8c12.6 3.5 25.8-3 30.7-15.2l26.1-64.8-47.6 1.9z"/><path id="XMLID_27_" class="st5" d="M-.6-137l15.3 41.6-34.4 29.8z"/><circle id="XMLID_26_" class="st1" cx="6.3" cy="-118.4" r="7.2"/><g id="XMLID_315_"><path id="XMLID_25_" class="st5" d="M57.3-82.3c-.2-.3-.3-.6-.3-.9.3-7.9 4.4-15.2 10.9-19.5 7.1-4.7 16-5.4 23.8-1.9.8.4 1.2 1.3.8 2.1-.4.8-1.3 1.2-2.1.8-6.8-3.1-14.5-2.5-20.7 1.7-5.7 3.8-9.3 10.1-9.5 17 0 .9-.8 1.6-1.7 1.5-.5-.2-.9-.4-1.2-.8z"/></g></g><g id="XMLID_310_"><path id="XMLID_24_" class="st4" d="M172.2-256.7l22.3 1.1c15.5.7 29.2-9.9 32.2-25.1l10.9-53.9-21.2-8.6-18.9 58.9-25.3-7.2v34.8z"/><g id="XMLID_311_"><path id="XMLID_23_" class="st5" d="M228.2-283.4c.4.4.5.9.4 1.4-.2.9-1 1.4-1.9 1.2-7.3-1.5-14.8.7-20.1 6-5 5-7.2 11.8-6.2 18.8.1.9-.5 1.7-1.3 1.8-.9.1-1.7-.5-1.8-1.3-1.2-8 1.4-15.8 7.1-21.5 6-6 14.6-8.6 23-6.9.3.1.6.3.8.5z"/></g></g><g id="XMLID_306_"><path id="XMLID_22_" class="st4" d="M210-350.9l4.4 10.2-6.8 11.7 32.8 5.7-1.5-16.1 4.2-7.9c3-5.5.1-12.4-5.9-14.3l-15.6-4.8c-2.4-.7-5 .2-6.3 2.4l-4.9 7.8c-1 1.7-1.2 3.7-.4 5.3z"/><g id="XMLID_307_"><path id="XMLID_21_" class="st5" d="M240.7-330.2c.5.3.7.9.6 1.6-.2.9-1 1.4-1.8 1.3l-29.3-5.1c-.9-.2-1.4-1-1.3-1.8.2-.9 1-1.4 1.8-1.3l29.3 5.1c.3 0 .5.1.7.2z"/></g></g><path id="XMLID_20_" class="st5" d="M56.5-308.7h110c5 0 9 4 9 9v159.2c0 5-4 9-9 9h-110c-5 0-9-4-9-9v-159.2c-.1-5 4-9 9-9z"/><path id="XMLID_19_" class="st4" d="M121.8-369.5h-17.7c-6.4 0-11.9 4.5-13.2 10.8l-10.3 50 32.4 16.9 32.4-16.9-10.3-50c-1.4-6.3-6.9-10.8-13.3-10.8z"/><path id="XMLID_18_" class="st2" d="M119.3-249l-7.9 5.9-7.9-5.9c-13.6-10.2-33-.4-33 16.6v.5c0 6.5 3.1 12.7 8.3 16.6l32.6 24.3 32.6-24.3c5.2-3.9 8.3-10 8.3-16.6v-.5c0-17-19.4-26.7-33-16.6z"/><path id="XMLID_17_" class="st5" d="M134.3-348.6h-27.5c-1.8 0-3.5.7-4.8 2l-11.5 11.5 11.5 11.5c1.3 1.3 3 2 4.8 2h27.5c1.8 0 3.5-.7 4.8-2l11.5-11.5-11.5-11.5c-1.3-1.3-3-2-4.8-2z"/><circle id="XMLID_16_" class="st5" cx="90.6" cy="-335.1" r="5.8"/><circle id="XMLID_15_" class="st2" cx="90.6" cy="-335.1" r="2.6"/><path id="XMLID_295_" class="st0" d="M143.7-336.2l-9.1-9.1c-.6-.6-1.6-.6-2.2 0-.6.6-.6 1.6 0 2.2l8 8-8 8c-.6.6-.6 1.6 0 2.2.3.3.7.5 1.1.5s.8-.2 1.1-.5l9.1-9.1c.3-.3.5-.7.5-1.1s-.2-.8-.5-1.1zm-7.4 1.1c0-.4-.2-.8-.5-1.1l-9.1-9.1c-.6-.6-1.6-.6-2.2 0s-.6 1.6 0 2.2l8 8-8 8c-.6.6-.6 1.6 0 2.2.3.3.7.5 1.1.5s.8-.2 1.1-.5l9.1-9.1c.3-.3.5-.7.5-1.1zm-8 0c0-.4-.2-.8-.5-1.1l-9.1-9.1c-.6-.6-1.6-.6-2.2 0s-.6 1.6 0 2.2l8 8-8 8c-.6.6-.6 1.6 0 2.2.3.3.7.5 1.1.5s.8-.2 1.1-.5l9.1-9.1c.3-.3.5-.7.5-1.1zm-7.9 0c0-.4-.2-.8-.5-1.1l-9.1-9.1c-.6-.6-1.6-.6-2.2 0s-.6 1.6 0 2.2l8 8-8 8c-.6.6-.6 1.6 0 2.2.3.3.7.5 1.1.5s.8-.2 1.1-.5l9.1-9.1c.3-.3.5-.7.5-1.1z"/><g id="XMLID_293_"><path id="XMLID_10_" class="st1" d="M166.4-138.8h-110c-.9 0-1.6-.7-1.6-1.6v-159.3c0-.9.7-1.6 1.6-1.6h29.7c.9 0 1.6.7 1.6 1.6s-.7 1.6-1.6 1.6H58V-142h106.8v-156.1h-25c-.9 0-1.6-.7-1.6-1.6s.7-1.6 1.6-1.6h26.6c.9 0 1.6.7 1.6 1.6v159.3c0 .4-.2.8-.5 1.1-.3.3-.7.5-1.1.5z"/></g><g id="XMLID_289_"><path id="XMLID_9_" class="st4" d="M47.4-299.7l-16.5 15c-11.5 10.4-13.6 27.6-5 40.5l30.4 45.9 21.1-8.9-29.9-56.7-.1-35.8z"/><g id="XMLID_290_"><path id="XMLID_8_" class="st5" d="M26.8-241.2c-.5 0-1-.3-1.3-.7-.5-.7-.3-1.7.5-2.2 6.2-4.1 10-11 10-18.5 0-7-3.2-13.5-8.9-17.7-.7-.5-.8-1.5-.3-2.2s1.5-.8 2.2-.3c6.5 4.8 10.2 12.2 10.2 20.2 0 8.5-4.3 16.4-11.4 21.1-.4.2-.7.3-1 .3z"/></g></g><circle id="XMLID_7_" class="st1" cx="113" cy="-291.8" r="7.6"/><g id="XMLID_283_"><g id="XMLID_286_"><path id="XMLID_6_" class="st0" d="M3.6-158.6c-1.5 0-3-.9-3.7-2.4-.9-2 .1-4.4 2.1-5.2l231.3-98.1c2-.9 4.4.1 5.2 2.1.9 2-.1 4.4-2.1 5.2L5.2-158.9c-.5.2-1.1.3-1.6.3z"/></g><circle id="XMLID_5_" class="st2" cx="238.6" cy="-262.2" r="7.1"/><path id="XMLID_4_" class="st5" d="M237.8-261.8l1-3.1c3.6-11.2 14.6-18.3 26.3-17.1l16.4 1.7-10.2 13c-7.3 9.2-20 12.2-30.6 7l-2.9-1.5z"/></g><g id="XMLID_278_"><path id="XMLID_3_" class="st4" d="M76.6-218.6L46.7-204l10.6 12.2 1.2 8.9c.8 6.2 7.2 10.2 13.1 8.1l12.4-4.3c4.2-1.4 6.9-5.4 6.7-9.9l-.3-6.1-5.3 2.2-2.8-3.2c-1.3-1.5-.8-3.9 1.1-4.7l5.9-2.5-1.2-1c-2-1.6-4.6-2.2-7-1.6l-3.2.7-1.3-13.4z"/><g id="XMLID_279_"><path id="XMLID_2_" class="st5" d="M50.4-198.1c-.6 0-1.2-.3-1.4-.9-.4-.8-.1-1.7.7-2.1l26.8-13c.8-.4 1.7-.1 2.1.7.4.8.1 1.7-.7 2.1l-26.8 13c-.2.1-.5.2-.7.2z"/></g></g></g><g id="alice"><path class="st4" d="M1109.1-25.5l-38.5 6.1c-7 1.1-9.9-8.7-3.4-11.5l26.7-11.9-4.2-45.2h26.8l-7.4 62.5z"/><path class="st5" d="M1122.8-60.4v47l-23.4 24.6c-5.7 6-15.2-.9-11.3-8.2l19-35.6-5.1-30.9 20.8 3.1z"/><path class="st3" d="M1150-273.8c14.9-9.9 20.4-27.8 9.8-41.8l-23-30.3 2-31.6c.4-6.2-3.2-12-9-14.2l-28.5-11.6c-21.4-8.7-43 12-35.5 33.7l3.4 9.8-17.6 41.6c-8.4 19.9-7.2 61.5 53.4 62.6 30.6.7 45-18.2 45-18.2z"/><path class="st5" d="M1125.7-297.3l34.5 47.6-17.8 42.3 9.9 6.6 20.5-43.1c2.4-5 2-10.7-1.1-15.3l-31.5-47.9-14.5 9.8zm-79.8-61.6l14.1-33.6c2.2-5.3 1.2-11.5-2.7-15.7l-5-5.5c-5.6-6.1-15.3-5.4-20 1.4l-.6.7 18.2 11.8-16.7 35.2c-2.4 5-2 10.7 1.1 15.3l31.5 47.9 14.5-9.8c.1-.2-34.4-47.7-34.4-47.7z"/><path class="st2" d="M1064.8-290.6l-1.7 2.8c-2.6 4.5-3.1 10-1.1 14.8l12.7 31.5c.3.9.7 1.7 1.2 2.4l-22.1 108.5c1.7 6 4.7 11.5 9 16.2l13.5 14.9c24.9 27.5 66.8 31.5 96.4 9l23-17.5c9.4-7.1 15.4-16.8 18-27.4-1.9-7.6-5.5-14.7-11-20.9l-79.1-88.7 14.7-49.9c2.7-9.1-4.2-18.3-13.7-18.3H1094c-10.1 0-19.4 5.4-24.4 14.2l-4.8 8.4z"/><path class="st0" d="M1094-313.4h.4c-3.4-4.7-8.8-7.4-14.9-7.4-10.4 0-18.7 8.4-18.7 18.7 0 4.2 1.4 8.3 3.9 11.4l5-8.5c4.8-8.8 14.2-14.2 24.3-14.2z"/><path class="st3" d="M1062.7-90.9l13.5 14.9c24.9 27.5 66.8 31.5 96.4 9l23-17.5c16.2-12.3 22.5-32.6 18-51-2.6 10.5-8.7 20.3-18 27.4l-23 17.5c-29.6 22.5-71.5 18.6-96.4-9l-13.5-14.9c-4.2-4.7-7.3-10.3-9-16.2l-.8 3.9c-2.6 12.9 1 26.2 9.8 35.9z"/><circle class="st0" cx="1133.6" cy="-302" r="18.7"/><path class="st0" d="M1097.5-233.4h-.4c-8.6 0-16.6-1.9-21.9-5.1-.6-.4-.9-1.3-.5-1.9.4-.6 1.3-.9 1.9-.5 4.9 3 12.5 4.7 20.5 4.7h.4c11.8 0 21.9-4.9 24.9-9.7.4-.6 1.3-.9 1.9-.5.6.4.9 1.3.5 1.9-3.9 6.4-15.7 11.1-27.3 11.1z"/><path class="st5" d="M1115.1-364.1v-5.9h-9.4c-4.2 0-8-1.8-10.5-5l-8.3-10.8c-8.4 4.2-13.9 13.2-13 23.4l1.7 18.1c.6 7.2 6.1 13 13.2 14.1l1.3.2v16.9c0 4.2 1.7 8.2 4.6 11.1v.1l17.3-11.3v-19.5l6.1-15.3c.9.6 2.1.9 3.3.9 2.8-.2 5.1-2.4 5.3-5.1.2-2.9-1.8-5.8-4.5-5.8h-1.7c-3.1-.2-5.4-2.9-5.4-6.1z"/><path class="st4" d="M1094.9-329.3l-4.9-.8v4.6l4.9-3.8zm-6.6-21.9c-1.7 0-3.4.7-4.5 1.9.7 1.8 2.4 3.1 4.5 3.1 2 0 3.8-1.3 4.5-3.1-1.2-1.2-2.8-1.9-4.5-1.9z"/><circle class="st0" cx="1098.4" cy="-357.2" r="3.4"/><circle class="st0" cx="1078.9" cy="-357.2" r="3.4"/><path class="st2" d="M1099-344.9c.9 2.6-.5 5.5-3.1 6.5s-5.5-.5-6.5-3.1c.1-.1 9.6-3.4 9.6-3.4z"/></g></g></g><g id="near"><path id="ground" class="st0" d="M0 260.8h1200v295H0z"/><g id="cup-scenario"><g id="bush-black"><path id="XMLID_222_" class="st0" d="M753.4 318.8c2.2 0 4.4.1 6.6.3V318c0-22.8 18.5-41.3 41.3-41.3 2.2 0 4.3.2 6.3.5 7.9-32.4 37.1-56.5 72-56.5 40.9 0 74.1 33.2 74.1 74.1v74.1H676.8c12.9-29.5 42.4-50.1 76.6-50.1z"/></g><g id="cloud_purple"><path id="XMLID_199_" class="st1" d="M1199.7 205.8c-53.5 0-96.9 43.4-96.9 96.9 0 .9 0 1.7.1 2.6-5.1-.4-10.3-.6-15.6-.6-80.4 0-149.5 48.4-179.9 117.6h295.1V205.8h-2.8z"/><path id="XMLID_200_" class="st1" d="M853.3 372.2c2.2 0 4.4.1 6.6.3v-1.1c0-22.8 18.5-41.3 41.3-41.3 2.2 0 4.3.2 6.3.5 7.9-32.4 37.1-56.5 72-56.5 40.9 0 74.1 33.2 74.1 74.1v74.1H776.7c12.9-29.5 42.3-50.1 76.6-50.1z"/></g><g id="cherry_4_"><circle id="XMLID_183_" class="st2" cx="816.7" cy="319.6" r="20.8"/><path id="XMLID_182_" class="st5" d="M837.3 302c-7.3 1.5-14.5.1-20.5-3.2 4.3-5.4 10.4-9.4 17.7-10.8 7.3-1.5 14.5-.1 20.5 3.2-4.3 5.4-10.4 9.4-17.7 10.8z"/><path id="XMLID_181_" class="st4" d="M829 315.6c-6.2-4.1-10.4-10.2-12.3-16.8 6.9-.8 14 .8 20.2 4.9 6.2 4.1 10.4 10.2 12.3 16.8-6.9.8-14-.8-20.2-4.9z"/></g><g id="cherry_3_"><circle id="XMLID_178_" class="st2" cx="1184.8" cy="124.7" r="20.8"/><path id="XMLID_177_" class="st4" d="M1197.2 121.1c-6.1-4.3-10.1-10.5-11.8-17.1 6.9-.6 14 1.2 20.1 5.5s10.1 10.5 11.8 17.1c-6.9.5-14-1.2-20.1-5.5z"/></g><g id="tiny-leafs"><path id="XMLID_175_" class="st5" d="M1137.2 171.7c1 7.4 4.5 13.8 9.7 18.4 3.7-5.8 5.5-12.9 4.5-20.3s-4.5-13.8-9.7-18.4c-3.7 5.8-5.4 12.9-4.5 20.3z"/><path id="XMLID_174_" class="st4" d="M1127.1 183.9c5.9 4.5 13 6.5 19.8 6.2-1.5-6.7-5.2-13-11.1-17.6-5.9-4.5-13-6.5-19.8-6.2 1.4 6.8 5.1 13.1 11.1 17.6z"/></g><g id="cup"><path id="XMLID_171_" class="st5" d="M929.1 226.6c.7-.7 1.8-.7 2.6 0 8.8 8.8 23.1 8.8 31.9 0 .7-.7 1.9-.7 2.6 0 4.3 4.3 9.9 6.6 15.9 6.6s11.7-2.3 15.9-6.6c.7-.7 1.9-.7 2.6 0 4.3 4.3 9.9 6.6 15.9 6.6s11.7-2.3 15.9-6.6c.7-.7 1.9-.7 2.6 0 4.3 4.3 9.9 6.6 15.9 6.6s11.7-2.3 15.9-6.6c.7-.7 1.9-.7 2.6 0 8.8 8.8 23.1 8.8 31.9 0 .7-.7 1.8-.7 2.6 0 7.7 7.7 19.6 8.6 28.3 2.9v-8.3c-4.2.9-8 3-11.1 6.1-.3.3-.8.5-1.3.5s-.9-.2-1.3-.5c-4.3-4.3-9.9-6.6-15.9-6.6s-11.7 2.3-15.9 6.6c-.7.7-1.9.7-2.6 0-8.8-8.8-23.1-8.8-31.9 0-.7.7-1.8.7-2.6 0-8.8-8.8-23.1-8.8-31.9 0-.7.7-1.8.7-2.6 0-8.8-8.8-23.1-8.8-31.9 0-.7.7-1.8.7-2.6 0-8.8-8.8-23.1-8.8-31.9 0-.7.7-1.9.7-2.6 0-4.3-4.3-9.9-6.6-15.9-6.6s-11.7 2.3-15.9 6.6c-.7.7-1.9.7-2.6 0-3.1-3.1-6.9-5.2-11.1-6.1v8.3c9 5.8 20.9 4.8 28.5-2.9z"/><path id="XMLID_170_" class="st5" d="M1102.5 230.4c-9.8 8.6-24.6 8.6-34.4 0-4.8 4.2-10.8 6.5-17.2 6.5s-12.4-2.3-17.2-6.5c-4.8 4.2-10.8 6.5-17.2 6.5s-12.4-2.3-17.2-6.5c-4.8 4.2-10.8 6.5-17.2 6.5s-12.4-2.3-17.2-6.5c-9.8 8.6-24.6 8.6-34.4 0-8.3 7.3-20.2 8.4-29.6 3.3v21.7c0 59.7 48.4 108 108 108h15.2c59.7 0 108-48.4 108-108v-21.7c-9.4 5-21.3 3.9-29.6-3.3z"/><path id="XMLID_169_" class="st5" d="M930.4 217c6.4 0 12.4 2.3 17.2 6.5 9.8-8.6 24.6-8.6 34.4 0 4.8-4.2 10.8-6.5 17.2-6.5s12.4 2.3 17.2 6.5c4.8-4.2 10.8-6.5 17.2-6.5s12.4 2.3 17.2 6.5c9.8-8.6 24.6-8.6 34.4 0 4.8-4.2 10.8-6.5 17.2-6.5 6.4 0 12.4 2.3 17.2 6.5 3.5-3.1 7.8-5.2 12.4-6v-11.3c0-2.8-2.3-5.1-5.1-5.1H906c-2.8 0-5.1 2.3-5.1 5.1v11.3c4.6.9 8.8 2.9 12.4 6 4.7-4.2 10.7-6.5 17.1-6.5z"/><path id="XMLID_168_" class="st1" d="M914.5 227.3c4.3-4.3 9.9-6.6 15.9-6.6s11.7 2.3 15.9 6.6c.7.7 1.9.7 2.6 0 8.8-8.8 23.1-8.8 31.9 0 .7.7 1.8.7 2.6 0 8.8-8.8 23.1-8.8 31.9 0 .7.7 1.8.7 2.6 0 8.8-8.8 23.1-8.8 31.9 0 .7.7 1.8.7 2.6 0 8.8-8.8 23.1-8.8 31.9 0 .7.7 1.9.7 2.6 0 4.3-4.3 9.9-6.6 15.9-6.6s11.7 2.3 15.9 6.6c.3.3.8.5 1.3.5s.9-.2 1.3-.5c3.1-3.1 6.9-5.2 11.1-6.1v-3.7c-4.6.9-8.8 2.9-12.4 6-4.8-4.2-10.8-6.5-17.2-6.5-6.4 0-12.4 2.3-17.2 6.5-9.8-8.6-24.6-8.6-34.4 0-4.8-4.2-10.8-6.5-17.2-6.5-6.4 0-12.4 2.3-17.2 6.5-4.8-4.2-10.8-6.5-17.2-6.5s-12.4 2.3-17.2 6.5c-9.8-8.6-24.6-8.6-34.4 0-4.8-4.2-10.8-6.5-17.2-6.5s-12.4 2.3-17.2 6.5c-3.5-3.1-7.8-5.2-12.4-6v3.7c4.2.9 8 3 11.1 6.1.3.6 1.5.6 2.2 0z"/><path id="XMLID_167_" class="st3" d="M1103.8 226.6c-.7-.7-1.8-.7-2.6 0-8.8 8.8-23.1 8.8-31.9 0-.7-.7-1.9-.7-2.6 0-4.3 4.3-9.9 6.6-15.9 6.6s-11.7-2.3-15.9-6.6c-.7-.7-1.9-.7-2.6 0-4.3 4.3-9.9 6.6-15.9 6.6s-11.7-2.3-15.9-6.6c-.7-.7-1.9-.7-2.6 0-4.3 4.3-9.9 6.6-15.9 6.6s-11.7-2.3-15.9-6.6c-.7-.7-1.9-.7-2.6 0-8.8 8.8-23.1 8.8-31.9 0-.7-.7-1.8-.7-2.6 0-7.7 7.7-19.6 8.6-28.3 2.9v4.2c9.4 5 21.3 4 29.6-3.3 9.8 8.6 24.6 8.6 34.4 0 4.8 4.2 10.8 6.5 17.2 6.5s12.4-2.3 17.2-6.5c4.8 4.2 10.8 6.5 17.2 6.5s12.4-2.3 17.2-6.5c4.8 4.2 10.8 6.5 17.2 6.5s12.4-2.3 17.2-6.5c9.8 8.6 24.6 8.6 34.4 0 8.3 7.3 20.2 8.4 29.6 3.3v-4.2c-8.5 5.8-20.4 4.8-28.1-2.9z"/><path id="XMLID_166_" class="st4" d="M902.9 295.5l-29.3-29.3c-3.6-3.6-5.6-8.5-5.6-13.6 0-10.6 8.6-19.2 19.2-19.2 5.4 0 10.2 2.2 13.7 5.8V218c-4.2-1.7-8.9-2.6-13.7-2.6-20.6 0-37.3 16.7-37.3 37.3 0 10 3.9 19.3 10.9 26.4l19.6 19.6c-3.1 5.5-2.4 12.5 2.3 17.2 5.6 5.6 14.6 5.6 20.2 0s5.5-14.8 0-20.4z"/></g><g id="leaf"><path id="XMLID_165_" class="st2" d="M1100.5 317.8c.7.4 1.3.8 1.9 1.4l.1.1c2.8 2.9 2.8 7.6-.1 10.5-2.2 2.2-5.4 2.7-8.1 1.7l-76.3-22.1c-14.6 8.7-28.5 19.4-41.1 32-5.4 5.4-10.4 11-15.1 16.8l72.9 25.2c1.1.4 2.1 1 2.9 1.8l.1.1c2.9 2.9 2.9 7.7-.1 10.6-1.9 1.9-4.6 2.6-7.1 2l-87.3-12.4c-9.9 17.2-17.2 35.6-21.8 54.5l47.6 9.3c1.5.3 2.9 1 3.9 2.1l.1.1c2.9 2.9 2.9 7.7 0 10.6-1.7 1.7-3.9 2.4-6.1 2.2H917c-3.4 27-1.5 54.5 5.5 80.9 26.4 7 53.9 8.9 80.9 5.5v-49.9c-.2-2.2.5-4.5 2.2-6.1 2.9-2.9 7.7-2.9 10.6 0l.1.1c1 1 1.8 2.4 2.1 3.9l9.3 47.6c18.9-4.6 37.2-11.9 54.5-21.8l-12.4-87.3c-.6-2.5.1-5.2 2-7.1 2.9-2.9 7.6-2.9 10.6-.1l.1.1c.8.8 1.4 1.7 1.8 2.9l25.2 72.9c5.8-4.7 11.4-9.7 16.8-15.1 12.6-12.6 23.3-26.4 32-41.1l-22.1-76.3c-1.1-2.7-.5-5.9 1.7-8.1 2.9-2.9 7.6-2.9 10.5-.1l.1.1c.5.5 1 1.2 1.4 1.9l24.8 48.2c15.3-41.1 17.4-86.1 6.1-128.3-42.2-11.3-87.1-9.2-128.3 6.1l48 24.6z"/><path id="XMLID_164_" class="st1" d="M1187.9 284c-.9-.9-2.4-1-3.4 0l-1-1c.9-.9.9-2.5 0-3.4s-2.5-.9-3.4 0L938.6 525.5c-.9.9-.9 2.4 0 3.4.5.5 1.1.7 1.7.7.6 0 1.2-.2 1.7-.7l245.9-241.5c.9-.9.9-2.5 0-3.4z"/></g><path id="tiny-leaf" class="st5" d="M742.7 350.5c-6.2-4.1-10.4-10.2-12.3-16.8 6.9-.8 14 .8 20.2 4.9 6.2 4.1 10.4 10.2 12.3 16.8-6.9.8-14-.8-20.2-4.9z"/></g><g id="teapot-scenario"><path id="bush" class="st1" d="M169.9 22.6c-11.7 5.8-21.2 16-25.7 29.3 0-14.1 5.7-26.8 14.9-36S174-6 174-20.1c-4.5 13.3-14 23.5-25.7 29.3s-21.2 16-25.7 29.3c0-14.1 5.7-26.8 14.9-36s14.9-21.9 14.9-36c-4.5 13.3-14 23.5-25.7 29.3s-21.2 16-25.7 29.3c0-14.1 5.7-26.8 14.9-36s14.9-21.9 14.9-36c-4.5 13.3-14 23.5-25.7 29.3s-21.2 16-25.7 29.3c0-14.1 5.7-26.8 14.9-36s14.9-21.9 14.9-36C104.7-47 95.2-36.8 83.5-31S62.3-15 57.8-1.7c0-14.1 5.7-26.8 14.9-36s14.9-21.9 14.9-36c-4.5 13.3-14 23.5-25.7 29.3s-21.2 16-25.7 29.3c0-14.1 5.7-26.8 14.9-36S66-73 66-87.1c-4.5 13.3-14 23.5-25.7 29.3s-21.2 16-25.7 29.3c0-14.1 5.7-26.8 14.9-36s14.9-21.9 14.9-36c-4.5 13.3-14 23.5-25.7 29.3-8.7 4.3-16.1 11-21.3 19.6V184L165.5 65.4c0-14.1 5.7-26.8 14.9-36s14.9-21.9 14.9-36c-4.2 13.2-13.7 23.5-25.4 29.2z"/><path id="montain" class="st0" d="M-2.3-15.2c51.1 0 92.6 41.5 92.6 92.6S48.8 170-2.3 170V-15.2z"/><g id="XMLID_282_"><path id="XMLID_218_" class="st0" d="M390.5 318.8c-2.2 0-4.4.1-6.6.3V318c0-22.8-18.5-41.3-41.3-41.3-2.2 0-4.3.2-6.3.5-7.9-32.4-37.1-56.5-72-56.5-40.9 0-74.1 33.2-74.1 74.1v74.1H467c-12.9-29.5-42.3-50.1-76.5-50.1z"/></g><g id="cherry_2_"><circle id="XMLID_189_" class="st2" cx="35.8" cy="15.8" r="20.8"/><path id="XMLID_188_" class="st5" d="M56.3-1.8C49-.3 41.8-1.7 35.8-5c4.3-5.4 10.4-9.4 17.7-10.8 7.3-1.5 14.5-.1 20.5 3.2-4.2 5.4-10.4 9.4-17.7 10.8z"/><path id="XMLID_187_" class="st4" d="M48.1 11.8C41.9 7.7 37.7 1.6 35.8-5c6.9-.8 14 .8 20.2 4.9C62.2 4 66.4 10.1 68.3 16.7c-6.9.8-14-.8-20.2-4.9z"/></g><g id="cherry_1_"><circle id="XMLID_186_" class="st2" cx="292.7" cy="359.1" r="20.8"/><path id="XMLID_185_" class="st5" d="M272.1 341.5c7.3 1.5 14.5.1 20.5-3.2-4.3-5.4-10.4-9.4-17.7-10.8-7.3-1.5-14.5-.1-20.5 3.2 4.3 5.4 10.4 9.3 17.7 10.8z"/><path id="XMLID_184_" class="st4" d="M280.4 355.1c6.2-4.1 10.4-10.2 12.3-16.8-6.9-.8-14 .8-20.2 4.9s-10.4 10.2-12.3 16.8c6.9.7 14-.8 20.2-4.9z"/></g><g id="cherry"><circle id="XMLID_180_" class="st2" cx="331.2" cy="281.9" r="20.8"/><path id="XMLID_179_" class="st4" d="M337 270.4c-7.3 1.5-14.5.1-20.5-3.2 4.3-5.4 10.4-9.4 17.7-10.8 7.3-1.5 14.5-.1 20.5 3.2-4.2 5.3-10.4 9.3-17.7 10.8z"/></g><path id="XMLID_162_" class="st5" d="M357.7 347.7c-6.2-4.1-10.4-10.2-12.3-16.8 6.9-.8 14 .8 20.2 4.9 6.2 4.1 10.4 10.2 12.3 16.8-6.8.7-14-.8-20.2-4.9z"/><g id="teapot"><path id="XMLID_217_" class="st5" d="M188.2 341.7c-9.8 8.6-24.6 8.6-34.4 0-4.9 4.3-11.1 6.5-17.2 6.5s-12.3-2.2-17.2-6.5c-9.8 8.6-24.6 8.6-34.4 0-9.5 8.3-23.6 8.6-33.4.8-2.6 5.2-4 11-4 17v.3h178.1v-.3c0-5.9-1.4-11.7-4-17-9.9 7.8-24 7.5-33.5-.8z"/><path id="XMLID_216_" class="st4" d="M83.7 338c.7-.7 1.8-.7 2.6 0 8.8 8.8 23.1 8.8 31.9 0 .7-.7 1.8-.7 2.6 0 8.8 8.8 23.1 8.8 31.9 0 .7-.7 1.8-.7 2.6 0 8.8 8.8 23.1 8.8 31.9 0 .7-.7 1.8-.7 2.6 0 8.3 8.3 21.5 8.8 30.4 1.4-.5-.9-1.1-1.7-1.7-2.5l-8.2-11H63.2l-8.2 11c-.6.8-1.2 1.6-1.7 2.5 8.9 7.3 22.1 6.9 30.4-1.4z"/><path id="XMLID_215_" class="st1" d="M189.5 338c-.7-.7-1.8-.7-2.6 0-8.8 8.8-23.1 8.8-31.9 0-.7-.7-1.8-.7-2.6 0-8.8 8.8-23.1 8.8-31.9 0-.7-.7-1.8-.7-2.6 0-8.8 8.8-23.1 8.8-31.9 0-.7-.7-1.8-.7-2.6 0-8.3 8.3-21.5 8.8-30.4 1.4-.6 1-1.2 2.1-1.8 3.2 9.8 7.8 23.9 7.5 33.4-.8 9.8 8.6 24.6 8.6 34.4 0 4.9 4.3 11.1 6.5 17.2 6.5s12.3-2.2 17.2-6.5c9.8 8.6 24.6 8.6 34.4 0 9.5 8.3 23.6 8.6 33.4.8-.5-1.1-1.1-2.1-1.8-3.2-8.4 7.3-21.6 6.9-29.9-1.4z"/><path id="XMLID_214_" class="st5" d="M290.4 204.5s-8.7-31.8-22.1-81c-4.1-1-8-2.9-11.2-5.8-9.8 8.6-24.6 8.6-34.4 0-9.8 8.6-24.6 8.6-34.4 0-4.8 4.2-10.8 6.5-17.2 6.5s-12.4-2.3-17.2-6.5c-4.8 4.2-10.8 6.5-17.2 6.5s-12.4-2.3-17.2-6.5c-4.8 4.2-10.8 6.5-17.2 6.5s-12.4-2.3-17.2-6.5c-9.8 8.6-24.6 8.6-34.4 0-9.8 8.6-24.6 8.6-34.4 0-3.2 2.8-7.1 4.8-11.2 5.8l-22.1 81C-34.6 269 13.9 332.6 80.8 332.6h112c66.7 0 115.2-63.6 97.6-128.1z"/><path id="XMLID_213_" class="st5" d="M17.4 113.9c8.8 8.8 23.1 8.8 31.9 0 .7-.7 1.8-.7 2.6 0 8.8 8.8 23.1 8.8 31.9 0 .7-.7 1.9-.7 2.6 0 4.3 4.3 9.9 6.6 15.9 6.6s11.7-2.3 15.9-6.6c.7-.7 1.9-.7 2.6 0 4.3 4.3 9.9 6.6 15.9 6.6s11.7-2.3 15.9-6.6c.7-.7 1.9-.7 2.6 0 4.3 4.3 9.9 6.6 15.9 6.6s11.7-2.3 15.9-6.6c.7-.7 1.9-.7 2.6 0 8.8 8.8 23.1 8.8 31.9 0 .7-.7 1.8-.7 2.6 0 8.8 8.8 23.1 8.8 31.9 0 .7-.7 1.8-.7 2.6 0 2.5 2.5 5.5 4.4 8.8 5.5-.6-2.3-1.3-4.7-1.9-7.1-.3-1-.6-2.1-.9-3.1-2.3-.8-4.8-1.2-7.3-1.2-6 0-11.7 2.3-15.9 6.6-.3.3-.8.5-1.3.5s-.9-.2-1.3-.5c-4.3-4.3-9.9-6.6-15.9-6.6s-11.7 2.3-15.9 6.6c-.7.7-1.9.7-2.6 0-8.8-8.8-23.1-8.8-31.9 0-.7.7-1.8.7-2.6 0-8.8-8.8-23.1-8.8-31.9 0-.7.7-1.8.7-2.6 0-8.8-8.8-23.1-8.8-31.9 0-.7.7-1.8.7-2.6 0-8.8-8.8-23.1-8.8-31.9 0-.7.7-1.9.7-2.6 0-4.3-4.3-9.9-6.6-15.9-6.6s-11.7 2.3-15.9 6.6c-.7.7-1.9.7-2.6 0-4.3-4.3-9.9-6.6-15.9-6.6-2.5 0-5 .4-7.3 1.2-.3 1-.6 2-.9 3.1L6 119.4c3.3-1.1 6.3-2.9 8.8-5.5.8-.7 1.9-.7 2.6 0z"/><path id="XMLID_212_" class="st5" d="M33.3 110.8c4.8-4.2 10.8-6.5 17.2-6.5s12.4 2.3 17.2 6.5c9.8-8.6 24.6-8.6 34.4 0 4.8-4.2 10.8-6.5 17.2-6.5s12.4 2.3 17.2 6.5c4.8-4.2 10.8-6.5 17.2-6.5s12.4 2.3 17.2 6.5c9.8-8.6 24.6-8.6 34.4 0 4.8-4.2 10.8-6.5 17.2-6.5s12.4 2.3 17.2 6.5c4.8-4.2 10.8-6.5 17.2-6.5 2 0 4 .2 6 .7-.5-1.6-1.1-3.3-1.7-4.9-.8-2.1-2.7-3.4-4.9-3.4H16.7c-2.2 0-4.1 1.4-4.9 3.4-.6 1.6-1.1 3.2-1.7 4.9 1.9-.5 3.9-.7 6-.7 6.4.1 12.5 2.4 17.2 6.5z"/><path id="XMLID_211_" class="st1" d="M32.1 114.6c.7.7 1.9.7 2.6 0 4.3-4.3 9.9-6.6 15.9-6.6s11.7 2.3 15.9 6.6c.7.7 1.9.7 2.6 0 8.8-8.8 23.1-8.8 31.9 0 .7.7 1.8.7 2.6 0 8.8-8.8 23.1-8.8 31.9 0 .7.7 1.8.7 2.6 0 8.8-8.8 23.1-8.8 31.9 0 .7.7 1.8.7 2.6 0 8.8-8.8 23.1-8.8 31.9 0 .7.7 1.9.7 2.6 0 4.3-4.3 9.9-6.6 15.9-6.6s11.7 2.3 15.9 6.6c.3.3.8.5 1.3.5s.9-.2 1.3-.5c4.3-4.3 9.9-6.6 15.9-6.6 2.5 0 5 .4 7.3 1.2-.4-1.4-.8-2.8-1.3-4.1-1.9-.5-3.9-.7-6-.7-6.4 0-12.4 2.3-17.2 6.5-4.8-4.2-10.8-6.5-17.2-6.5s-12.4 2.3-17.2 6.5c-9.8-8.6-24.6-8.6-34.4 0-4.8-4.2-10.8-6.5-17.2-6.5s-12.4 2.3-17.2 6.5c-4.8-4.2-10.8-6.5-17.2-6.5-6.4 0-12.4 2.3-17.2 6.5-9.8-8.6-24.6-8.6-34.4 0-4.8-4.2-10.8-6.5-17.2-6.5s-12.4 2.3-17.2 6.5c-4.8-4.2-10.8-6.5-17.2-6.5-2 0-4 .2-6 .7-.4 1.4-.9 2.7-1.3 4.1 2.3-.8 4.8-1.2 7.3-1.2 5.5 0 11.2 2.3 15.5 6.6z"/><path id="XMLID_210_" class="st3" d="M50.5 117.7c9.8 8.6 24.6 8.6 34.4 0 4.8 4.2 10.8 6.5 17.2 6.5s12.4-2.3 17.2-6.5c4.8 4.2 10.8 6.5 17.2 6.5s12.4-2.3 17.2-6.5c4.8 4.2 10.8 6.5 17.2 6.5s12.4-2.3 17.2-6.5c9.8 8.6 24.6 8.6 34.4 0 9.8 8.6 24.6 8.6 34.4 0 3.2 2.8 7.1 4.8 11.2 5.8-.4-1.3-.7-2.7-1.1-4.1-3.3-1.1-6.3-2.9-8.8-5.5-.7-.7-1.8-.7-2.6 0-8.8 8.8-23.1 8.8-31.9 0-.7-.7-1.8-.7-2.6 0-8.8 8.8-23.1 8.8-31.9 0-.7-.7-1.9-.7-2.6 0-4.3 4.3-9.9 6.6-15.9 6.6s-11.7-2.3-15.9-6.6c-.7-.7-1.9-.7-2.6 0-4.3 4.3-9.9 6.6-15.9 6.6s-11.7-2.3-15.9-6.6c-.7-.7-1.9-.7-2.6 0-4.3 4.3-9.9 6.6-15.9 6.6s-11.7-2.3-15.9-6.6c-.7-.7-1.9-.7-2.6 0-8.8 8.8-23.1 8.8-31.9 0-.7-.7-1.8-.7-2.6 0-8.8 8.8-23.1 8.8-31.9 0-.7-.7-1.8-.7-2.6 0-2.5 2.5-5.5 4.4-8.8 5.5l-1.1 4.1c4.1-1 8-2.9 11.2-5.8 10.3 8.6 25 8.6 34.8 0z"/><circle id="XMLID_209_" class="st4" cx="136.6" cy="-5.3" r="24.4"/><path id="XMLID_208_" class="st5" d="M256.9 89.4c-46.6-100.5-194-100.5-240.6 0h240.6z"/><path id="XMLID_207_" class="st4" d="M21 96.8h231.2c3.8 0 6.3-3.9 4.7-7.4H16.3c-1.6 3.5.9 7.4 4.7 7.4z"/><path id="XMLID_206_" class="st5" d="M255.6 284.6c0 15.3-12.4 27.7-27.7 27.7s-27.7-12.4-27.7-27.7v-22.1h55.5v22.1h-.1z"/><path id="XMLID_205_" class="st5" d="M347.1 126.1V122c-7.6.9-14.7 4.3-20.2 9.7l-63.2 63.2h-5.5c-28 0-51.8 20.5-56 48.2l-2.1 13.8c-4.2 28 30.5 44.5 49.5 23.5l108.9-120.3H381c-18.7-.1-33.9-15.3-33.9-34z"/><path id="XMLID_204_" class="st4" d="M351.4 121.8h-.5c-1.3 0-2.6.1-3.8.2v4.1c0 1.7.1 3.4.4 5.1 14.6 2.2 26.2 13.8 28.4 28.4 1.7.3 3.4.4 5.1.4h4.3v-4.3c0-18.7-15.2-33.9-33.9-33.9z"/><path id="XMLID_203_" class="st0" d="M347.5 131.2c2.2 14.6 13.8 26.2 28.4 28.4-2.2-14.6-13.8-26.2-28.4-28.4z"/><path id="XMLID_198_" class="st0" d="M151.1 147.4c-1 0-1.8-.8-1.8-1.8V96.8c0-1 .8-1.8 1.8-1.8s1.8.8 1.8 1.8v48.8c0 1-.8 1.8-1.8 1.8z"/><path class="st2" d="M182.5 163.9l-26.7-19.4c-2.8-2-6.6-2-9.5 0l-26.7 19.4c-2.1 1.5-3.3 3.9-3.3 6.5v49.8c0 4.4 3.6 8 8 8h53.5c4.4 0 8-3.6 8-8v-49.8c0-2.5-1.2-4.9-3.3-6.5zm-31.4-8.4c-2 0-3.6-1.6-3.6-3.6s1.6-3.6 3.6-3.6 3.6 1.6 3.6 3.6-1.6 3.6-3.6 3.6z"/><path id="XMLID_195_" class="st0" d="M153.6 151.1c-.5 0-.9-.2-1.3-.5-.7-.7-.7-1.8 0-2.6l3.7-3.7c.7-.7 1.8-.7 2.6 0 .7.7.7 1.8 0 2.6l-3.7 3.7c-.4.4-.8.5-1.3.5z"/><path id="XMLID_194_" class="st0" d="M148.5 151.1c-.5 0-.9-.2-1.3-.5l-3.7-3.7c-.7-.7-.7-1.8 0-2.6.7-.7 1.8-.7 2.6 0l3.7 3.7c.7.7.7 1.8 0 2.6-.4.4-.8.5-1.3.5z"/><path id="XMLID_193_" class="st4" d="M294 231.3l-47.8 52.3s14.2-13.5 38.3-9.6c6.2-13.2 9.6-27.7 9.5-42.7z"/><path id="XMLID_191_" class="st1" d="M385.5 199.8h-.4c-9 0-14.9-9.5-10.9-17.6l11.1-22.1 11.1 22.1c4 8.1-1.8 17.6-10.9 17.6z"/></g><g id="cloud_group"><path id="XMLID_202_" class="st0" d="M113.7 335.5c-2.2 0-4.4.1-6.6.3v-1.1c0-22.8-18.5-41.3-41.3-41.3-2.2 0-4.3.2-6.3.5-7.9-32.4-37.1-56.5-72-56.5-40.9 0-74.1 33.2-74.1 74.1v74.1h276.8c-12.9-29.5-42.3-50.1-76.5-50.1z"/><path id="XMLID_201_" class="st1" d="M50.6 368.6c-2.2 0-4.4.1-6.6.3v-1.1c0-22.8-18.5-41.3-41.3-41.3-2.2 0-4.3.2-6.3.5-7.9-32.4-37.1-56.5-72-56.5-40.9 0-74.1 33.2-74.1 74.1v74.1h276.8c-12.8-29.5-42.2-50.1-76.5-50.1z"/><path id="XMLID_173_" class="st5" d="M139.4 381.7c4.1 6.2 10.2 10.4 16.8 12.3.8-6.9-.8-14-4.9-20.2-4.1-6.2-10.2-10.4-16.8-12.3-.8 6.9.7 14.1 4.9 20.2z"/><path id="XMLID_172_" class="st4" d="M135.6 397.2c7.3 1.5 14.5.1 20.5-3.2-4.3-5.4-10.4-9.4-17.7-10.8-7.3-1.5-14.5-.1-20.5 3.2 4.3 5.4 10.4 9.4 17.7 10.8z"/><path id="XMLID_160_" class="st5" d="M90.1 334.9c1.5 7.3.1 14.5-3.2 20.5-5.4-4.3-9.4-10.4-10.8-17.7-1.5-7.3-.1-14.5 3.2-20.5 5.4 4.3 9.4 10.4 10.8 17.7z"/><path id="XMLID_159_" class="st4" d="M29.4 301.8c-7.3 1.5-14.5.1-20.5-3.2 4.3-5.4 10.4-9.4 17.7-10.8 7.3-1.5 14.5-.1 20.5 3.2-4.3 5.4-10.4 9.3-17.7 10.8z"/></g></g></g></svg>