<svg xmlns="http://www.w3.org/2000/svg" viewBox="0 0 285.3 99.5"><path fill="#B39F78" d="M43.3 69.3h201c1.1 0 2-.9 2-2s-.9-2-2-2h-201c-1.1 0-2 .9-2 2s.9 2 2 2zM215.7 94H72c-1.1 0-2 .9-2 2s.9 2 2 2h143.7c1.1 0 2-.9 2-2s-.9-2-2-2zM43.3 40.5h201c1.1 0 2-.9 2-2s-.9-2-2-2h-201c-1.1 0-2 .9-2 2s.9 2 2 2zm221.8 39.1h-72.4c-1.1 0-2 .9-2 2s.9 2 2 2h72.4c1.1 0 2-.9 2-2s-.9-2-2-2zm-88 2c0-1.1-.9-2-2-2H22.6c-1.1 0-2 .9-2 2s.9 2 2 2H175c1.2 0 2.1-.9 2.1-2zm108.2-29.1c-.2-1-1.1-1.7-2.1-1.7H51.7c-1.1 0-2 .9-2 2s.9 2 2 2h231.6c1.2.1 2.2-1 2-2.3zm-246.8.4c0-1.1-.9-2-2-2H2c-1.2 0-2.2 1.1-2 2.3.2 1 1.1 1.7 2.1 1.7h34.3c1.2 0 2.1-.9 2.1-2z"/><path fill="#FF644B" d="M210.1 65.4l-51.6-51.5C149.8 5.1 138 .4 125.6.4H90c-2.3 0-4.5 1.5-4.5 3.7v8.3H83c-2.3 0-4.5 2.1-4.5 4.4V37c0 10.6 4.6 20.4 12.1 28.4h23.9v4c2 2.5 4.8 4.1 8.1 4.1 3.9 0 7.2-2.1 8.9-5.3l-1.7-2.8h80.3z"/><circle fill="#EFDB9F" cx="131.2" cy="32.6" r="13.8"/><circle fill="#281E32" cx="131.2" cy="32.6" r="10.2"/><path fill="#EFA950" d="M147.6 93.7l-16-25.6c-1.7 3.2-5 5.4-8.9 5.4-3.3 0-6.3-1.6-8.1-4.1v15.5c0 4.3 3 8.1 7.2 9.2l21.6 5.4c3.4.7 6-2.9 4.2-5.8zm6.2-28.4h8c.2-2.1-.5-4.3-2.1-5.9l-5.9 5.9zm42.7-6.5l-6.5 6.5h8.5c.4-2.3-.3-4.8-2-6.5zm-24.6 6.5h8.2c.3-2.2-.4-4.5-2-6.2l-6.2 6.2zM168.1 51c2.8 2.8 7.4 2.8 10.3 0s2.8-7.4 0-10.3L168.1 51zm-18.4.2c2.8 2.8 7.4 2.8 10.3 0s2.8-7.4 0-10.3l-10.3 10.3zM160.9 16h21.3c5.4 0 10.3 3.4 12.3 8.4l15.7 40.9L160.9 16z"/></svg>