<svg xmlns="http://www.w3.org/2000/svg" viewBox="0 0 45.5 47.7"><path fill="#FF644B" d="M17.3 47.7c-3.3-3.7-4.7-9.1-3-14.2.3-1 .7-1.9 1.2-2.8-1 .2-2 .3-3 .3-5.4 0-10-2.9-12.5-7.2 2.5-4.3 7.2-7.2 12.5-7.2 1 0 2 .1 3 .3-.5-.9-.9-1.8-1.2-2.8-1.6-5-.3-10.4 3-14.1 4.9 1 9.1 4.6 10.8 9.7.3 1 .5 2 .6 3 .7-.7 1.4-1.4 2.2-2 4.3-3.2 9.8-3.5 14.4-1.5.5 5-1.6 10.1-5.9 13.2-.8.6-1.7 1.1-2.6 1.5.9.4 1.8.9 2.6 1.5 4.3 3.2 6.4 8.3 5.9 13.2-4.6 2-10.1 1.6-14.4-1.5-.8-.6-1.6-1.3-2.2-2-.1 1-.3 2-.6 3-1.7 5-5.9 8.6-10.8 9.6z"/><circle fill="#fff" cx="24.2" cy="23.9" r="7.2"/></svg>