<svg xmlns="http://www.w3.org/2000/svg" viewBox="0 0 1200 891.1"><path fill="#281E32" d="M-2.3.2v858.1c0-22.1 17.9-40.1 40.1-40.1 22.1 0 40.1-17.9 40.1-40.1C77.9 756 95.8 738 118 738c22.1 0 40.1-17.9 40.1-40.1s17.9-40.1 40.1-40.1c22.2 0 40.1-17.9 40.1-40.1 0-22.1 17.9-40.1 40.1-40.1 22.1 0 40.1-17.9 40.1-40.1 0-22.1 17.9-40.1 40.1-40.1s40.1-17.9 40.1-40.1c0-22.1 17.9-40.1 40.1-40.1 22.1 0 40.1-17.9 40.1-40.1 0-22.1 17.9-40.1 40.1-40.1 22.1 0 40.1-17.9 40.1-40.1s17.9-40.1 40.1-40.1h2.4c22.1 0 40.1 17.9 40.1 40.1s17.9 40.1 40.1 40.1c22.1 0 40.1 17.9 40.1 40.1 0 22.1 17.9 40.1 40.1 40.1s40.1 17.9 40.1 40.1c0 22.1 17.9 40.1 40.1 40.1 22.1 0 40.1 17.9 40.1 40.1 0 22.1 17.9 40.1 40.1 40.1 22.1 0 40.1 17.9 40.1 40.1 0 22.1 17.9 40.1 40.1 40.1 22.1 0 40.1 17.9 40.1 40.1s17.9 40.1 40.1 40.1c22.1 0 40.1 17.9 40.1 40.1 0 22.1 17.9 40.1 40.1 40.1 22.1 0 40.1 17.9 40.1 40.1V.2H-2.3z"/><path fill="#EFA950" d="M101.9 269.7c4.1-10.3 14.2-17.7 25.9-17.7.8 0 1.6 0 2.4.1.8-16.1 14.1-28.9 30.5-28.9h.7c1.7-29.7 26.2-53.2 56.3-53.2 24.9 0 46.1 16.2 53.5 38.6 6.5-4.1 14.1-6.4 22.3-6.4 22.5 0 40.9 17.7 42 39.9 1.1-.1 2.2-.1 3.3-.1 17.5 0 32.3 11.7 36.9 27.7H101.9z"/><path fill="#FF644B" d="M279.9 269.4c-14.1 0-25.4-11.4-25.4-25.4 0-14.1-11.4-25.4-25.4-25.4-14.1 0-25.4-11.4-25.4-25.4 0-14.1-11.4-25.4-25.4-25.4-14.1 0-25.4-11.4-25.4-25.4 0-14.1-11.4-25.4-25.4-25.4-14 0-25.4-11.4-25.4-25.4 0-14.1-11.4-25.4-25.4-25.4S51.3 54.8 51.3 40.8c0-14.1-11.4-25.4-25.4-25.4S.5 4 .5-10v176.2c3 0 6.1-.6 9.1-1.7 13.1-5.1 27.8 1.4 32.9 14.5 5.1 13.1 19.8 19.6 32.9 14.5s27.8 1.4 32.9 14.5c5.1 13.1 19.8 19.6 32.9 14.5s27.8 1.4 32.9 14.5 19.8 19.6 32.9 14.5c13.1-5.1 27.8 1.4 32.9 14.5 5.1 13.1 19.8 19.6 32.9 14.5s27.8 1.4 32.9 14.5c-.4-14.2-11.7-25.6-25.8-25.6z"/><path fill="#46466E" d="M194.4 317.6c-5.2-17.6-21.4-30.5-40.7-30.5-1.2 0-2.5.1-3.7.2-1.2-24.5-21.5-44-46.3-44-9 0-17.5 2.6-24.6 7.1-8.2-24.7-31.5-42.6-59-42.6-7 0-13.7 1.2-20 3.3v106.6l194.3-.1z"/><path fill="#EFDB9F" d="M91 256.2H50.3l-6.7 42.6c-1.6 9.9 6.1 18.8 16.1 18.8h22c10 0 17.6-8.9 16.1-18.8L91 256.2z"/><path fill="#FF644B" d="M122.1 276.6c-1.9-11.2-8.8-20.6-18.4-25.8-5.9-3.2-10.3-8.5-12.7-14.7l-2.3-6c-2.8-7.5-10-12.4-17.9-12.4h-.3c-8 0-15.1 4.9-17.9 12.4l-2.3 6c-2.4 6.2-6.8 11.5-12.7 14.7-9.6 5.2-16.5 14.7-18.4 25.8v1.7c.4 2.4 2.5 4.3 5.1 4.3H117c3.2 0 5.6-2.8 5.1-6z"/><path fill="#281E32" d="M157.1 360.2c-4.5-20.9-23.1-36.6-45.3-36.6-9 0-17.5 2.6-24.6 7.1-8.2-24.7-31.5-42.6-59-42.6-10.1 0-19.7 2.4-28.1 6.7v65.4h157z"/><path fill="#B39F78" d="M258.5 423.7l49.2-49.2-10.4-10.4-69.2 55H85.9l30.7-30.7h28.8c16.4 0 32.2-6.5 43.8-18.1l38.9-38.9-10.4-10.4-57.9 42.4h-46.6c-16.4 0-32.2 6.5-43.8 18.1l-30.7 30.7L.1 412v114.8L36.7 486c5.5-6.1 13.1-9.9 21.3-10.7l284.5-26.7v-25l-84 .1z"/><path fill="#FF644B" d="M292.6 419.4c-2.9 0-5.3 2.4-5.4 5.3-.8 70.7-9.5 136.8-24.7 187-15.2 49.9-35.3 78.5-55.2 78.5s-40.1-28.6-55.2-78.5c-15.6-51.4-24.4-119.4-24.8-192 0-3-2.4-5.3-5.4-5.3h-.1c-3 0-5.4 2.4-5.4 5.4.4 73.6 9.3 142.7 25.2 195.1 8 26.4 17.4 47.2 27.9 61.9 11.6 16.2 24.3 24.4 37.7 24.4s26.1-8.2 37.7-24.4c10.5-14.7 19.9-35.5 27.9-61.9 15.5-51.2 24.4-118.3 25.2-190.1 0-3-2.4-5.4-5.4-5.4z"/><path fill="#EFDB9F" d="M217.7 321.1c-1.2 2.9-.6 6.3 1.8 8.6 2.3 2.3 5.8 2.9 8.6 1.8 1.2-2.9.6-6.3-1.8-8.6-2.3-2.4-5.7-3-8.6-1.8zm79.6 43.1c-1.2 2.9-.6 6.3 1.8 8.6 2.3 2.3 5.8 2.9 8.6 1.8 1.2-2.9.6-6.3-1.8-8.6-2.3-2.4-5.7-3-8.6-1.8zm45.1 59.5c-4.9 2.1-8.3 6.9-8.3 12.5s3.4 10.4 8.3 12.5c4.9-2.1 8.3-6.9 8.3-12.5s-3.5-10.4-8.3-12.5z"/><path fill="#FF644B" d="M100.2 478.1h.1c2.8 0 5.2-2.2 5.4-5 1.1-17.3 1.7-35.1 1.8-53.2 0-3-2.4-5.4-5.4-5.4h-.1c-3 0-5.3 2.4-5.4 5.3-.1 17.9-.7 35.4-1.8 52.5-.2 3.2 2.3 5.8 5.4 5.8zm213.2 132.1h-.1c-3 0-5.4-2.4-5.4-5.4V452l10.8-1v153.8c.1 3-2.3 5.4-5.3 5.4z"/><path fill="#B39F78" d="M.1 613.9h48.7c15.2 0 29.8-6 40.5-16.8l77.4-77.4L177 531l-81.7 96.6 40.4 40.4-11.3 10.3L76.7 641 .1 653.7v-39.8z"/><path fill="#EFDB9F" d="M60.1 607.5c-2.7 0-5 2-5.3 4.7-4.2 31-10.1 59.6-17.6 84.3-10.6 34.8-23.5 59.2-37.2 70.8v13.3c6.8-4 13.4-10.4 19.6-19.1 10.5-14.7 19.9-35.5 27.9-61.9 7.7-25.2 13.7-54.3 18-86 .4-3.2-2.1-6.1-5.3-6.1h-.1zm64.2 70.8c2.9 1.3 6.4.8 8.9-1.5s3.3-5.8 2.4-8.7c-2.9-1.3-6.4-.8-8.9 1.5-2.6 2.2-3.4 5.7-2.4 8.7zm42.3-158.6c-1.3 2.9-.8 6.4 1.5 8.9s5.8 3.3 8.7 2.4c1.3-2.9.8-6.4-1.5-8.9s-5.7-3.4-8.7-2.4z"/><path fill="#FF644B" d="M351.5 368.5c-3.4-3.7-4.7-9.1-3-14.2.3-1 .7-1.9 1.2-2.8-1 .2-2 .3-3 .3-5.4 0-10.1-2.9-12.6-7.3 2.5-4.3 7.2-7.3 12.6-7.3 1 0 2 .1 3 .3-.5-.9-.9-1.8-1.2-2.8-1.7-5.1-.3-10.5 3-14.2 4.9 1 9.1 4.6 10.8 9.7.3 1 .5 2 .6 3 .7-.7 1.4-1.4 2.3-2 4.4-3.2 9.9-3.6 14.5-1.5.5 5-1.6 10.1-5.9 13.3-.8.6-1.7 1.1-2.6 1.5.9.4 1.8.9 2.6 1.5 4.4 3.2 6.4 8.3 5.9 13.3-4.6 2-10.1 1.6-14.5-1.5-.8-.6-1.6-1.3-2.3-2-.1 1-.3 2-.6 3-1.6 5.1-5.9 8.7-10.8 9.7z"/><circle fill="#FFF" cx="358.4" cy="344.6" r="7.2"/><path fill="#FF644B" d="M218.4 499.5c5-.8 10.2 1.1 13.6 5.3.6.8 1.2 1.7 1.6 2.6.4-.9.8-1.8 1.4-2.7 3-4.5 8-6.8 13-6.5 2.3 4.5 2.1 10-.8 14.5-.6.9-1.2 1.6-1.9 2.4 1 .1 2 .2 3 .5 5.2 1.4 9 5.5 10.2 10.3-3.6 3.5-8.9 5.1-14.1 3.7-1-.3-1.9-.6-2.8-1.1.3 1 .4 2 .5 3 .3 5.4-2.4 10.2-6.7 12.9-4.5-2.3-7.6-6.9-7.9-12.2 0-1 0-2 .2-3-.8.5-1.7 1-2.7 1.4-5 1.9-10.5.8-14.4-2.3.8-5 4.2-9.4 9.2-11.3 1-.4 2-.6 2.9-.8-.8-.6-1.5-1.3-2.1-2.2-3.4-4.3-4-9.8-2.2-14.5z"/><circle fill="#FFF" cx="234.6" cy="518.4" r="7.2"/><path fill="#FF644B" d="M49 543c-.8-5 1.1-10.2 5.3-13.6.8-.6 1.7-1.2 2.6-1.6-.9-.4-1.8-.8-2.7-1.4-4.5-3-6.8-8-6.5-13 4.5-2.3 10-2.1 14.5.8.9.6 1.7 1.2 2.4 1.9.1-1 .2-2 .5-3 1.4-5.2 5.5-9 10.3-10.2 3.5 3.6 5.1 8.9 3.7 14.1-.3 1-.6 1.9-1.1 2.8 1-.3 2-.4 3-.5 5.4-.3 10.2 2.4 12.9 6.7-2.3 4.5-6.9 7.6-12.2 7.9-1 0-2 0-3-.2.5.8 1 1.7 1.4 2.7 1.9 5 .8 10.5-2.3 14.4-5-.8-9.4-4.2-11.3-9.2-.4-1-.6-2-.8-2.9-.6.8-1.3 1.5-2.2 2.1-4.3 3.4-9.8 4-14.5 2.2z"/><circle fill="#FFF" cx="67.9" cy="526.8" r="7.2"/><path fill="#FF644B" d="M94.7 734c-.8-5 1.1-10.2 5.3-13.6.8-.6 1.7-1.2 2.6-1.6-.9-.4-1.8-.8-2.7-1.4-4.5-3-6.8-8-6.5-13 4.5-2.3 10-2.1 14.5.8.9.6 1.7 1.2 2.4 1.9.1-1 .2-2 .5-3 1.4-5.2 5.5-9 10.3-10.2 3.5 3.6 5.1 8.9 3.7 14.1-.3 1-.6 1.9-1.1 2.8 1-.3 2-.4 3-.5 5.4-.3 10.2 2.4 12.9 6.7-2.3 4.5-6.9 7.6-12.2 7.9-1 0-2 0-3-.2.5.8 1 1.7 1.4 2.7 1.9 5 .8 10.5-2.3 14.4-5-.8-9.4-4.2-11.3-9.2-.4-1-.6-2-.8-2.9-.6.8-1.3 1.5-2.2 2.1-4.3 3.3-9.8 4-14.5 2.2z"/><circle fill="#FFF" cx="113.7" cy="717.7" r="7.2"/><path d="M179.3 496.3c2.2-2 5.4-2.9 8.5-1.9.6.2 1.1.4 1.7.7-.1-.6-.2-1.2-.2-1.8 0-3.2 1.7-6.1 4.2-7.6 2.6 1.5 4.4 4.3 4.5 7.5 0 .6 0 1.2-.2 1.8.5-.3 1.1-.6 1.6-.8 3-1 6.3-.3 8.5 1.7-.6 2.9-2.7 5.5-5.7 6.5-.6.2-1.2.3-1.8.4.4.4.9.8 1.2 1.3 1.9 2.6 2.2 5.9 1 8.6-3 .4-6.1-.8-8-3.4-.4-.5-.7-1-.9-1.6-.2.5-.5 1.1-.9 1.6-1.9 2.6-4.9 3.9-7.9 3.6-1.3-2.7-1.1-6 .8-8.7.4-.5.8-1 1.2-1.4-.6-.1-1.2-.2-1.8-.4-3-.7-5.2-3.2-5.8-6.1zm-139-116c-2-2.2-2.9-5.4-1.9-8.5.2-.6.4-1.1.7-1.7-.6.1-1.2.2-1.8.2-3.2 0-6.1-1.7-7.6-4.2 1.5-2.6 4.3-4.4 7.5-4.5.6 0 1.2 0 1.8.2-.3-.5-.6-1.1-.8-1.6-1-3-.3-6.3 1.7-8.5 2.9.6 5.5 2.7 6.5 5.7.2.6.3 1.2.4 1.8.4-.4.8-.9 1.3-1.2 2.6-1.9 5.9-2.2 8.6-1 .4 3-.8 6.1-3.4 8-.5.4-1 .7-1.6.9.5.2 1.1.5 1.6.9 2.6 1.9 3.9 4.9 3.6 7.9-2.7 1.3-6 1.1-8.7-.8-.5-.4-1-.8-1.4-1.2-.1.6-.2 1.2-.4 1.8-.7 3-3.2 5.2-6.1 5.8zm163.4.6c.6-2.9 2.7-5.5 5.8-6.5.6-.2 1.2-.3 1.8-.4-.4-.4-.9-.8-1.2-1.3-1.9-2.6-2.2-5.9-1-8.6 3-.3 6.1.9 8 3.5.4.5.7 1 .9 1.6.2-.5.5-1.1.9-1.6 1.9-2.6 4.9-3.9 7.9-3.6 1.2 2.7 1 6-.9 8.7-.4.5-.8 1-1.2 1.4.6.1 1.2.2 1.8.4 3.1 1 5.2 3.5 5.9 6.4-2.2 2-5.4 2.8-8.5 1.9-.6-.2-1.1-.4-1.7-.7.1.6.2 1.2.2 1.8 0 3.2-1.7 6-4.3 7.6-2.6-1.5-4.4-4.3-4.4-7.5 0-.6.1-1.2.2-1.8-.5.3-1.1.6-1.7.7-3.1.8-6.3 0-8.5-2zm204.5-4.7c.6-2.9 2.7-5.5 5.8-6.5.6-.2 1.2-.3 1.8-.4-.4-.4-.9-.8-1.2-1.3-1.9-2.6-2.2-5.9-1-8.6 3-.3 6.1.9 8 3.5.4.5.7 1 .9 1.6.2-.5.5-1.1.9-1.6 1.9-2.6 4.9-3.9 7.9-3.6 1.2 2.7 1 6-.9 8.7-.4.5-.8 1-1.2 1.4.6.1 1.2.2 1.8.4 3.1 1 5.2 3.5 5.9 6.4-2.2 2-5.4 2.8-8.5 1.9-.6-.2-1.1-.4-1.7-.7.1.6.2 1.2.2 1.8 0 3.2-1.7 6-4.3 7.6-2.6-1.5-4.4-4.3-4.4-7.5 0-.6.1-1.2.2-1.8-.5.3-1.1.6-1.7.7-3.1.8-6.3 0-8.5-2zM393.8 321c.6-2.9 2.7-5.5 5.8-6.5.6-.2 1.2-.3 1.8-.4-.4-.4-.9-.8-1.2-1.3-1.9-2.6-2.2-5.9-1-8.6 3-.3 6.1.9 8 3.5.4.5.7 1 .9 1.6.2-.5.5-1.1.9-1.6 1.9-2.6 4.9-3.9 7.9-3.6 1.2 2.7 1 6-.9 8.7-.4.5-.8 1-1.2 1.4.6.1 1.2.2 1.8.4 3.1 1 5.2 3.5 5.9 6.4-2.2 2-5.4 2.8-8.5 1.9-.6-.2-1.1-.4-1.7-.7.1.6.2 1.2.2 1.8 0 3.2-1.7 6-4.3 7.6-2.6-1.5-4.4-4.3-4.4-7.5 0-.6.1-1.2.2-1.8-.5.3-1.1.6-1.7.7-3 .7-6.2 0-8.5-2zm-351 258.5c.6-2.9 2.7-5.5 5.8-6.5.6-.2 1.2-.3 1.8-.4-.4-.4-.9-.8-1.2-1.3-1.9-2.6-2.2-5.9-1-8.6 3-.3 6.1.9 8 3.5.4.5.7 1 .9 1.6.2-.5.5-1.1.9-1.6 1.9-2.6 4.9-3.9 7.9-3.6 1.2 2.7 1 6-.9 8.7-.4.5-.8 1-1.2 1.4.6.1 1.2.2 1.8.4 3.1 1 5.2 3.5 5.9 6.4-2.2 2-5.4 2.8-8.5 1.9-.6-.2-1.1-.4-1.7-.7.1.6.2 1.2.2 1.8 0 3.2-1.7 6-4.3 7.6-2.6-1.5-4.4-4.3-4.4-7.5 0-.6.1-1.2.2-1.8-.5.3-1.1.6-1.7.7-3.1.8-6.3 0-8.5-2zm.2 171.8c2-2.3 5.1-3.4 8.2-2.8.6.1 1.2.3 1.7.5-.2-.6-.3-1.2-.4-1.8-.4-3.2 1-6.2 3.4-8 2.8 1.2 4.8 3.8 5.2 7 .1.6.1 1.2 0 1.8.5-.4 1-.7 1.6-.9 2.9-1.4 6.2-.9 8.7.8-.3 3-2.1 5.8-5 7.1-.6.3-1.1.5-1.7.6.5.3.9.7 1.4 1.2 2.2 2.4 2.8 5.6 1.9 8.5-2.9.7-6.1-.2-8.3-2.6-.4-.5-.8-.9-1.1-1.5-.2.6-.4 1.1-.7 1.7-1.6 2.8-4.5 4.4-7.5 4.5-1.5-2.6-1.7-5.9-.1-8.7.3-.5.7-1 1-1.5-.6 0-1.2 0-1.8-.2-3.1-.6-5.5-2.9-6.5-5.7zM218.8 620c2-2.3 5.1-3.4 8.2-2.8.6.1 1.2.3 1.7.5-.2-.6-.3-1.2-.4-1.8-.4-3.2 1-6.2 3.4-8 2.8 1.2 4.8 3.8 5.2 7 .1.6.1 1.2 0 1.8.5-.4 1-.7 1.6-.9 2.9-1.4 6.2-.9 8.7.8-.3 3-2.1 5.8-5 7.1-.6.3-1.1.5-1.7.6.5.3.9.7 1.4 1.2 2.2 2.4 2.8 5.6 1.9 8.5-2.9.7-6.1-.2-8.3-2.6-.4-.5-.8-.9-1.1-1.5-.2.6-.4 1.1-.7 1.7-1.6 2.8-4.5 4.4-7.5 4.5-1.5-2.6-1.7-5.9-.1-8.7.3-.5.7-1 1-1.5-.6 0-1.2 0-1.8-.2-3.1-.6-5.5-2.8-6.5-5.7zm-32.1-32.3c3 .1 5.9 1.7 7.4 4.5.3.5.5 1.1.7 1.7.3-.5.7-1 1.1-1.4 2.2-2.3 5.4-3.2 8.3-2.5.9 2.9.2 6.1-2 8.5-.4.5-.9.8-1.4 1.2.6.1 1.2.3 1.7.6 2.9 1.4 4.7 4.2 4.9 7.2-2.5 1.7-5.8 2.1-8.7.7-.6-.3-1.1-.6-1.6-.9v1.8c-.4 3.2-2.5 5.8-5.3 6.9-2.4-1.8-3.8-4.8-3.4-8 .1-.6.2-1.2.4-1.8-.6.2-1.1.4-1.7.5-3.2.6-6.3-.6-8.2-2.9 1-2.8 3.4-5.1 6.6-5.7.6-.1 1.2-.2 1.8-.1-.4-.5-.7-1-1-1.5-1.4-2.9-1.2-6.2.4-8.8zm174.1-60c-1.8-10.1-7.2-18.6-14.5-24.6-4.7 8.2-6.7 18.1-4.9 28.2s7.2 18.6 14.5 24.6c4.8-8.3 6.8-18.2 4.9-28.2z" fill="#46466E"/><path fill="#281E32" d="M374 510.2c-8.4-5.8-18.2-8.1-27.7-7.2 2.5 9.2 8 17.5 16.5 23.4 8.4 5.8 18.2 8.1 27.7 7.2-2.5-9.2-8.1-17.6-16.5-23.4z"/><path fill="#46466E" d="M121.7 781.7c-9.7-3.1-19.8-2.5-28.6 1.2 5 8.1 12.8 14.4 22.6 17.6 9.7 3.1 19.8 2.5 28.6-1.2-5-8.1-12.8-14.5-22.6-17.6z"/><path fill="#281E32" d="M112.5 761.9c-9.1 4.7-15.7 12.3-19.4 21 9.2 2.1 19.3 1.2 28.4-3.5 9.1-4.7 15.7-12.3 19.4-21-9.3-2.2-19.3-1.2-28.4 3.5zm194.6-114.7c-1.9-10-7.4-18.5-14.8-24.5-4.7 8.3-6.5 18.2-4.6 28.2s7.4 18.5 14.8 24.5c4.7-8.2 6.5-18.1 4.6-28.2z"/><path fill="#46466E" d="M81.1 839.4c-1.9-10-7.4-18.5-14.8-24.5-4.7 8.3-6.5 18.2-4.6 28.2s7.4 18.5 14.8 24.5c4.7-8.3 6.6-18.2 4.6-28.2zm272.1-182.6c-8.4-5.8-18.3-8-27.7-7.1 2.5 9.2 8.1 17.5 16.5 23.3s18.3 8 27.7 7.1c-2.5-9.1-8.1-17.5-16.5-23.3z"/><path fill="#EFA950" d="M1168.9 390.8c-4.5-11.4-15.6-19.5-28.6-19.5-.9 0-1.8 0-2.7.1-.9-17.8-15.6-31.9-33.6-31.9h-.7c-1.8-32.7-28.9-58.6-62.1-58.6-27.5 0-50.8 17.9-59 42.6-7.1-4.5-15.6-7.1-24.6-7.1-24.8 0-45.1 19.5-46.3 44-1.2-.1-2.4-.2-3.7-.2-19.3 0-35.6 12.9-40.7 30.5l302 .1z"/><path fill="#B39F78" d="M1151.7 422.1l-68.9 23.1c-18.3 6.1-35.6-11.3-29.5-29.5l23.1-68.9c13.6-40.4 51.4-67.7 94.1-67.7h48.8v48.8c.1 42.7-27.2 80.6-67.6 94.2z"/><path fill="#46466E" d="M1076.8 384.9h34.3l-35.7 35.7c-.7.7-.7 1.8 0 2.6.7.7 1.8.7 2.6 0l35.7-35.7v34.3c0 1 .8 1.8 1.8 1.8s1.8-.8 1.8-1.8v-37.9l32.5-32.5V412c0 1 .8 1.8 1.8 1.8s1.8-.8 1.8-1.8v-64.2l32.5-32.5v72.6c0 1 .8 1.8 1.8 1.8s1.8-.8 1.8-1.8v-76.2l16.7-16.7c.7-.7.7-1.8 0-2.6-.4-.4-.8-.5-1.3-.5s-.9.2-1.3.5l-16.7 16.7h-76.2c-1 0-1.8.8-1.8 1.8s.8 1.8 1.8 1.8h72.6l-32.5 32.5h-64.2c-1 0-1.8.8-1.8 1.8s.8 1.8 1.8 1.8h60.6l-32.5 32.5h-37.9c-1 0-1.8.8-1.8 1.8s.8 1.8 1.8 1.8z"/><path fill="#FF644B" d="M1080 329.2l-65-32.4c-17.2-8.6-17.2-33.2 0-41.7l65-32.4c38.2-19 84.2-11.5 114.4 18.7l34.5 34.5-34.5 34.5c-30.1 30.3-76.2 37.8-114.4 18.8z"/><path fill="#281E32" d="M1053.3 249.9l24.2 24.2H1027c-1 0-1.8.8-1.8 1.8s.8 1.8 1.8 1.8h50.5l-24.2 24.2c-.7.7-.7 1.8 0 2.6.7.7 1.8.7 2.6 0l26.8-26.8h46l-42.9 42.9c-.7.7-.7 1.8 0 2.6.7.7 1.8.7 2.6 0l45.4-45.4h46l-51.3 51.3c-.7.7-.7 1.8 0 2.6.7.7 1.8.7 2.6 0l53.9-53.9h23.6c1 0 1.8-.8 1.8-1.8 0-.5-.2-1-.5-1.3s-.8-.5-1.3-.5H1185l-53.9-53.9c-.7-.7-1.8-.7-2.6 0-.7.7-.7 1.8 0 2.6l51.3 51.3h-46l-45.4-45.4c-.7-.7-1.8-.7-2.6 0-.7.7-.7 1.8 0 2.6l42.9 42.9h-46l-26.8-26.8c-.7-.7-1.8-.7-2.6 0-.7.6-.7 1.7 0 2.4z"/><path fill="#FF644B" d="M1084.5 620.6c5-.8 10.2 1.1 13.6 5.3.6.8 1.2 1.7 1.6 2.6.4-.9.8-1.8 1.4-2.7 3-4.5 8-6.8 13-6.5 2.3 4.5 2.1 10-.8 14.5-.6.9-1.2 1.7-1.9 2.4 1 .1 2 .2 3 .5 5.2 1.4 9 5.5 10.2 10.3-3.6 3.5-8.9 5.1-14.1 3.7-1-.3-1.9-.6-2.8-1.1.3 1 .4 2 .5 3 .3 5.4-2.4 10.2-6.7 12.9-4.5-2.3-7.6-6.9-7.9-12.2 0-1 0-2 .2-3-.8.5-1.7 1-2.7 1.4-5 1.9-10.5.8-14.4-2.3.8-5 4.2-9.4 9.2-11.3 1-.4 2-.6 2.9-.8-.8-.6-1.5-1.3-2.1-2.2-3.4-4.3-4-9.8-2.2-14.5z"/><circle fill="#FFF" cx="1100.7" cy="639.5" r="7.2"/><path fill="#FF644B" d="M998.5 434.1c4.9.9 9.3 4.3 11.1 9.4.4 1 .6 2 .7 2.9.6-.8 1.4-1.5 2.2-2.1 4.3-3.3 9.8-3.9 14.4-2 .7 5-1.2 10.2-5.5 13.5-.8.6-1.7 1.2-2.6 1.6.9.4 1.8.9 2.7 1.4 4.5 3 6.7 8.1 6.3 13.1-4.5 2.2-10.1 2-14.5-1.1-.9-.6-1.6-1.2-2.3-2-.1 1-.3 2-.5 3-1.5 5.2-5.6 8.9-10.5 10.1-3.5-3.6-5-9-3.5-14.1.3-1 .7-1.9 1.1-2.8-1 .2-2 .4-3 .4-5.4.2-10.2-2.6-12.8-6.9 2.4-4.4 7-7.5 12.4-7.7 1 0 2 0 3 .2-.5-.8-1-1.8-1.3-2.7-1.8-5-.7-10.4 2.6-14.2z"/><circle fill="#FFF" cx="1007.7" cy="457.2" r="7.2"/><path fill="#FF644B" d="M872.7 252c4.9.9 9.3 4.3 11.1 9.4.4 1 .6 2 .7 2.9.6-.8 1.4-1.5 2.2-2.1 4.3-3.3 9.8-3.9 14.4-2 .7 5-1.2 10.2-5.5 13.5-.8.6-1.7 1.2-2.6 1.6.9.4 1.8.9 2.7 1.4 4.5 3 6.7 8.1 6.3 13.1-4.5 2.2-10.1 2-14.5-1.1-.9-.6-1.6-1.2-2.3-2-.1 1-.3 2-.5 3-1.5 5.2-5.6 8.9-10.5 10.1-3.5-3.6-5-9-3.5-14.1.3-1 .7-1.9 1.1-2.8-1 .2-2 .4-3 .4-5.4.2-10.2-2.6-12.8-6.9 2.4-4.4 7-7.5 12.4-7.7 1 0 2 0 3 .2-.5-.8-1-1.8-1.3-2.7-1.8-4.9-.7-10.4 2.6-14.2z"/><circle fill="#FFF" cx="881.9" cy="275.2" r="7.2"/><path fill="#FF644B" d="M1118.4 467.9c4.3-2.5 9.9-2.7 14.5 0 .9.5 1.7 1.1 2.5 1.8 0-1 .1-2 .3-3 1.1-5.3 4.9-9.3 9.7-10.8 3.7 3.4 5.6 8.5 4.5 13.8-.2 1-.5 2-.9 2.9.9-.3 1.9-.5 3-.6 5.4-.6 10.3 1.8 13.3 5.9-2 4.6-6.4 8-11.7 8.6-1 .1-2 .1-3 0 .6.8 1.1 1.7 1.5 2.6 2.2 4.9 1.5 10.4-1.5 14.5-5-.5-9.6-3.6-11.8-8.5-.4-.9-.7-1.9-.9-2.9-.6.8-1.3 1.6-2 2.3-4 3.6-9.4 4.6-14.2 3.1-1.1-4.9.5-10.2 4.5-13.8.8-.7 1.6-1.3 2.5-1.8-.9-.3-1.9-.7-2.8-1.2-4.8-3-7.4-7.9-7.5-12.9z"/><circle fill="#FFF" cx="1140.5" cy="479.6" r="7.2"/><path fill="#FF644B" d="M809.1 466.4c4.3-2.5 9.9-2.7 14.5 0 .9.5 1.7 1.1 2.5 1.8 0-1 .1-2 .3-3 1.1-5.3 4.9-9.3 9.7-10.8 3.7 3.4 5.6 8.5 4.5 13.8-.2 1-.5 2-.9 2.9.9-.3 1.9-.5 3-.6 5.4-.6 10.3 1.8 13.3 5.9-2 4.6-6.4 8-11.7 8.6-1 .1-2 .1-3 0 .6.8 1.1 1.7 1.5 2.6 2.2 4.9 1.5 10.4-1.5 14.5-5-.5-9.6-3.6-11.8-8.5-.4-.9-.7-1.9-.9-2.9-.6.8-1.3 1.6-2 2.3-4 3.6-9.4 4.6-14.2 3.1-1.1-4.9.5-10.2 4.5-13.8.8-.7 1.6-1.3 2.5-1.8-.9-.3-1.9-.7-2.8-1.2-4.8-3-7.5-7.9-7.5-12.9z"/><circle fill="#FFF" cx="831.1" cy="478.1" r="7.2"/><path d="M1047.1 627.9c.2-3 2-5.8 4.9-7.2.6-.3 1.1-.5 1.7-.6-.5-.3-1-.7-1.4-1.2-2.2-2.3-2.9-5.6-2-8.5 2.9-.7 6.1.1 8.3 2.5.4.5.8.9 1.1 1.4.2-.6.4-1.1.7-1.7 1.5-2.8 4.4-4.5 7.4-4.5 1.6 2.6 1.8 5.9.2 8.7-.3.5-.6 1-1 1.5.6 0 1.2 0 1.8.1 3.2.6 5.6 2.8 6.6 5.7-2 2.3-5 3.5-8.2 2.9-.6-.1-1.2-.3-1.7-.5.2.6.3 1.2.4 1.8.4 3.2-1 6.2-3.3 8-2.8-1.2-4.9-3.7-5.3-6.9-.1-.6-.1-1.2 0-1.8-.5.4-1 .7-1.6.9-2.9 1.5-6.2 1.1-8.6-.6zm93.4 125.3c2.2-2 5.4-2.9 8.5-1.9.6.2 1.1.4 1.7.7-.1-.6-.2-1.2-.2-1.8 0-3.2 1.7-6.1 4.2-7.6 2.6 1.5 4.4 4.3 4.5 7.5 0 .6 0 1.2-.2 1.8.5-.3 1.1-.6 1.6-.8 3-1 6.3-.3 8.5 1.7-.6 2.9-2.7 5.5-5.7 6.5-.6.2-1.2.3-1.8.4.4.4.9.8 1.2 1.3 1.9 2.6 2.2 5.9 1 8.6-3 .4-6.1-.8-8-3.4-.4-.5-.7-1-.9-1.6-.2.5-.5 1.1-.9 1.6-1.9 2.6-4.9 3.9-7.9 3.6-1.3-2.7-1.1-6 .8-8.7.4-.5.8-1 1.2-1.4-.6-.1-1.2-.2-1.8-.4-3-.7-5.2-3.2-5.8-6.1zm-249.6-209c3-.1 6 1.3 7.7 4 .3.5.6 1.1.8 1.6.3-.5.6-1 1-1.5 2.1-2.5 5.2-3.5 8.2-3 1 2.8.6 6.1-1.5 8.6-.4.5-.8.9-1.3 1.3.6.1 1.2.3 1.7.5 3 1.2 5 3.9 5.4 6.8-2.4 1.9-5.6 2.5-8.6 1.3-.6-.2-1.1-.5-1.6-.8.1.6.1 1.2.1 1.8-.2 3.2-2.1 5.9-4.8 7.2-2.5-1.7-4.1-4.6-3.9-7.8 0-.6.1-1.2.3-1.8-.5.3-1.1.5-1.7.6-3.1.8-6.3-.2-8.4-2.3.8-2.9 3.1-5.3 6.2-6.1.6-.2 1.2-.2 1.8-.3-.4-.4-.8-.9-1.1-1.4-1.7-2.7-1.7-6-.3-8.7zm58.4-129.7c2 2.3 2.7 5.5 1.7 8.5-.2.6-.5 1.1-.8 1.6.6-.1 1.2-.2 1.8-.2 3.2 0 6 1.8 7.5 4.5-1.5 2.6-4.4 4.3-7.6 4.2-.6 0-1.2-.1-1.8-.2.3.5.5 1.1.7 1.7.9 3.1.1 6.3-1.9 8.5-2.9-.7-5.4-2.8-6.4-5.9-.2-.6-.3-1.2-.4-1.8-.4.4-.9.8-1.4 1.2-2.6 1.9-5.9 2-8.7.8-.3-3 1-6 3.7-7.9.5-.4 1-.7 1.6-.9-.5-.3-1.1-.6-1.6-.9-2.6-1.9-3.8-5-3.4-8 2.8-1.2 6.1-.9 8.6 1 .5.4.9.8 1.3 1.2.1-.6.2-1.2.4-1.8 1.2-2.9 3.7-5 6.7-5.6zM836.2 275.9c-2.5 1.6-5.8 1.9-8.7.4-.6-.3-1.1-.6-1.5-1 0 .6 0 1.2-.1 1.8-.5 3.2-2.7 5.7-5.5 6.7-2.3-1.9-3.6-5-3.1-8.1.1-.6.3-1.2.5-1.8-.6.2-1.1.4-1.8.5-3.2.5-6.2-.8-8.1-3.2 1.1-2.8 3.6-4.9 6.8-5.4.6-.1 1.2-.1 1.8-.1-.4-.5-.7-1-1-1.5-1.4-2.9-1.1-6.2.5-8.7 3 .2 5.8 1.9 7.3 4.8.3.6.5 1.1.6 1.7.3-.5.7-1 1.2-1.4 2.3-2.3 5.5-3 8.4-2.2.8 2.9 0 6.1-2.3 8.4-.4.4-.9.8-1.4 1.1.6.2 1.1.4 1.7.7 2.9 1.5 4.5 4.3 4.7 7.3zm135.8 204c-.6 2.9-2.7 5.5-5.8 6.5-.6.2-1.2.3-1.8.4.4.4.9.8 1.2 1.3 1.9 2.6 2.2 5.9 1 8.6-3 .3-6.1-.9-8-3.5-.4-.5-.7-1-.9-1.6-.2.5-.5 1.1-.9 1.6-1.9 2.6-4.9 3.9-7.9 3.6-1.2-2.7-1-6 .9-8.7.4-.5.8-1 1.2-1.4-.6-.1-1.2-.2-1.8-.4-3.1-1-5.2-3.5-5.9-6.4 2.2-2 5.4-2.8 8.5-1.9.6.2 1.1.4 1.7.7-.1-.6-.2-1.2-.2-1.8 0-3.2 1.7-6 4.3-7.6 2.6 1.5 4.4 4.3 4.4 7.5 0 .6-.1 1.2-.2 1.8.5-.3 1.1-.6 1.7-.7 3-.8 6.2 0 8.5 2zM829.2 374.3c-.6 2.9-2.7 5.5-5.8 6.5-.6.2-1.2.3-1.8.4.4.4.9.8 1.2 1.3 1.9 2.6 2.2 5.9 1 8.6-3 .3-6.1-.9-8-3.5-.4-.5-.7-1-.9-1.6-.2.5-.5 1.1-.9 1.6-1.9 2.6-4.9 3.9-7.9 3.6-1.2-2.7-1-6 .9-8.7.4-.5.8-1 1.2-1.4-.6-.1-1.2-.2-1.8-.4-3.1-1-5.2-3.5-5.9-6.4 2.2-2 5.4-2.8 8.5-1.9.6.2 1.1.4 1.7.7-.1-.6-.2-1.2-.2-1.8 0-3.2 1.7-6 4.3-7.6 2.6 1.5 4.4 4.3 4.4 7.5 0 .6-.1 1.2-.2 1.8.5-.3 1.1-.6 1.7-.7 3-.8 6.2 0 8.5 2zm254.7 421.5c8.3-6 13.7-14.5 16-23.7-9.5-.7-19.2 1.8-27.5 7.7-8.3 6-13.7 14.5-16 23.7 9.5.8 19.2-1.7 27.5-7.7z" fill="#46466E"/><path fill="#281E32" d="M1105.3 800.2c1.6-10.1-.6-19.9-5.5-28.1-7.2 6.2-12.4 14.8-14 24.9s.6 19.9 5.5 28.1c7.3-6.1 12.4-14.8 14-24.9z"/><path fill="#46466E" d="M685.9 372.1c3.8-9.5 3.9-19.6.8-28.6-8.4 4.4-15.3 11.7-19.1 21.2s-3.9 19.6-.8 28.6c8.3-4.4 15.2-11.7 19.1-21.2z"/><path fill="#281E32" d="M706.3 364.4c-4-9.4-11.1-16.6-19.6-20.8-2.8 9.1-2.5 19.1 1.5 28.5s11.1 16.6 19.6 20.8c2.8-9.1 2.5-19.1-1.5-28.5zm235.1 354c5.4-8.7 7.2-18.6 5.9-28-9 2.9-17.1 8.9-22.6 17.5-5.4 8.7-7.2 18.6-5.9 28 9.1-2.9 17.2-8.8 22.6-17.5zm-89.7-157.1c4-9.4 4.4-19.5 1.6-28.5-8.5 4.2-15.6 11.4-19.7 20.7-4 9.4-4.4 19.5-1.6 28.5 8.6-4.1 15.7-11.3 19.7-20.7z"/><path fill="#46466E" d="M884.4 595.2c-3.7-9.5-10.5-16.9-18.9-21.5-3.1 9-3.2 19 .5 28.6 3.7 9.5 10.5 16.9 18.9 21.5 3.2-9 3.2-19.1-.5-28.6z"/><path fill="#B39F78" d="M1202.1 585.1l-125.9-100.3-13.8 13.8 53.2 53.2H967.9v22.1l167.9 11.2 19.4 61c8 25.2 23.8 47.2 45.2 62.8l1.8 1.3-.1-125.1z"/><path fill="#EFDB9F" d="M967.9 551.8c-4.3 1.8-7.3 6.1-7.3 11 0 5 3 9.2 7.3 11 4.3-1.8 7.3-6.1 7.3-11s-3.1-9.1-7.3-11zm108.3-67c-3.8-1.5-8.4-.8-11.5 2.3-3.1 3.1-3.9 7.7-2.3 11.5 3.8 1.5 8.4.8 11.5-2.3 3-3.1 3.8-7.6 2.3-11.5zm87.6 60.7c-2.8 0-5.1 2.1-5.3 4.9-4 43.6-11.2 83.4-21.2 116.5-15.2 49.9-35.3 78.5-55.2 78.5s-40.1-28.6-55.2-78.5c-10-33-17.2-72.9-21.2-116.5-.3-2.8-2.6-4.9-5.3-4.9h-.1c-3.2 0-5.6 2.7-5.3 5.9 4 44.3 11.4 84.9 21.6 118.6 8 26.4 17.4 47.2 27.9 61.9 11.6 16.2 24.3 24.4 37.7 24.4 13.4 0 26.1-8.2 37.7-24.4 10.5-14.7 19.9-35.5 27.9-61.9 10.2-33.7 17.6-74.3 21.6-118.6.3-3.2-2.2-5.9-5.3-5.9h-.3z"/><path fill="#EFDB9F" d="M1025.5 545.5c-2.9 0-5.2 2.1-5.4 4.9-.9 10-2 19.8-3.3 29.4-.4 3.2 2.1 6 5.3 6h.1c2.7 0 5-2 5.3-4.7 1.3-9.7 2.4-19.7 3.3-29.9.3-3-2.2-5.7-5.3-5.7z"/></svg>