<svg xmlns="http://www.w3.org/2000/svg" viewBox="0 0 383.4 382.3"><path fill="#B39F78" d="M162.7 282.7l-50.2-25-32 64.1-27-44.4 31.7-56c8.1-14.3 25.7-20.3 40.8-13.8l80.9 34.4-44.2 40.7z"/><path fill="#EFDB9F" d="M80.6 321.8l-23.5-50.7L0 275.2z"/><circle fill="#46466E" cx="70.1" cy="299.1" r="9"/><path fill="#EFDB9F" d="M83.4 221.6c.1.4.3.8.6 1.1 7.3 6.7 17.4 9.6 27.1 7.6 10.5-2.1 19.1-9.4 22.8-19.5.4-1-.1-2.2-1.2-2.6-1-.4-2.2.1-2.6 1.2-3.3 8.8-10.7 15.1-19.9 16.9-8.4 1.7-17.3-.8-23.6-6.6-.8-.7-2.1-.7-2.8.1-.3.5-.5 1.2-.4 1.8z"/><path fill="#B39F78" d="M273.6 262l17.8 53.2 67.9-22.7L347 343l-62 17.2c-15.9 4.4-32.5-3.8-38.7-19.1l-32.8-81.5 60.1 2.4z"/><path fill="#EFDB9F" d="M359.3 292.4l-19.2 52.4 43.3 37.5z"/><circle fill="#46466E" cx="350.7" cy="315.9" r="9"/><path fill="#EFDB9F" d="M286.5 361.2c.2-.3.3-.7.3-1.2-.4-9.9-5.5-19.1-13.8-24.5-8.9-5.9-20.1-6.8-29.9-2.4-1 .5-1.5 1.6-1 2.6s1.6 1.5 2.6 1c8.5-3.9 18.3-3.1 26 2.1 7.2 4.8 11.6 12.7 12 21.4 0 1.1 1 2 2.1 1.9.8 0 1.4-.4 1.7-.9z"/><path fill="#B39F78" d="M205.4 0h22.2c8.1 0 15 5.7 16.7 13.6l13 62.9-40.8 21.2-40.8-21.2 13-62.9C190.4 5.7 197.3 0 205.4 0z"/><path fill="#EFDB9F" d="M244.7 36c-2 0-3.8.8-5.1 2.1l-9.3-9.1c-1.6-1.6-3.8-2.3-6-2.3h-34.5c-2.3 0-4.4.7-6 2.3l-14.4 14.3 14.4 14.1c1.6 1.6 3.8 2.2 6 2.2h34.5c2.3 0 4.4-.7 6-2.3l9.3-9.2c1.3 1.3 3.1 2.2 5.1 2.2 4 0 7.2-3.2 7.2-7.2 0-3.9-3.3-7.1-7.2-7.1z"/><circle fill="#FF644B" cx="244.7" cy="43.3" r="3.3"/><path fill="#281E32" d="M177.2 43.3c0 .5.2 1 .6 1.4l11.4 11.4c.4.4.9.6 1.4.6s1-.2 1.4-.6c.8-.8.8-2 0-2.8l-10-10 10-10c.8-.8.8-2 0-2.8-.8-.8-2-.8-2.8 0l-11.4 11.4c-.4.3-.6.8-.6 1.4zm10.6 1.4l11.4 11.4c.4.4.9.6 1.4.6s1-.2 1.4-.6c.8-.8.8-2 0-2.8l-10-10 10-10c.8-.8.8-2 0-2.8-.8-.8-2-.8-2.8 0l-11.4 11.4c-.4.4-.6.9-.6 1.4s.2 1 .6 1.4zm10 0l11.4 11.4c.4.4.9.6 1.4.6s1-.2 1.4-.6c.8-.8.8-2 0-2.8l-10-10 10-10c.8-.8.8-2 0-2.8-.8-.8-2-.8-2.8 0l-11.4 11.4c-.4.4-.6.9-.6 1.4s.2 1 .6 1.4zm10 0l11.4 11.4c.4.4.9.6 1.4.6s1-.2 1.4-.6c.8-.8.8-2 0-2.8l-10-10 10-10c.8-.8.8-2 0-2.8-.8-.8-2-.8-2.8 0l-11.4 11.4c-.4.4-.6.9-.6 1.4s.2 1 .6 1.4z"/><path fill="#B39F78" d="M110.2 107.1L92.5 51.9l5.2-.9L89 36.3l5.5-12.9c.9-2.1.7-4.5-.5-6.4l-6.1-9.9c-1.7-2.7-4.9-3.9-8-3l-19.6 6c-7.6 2.3-11.1 11-7.4 17.9l5.3 9.9-1.8 20.2 6-1.1 11 54.5c3.9 19.1 21.1 32.5 40.5 31.6l28.1-1.3V98.1l-31.8 9z"/><path d="M95.9 44.3c-.2-1.1-1.2-1.8-2.3-1.6l-36.9 6.4c-.3.1-.6.2-.8.3-.6.4-.9 1.2-.8 2 .2 1.1 1.2 1.8 2.3 1.6l36.9-6.4c1-.2 1.8-1.2 1.6-2.3zm5.6 72.1c-7.6-7.6-18.4-10.8-28.9-8.6-.4.1-.7.3-1 .5-.5.5-.7 1.1-.5 1.8.2 1.1 1.3 1.8 2.4 1.6 9.2-1.9 18.7.9 25.3 7.6 6.3 6.3 9.1 14.9 7.8 23.6-.2 1.1.6 2.1 1.7 2.3 1.1.2 2.1-.6 2.3-1.7 1.4-10.1-1.9-20-9.1-27.1zm186.1-39.9H149.3c-6.3 0-11.3 5.1-11.3 11.3v200.3c0 6.3 5.1 11.3 11.3 11.3h138.3c6.3 0 11.3-5.1 11.3-11.3V87.8c0-6.2-5-11.3-11.3-11.3z" fill="#EFDB9F"/><path fill="#FF644B" d="M208.6 151.6l9.9 7.4 9.9-7.4c17.1-12.8 41.5-.6 41.5 20.8v.7c0 8.2-3.9 15.9-10.5 20.8l-41 30.6-41-30.6c-6.6-4.9-10.5-12.6-10.5-20.8v-.7c.1-21.3 24.5-33.6 41.7-20.8z"/><g fill="#46466E"><path d="M287.6 85.7h-37.3c-1.1 0-2 .9-2 2s.9 2 2 2H286v196H151v-196h31.7c1.1 0 2-.9 2-2s-.9-2-2-2h-33.5c-1.1 0-2.2 1-2.2 2.1v200.3c0 .5.3.8.7 1.2s1 .4 1.5.4h138.3c1.1 0 2.4-.4 2.4-1.5V87.8c.1-1.1-1.2-2.1-2.3-2.1z"/><circle cx="216.5" cy="97.7" r="9.6"/></g><path fill="#281E32" d="M354.1 265.4c1.9 0 3.8-1.1 4.6-3 1.1-2.5-.1-5.5-2.7-6.6L65.1 132.4c-2.5-1.1-5.5.1-6.6 2.7-1.1 2.5.1 5.5 2.7 6.6L352.1 265c.7.2 1.3.4 2 .4z"/><circle fill="#FF644B" cx="58.5" cy="135" r="8.9"/><path fill="#EFDB9F" d="M59.5 135.5l-1.2-3.8c-4.6-14.1-18.3-23.1-33.1-21.6l-20.6 2.1 12.8 16.3c9.2 11.6 25.2 15.3 38.5 8.8l3.6-1.8z"/><path fill="#B39F78" d="M319.8 106.7L299 87.8v45l-31.5 59.6-5.2-2.5-1.7 17-4.1-.9c-3.1-.7-6.3 0-8.8 2l-1.6 1.2 7.4 3.2c2.3 1 3 3.9 1.4 5.9l-3.5 4.1-6.6-2.8-.3 7.7c-.2 5.6 3.2 10.6 8.5 12.4l15.6 5.3c7.5 2.6 15.5-2.4 16.5-10.2l1.5-11.2 13.3-15.3-5.6-2.7 31.7-47.7c10.9-16.4 8.2-38.1-6.2-51.2z"/><path d="M295.2 215.6c.7 0 1.5-.4 1.8-1.1.5-1 .1-2.2-.9-2.7l-33.7-16.4c-1-.5-2.2-.1-2.7.9s-.1 2.2.9 2.7l33.7 16.4c.3.1.6.2.9.2zm29.7-54.2c.7 0 1.3-.3 1.7-.9.6-.9.4-2.2-.6-2.8-7.9-5.2-12.5-13.8-12.5-23.2 0-8.8 4.1-17 11.2-22.3.9-.7 1.1-1.9.4-2.8-.7-.9-1.9-1.1-2.8-.4-8.1 6.1-12.8 15.3-12.8 25.5 0 10.7 5.4 20.7 14.3 26.6.4.2.8.3 1.1.3z" fill="#EFDB9F"/></svg>