<svg xmlns="http://www.w3.org/2000/svg" viewBox="0 0 272.1 272.1"><path fill="#FF644B" d="M184.4 38.8c.7.4 1.3.8 1.9 1.4l.1.1c2.8 2.9 2.8 7.6-.1 10.5-2.2 2.2-5.3 2.7-8 1.7l-76-22.1C87.8 39.1 74 49.7 61.4 62.3 56 67.7 51 73.2 46.4 79l72.6 25.1c1.1.4 2.1 1 2.8 1.8l.1.1c2.9 2.9 2.8 7.6-.1 10.5-1.9 1.9-4.6 2.6-7.1 2l-87-12.4c-9.9 17.2-17.1 35.5-21.7 54.2l47.4 9.2c1.5.3 2.8 1 3.9 2.1l.1.1c2.9 2.9 2.9 7.7 0 10.6-1.7 1.7-3.9 2.4-6.1 2.2H1.6C-1.8 211.4.1 238.7 7.1 265c26.3 7 53.7 8.8 80.5 5.5v-49.7c-.2-2.2.5-4.4 2.2-6.1 2.9-2.9 7.7-2.9 10.6 0l.1.1c1 1 1.8 2.4 2.1 3.9l9.2 47.4c18.8-4.6 37.1-11.8 54.2-21.7l-12.4-87c-.6-2.5.1-5.2 2-7.1 2.9-2.9 7.6-2.9 10.5-.1l.1.1c.8.8 1.4 1.7 1.8 2.8l25.1 72.6c5.8-4.7 11.3-9.7 16.7-15 12.6-12.6 23.2-26.3 31.9-40.9l-22.1-76c-1.1-2.7-.5-5.9 1.7-8 2.9-2.9 7.6-2.9 10.5-.1l.1.1c.5.5 1 1.2 1.4 1.9l24.7 48.1c15.3-41 17.3-85.8 6.1-127.8-42-11.2-86.8-9.2-127.8 6.1l48.1 24.7z"/><path fill="#46466E" d="M271.4 5.1c-.9-.9-2.4-1-3.4 0l-1-1c.9-.9.9-2.5 0-3.4-.9-.9-2.5-.9-3.4 0L23.1 245.6c-.9.9-.9 2.4 0 3.4.5.5 1.1.7 1.7.7.6 0 1.2-.2 1.7-.7L271.4 8.4c.9-.9.9-2.4 0-3.3z"/></svg>