<svg xmlns="http://www.w3.org/2000/svg" viewBox="0 0 166.6 166.6"><path fill="#FF644B" d="M67.4 25.3l68.6-23c18.2-6.1 35.5 11.2 29.4 29.4l-23 68.6c-13.5 40.3-51.2 67.4-93.7 67.4H0V119c0-42.5 27.1-80.2 67.4-93.7z"/><path fill="#281E32" d="M142 62.3h-34.1l35.6-35.6c.7-.7.7-1.8 0-2.5s-1.8-.7-2.5 0l-35.6 35.6V25.6c0-1-.8-1.8-1.8-1.8s-1.8.8-1.8 1.8v37.7L69.3 95.7V35.4c0-1-.8-1.8-1.8-1.8s-1.8.8-1.8 1.8v64l-32.4 32.4V59.4c0-1-.8-1.8-1.8-1.8s-1.8.8-1.8 1.8v75.9L13.1 152c-.7.7-.7 1.8 0 2.5.4.4.8.5 1.3.5s.9-.2 1.3-.5l16.7-16.7h75.9c1 0 1.8-.8 1.8-1.8s-.8-1.8-1.8-1.8H35.9l32.4-32.4h64c1 0 1.8-.8 1.8-1.8s-.8-1.8-1.8-1.8H71.9l32.4-32.4H142c1 0 1.8-.8 1.8-1.8 0-.9-.8-1.7-1.8-1.7z"/></svg>