<svg xmlns="http://www.w3.org/2000/svg" viewBox="0 0 564 830"><path fill="#FF644B" d="M224.4 546.8c-2.9 0-5.3 2.4-5.4 5.3-.8 70.7-9.5 136.7-24.7 186.8-15.1 49.9-35.3 78.5-55.2 78.5s-40-28.6-55.2-78.5c-15.5-51.3-24.3-119.2-24.7-191.7 0-3-2.4-5.3-5.4-5.3h-.1c-3 0-5.4 2.4-5.4 5.4.4 73.6 9.3 142.6 25.2 194.9 8 26.4 17.4 47.2 27.9 61.8 11.6 16.2 24.3 24.3 37.6 24.3 13.4 0 26-8.2 37.6-24.3 10.5-14.6 19.9-35.4 27.9-61.8 15.5-51.1 24.4-118.2 25.2-189.9 0-3-2.4-5.4-5.4-5.4l.1-.1zm20.8 190.6h-.1c-3 0-5.4-2.4-5.4-5.4V543.3l10.8-1v189.8c0 2.9-2.4 5.3-5.3 5.3z"/><path fill="#281E32" d="M462.6 433.1c-7 0-13.8.6-20.5 1.7-16.7-31.7-50-53.3-88.3-53.3-5.1 0-10.1.4-15 1.1-1.4-57-48.1-102.8-105.5-102.8-15.8 0-30.9 3.5-44.3 9.8C167.6 204.3 91.2 140.9-.3 139.1v471c13.2 44 54.1 76.1 102.4 76.1 50.3 0 92.5-34.7 103.8-81.5 3 .5 6 .7 9.1.7 32.9 0 59.5-26.7 59.5-59.5v-1.6c3.2.2 6.3.4 9.6.4 45.8 0 85.6-25.6 106-63.2h171.3c-22.8-29.5-58.6-48.4-98.8-48.4z"/><path fill="#FF644B" d="M128.4 548.3l45.2 39.7c12 10.5 6.8 30.2-8.9 33.5l-59 12.1c-34.6 7.1-69.9-8.7-87.7-39.3l-20.3-35 35-20.3c30.7-17.7 69.2-14 95.7 9.3z"/><path fill="#EFDB9F" d="M133 617.5l-14.3-24.6 40.5 10.7c.8.2 1.6-.3 1.8-1.1.2-.8-.3-1.6-1.1-1.8L119.4 590l24.6-14.3c.7-.4 1-1.3.5-2-.4-.7-1.3-1-2-.5L115.3 589l-36.8-9.8 43.5-25.3c.7-.4 1-1.3.5-2-.4-.7-1.3-1-2-.5l-46 26.8-36.9-9.8 52-30.2c.7-.4 1-1.3.5-2s-1.3-1-2-.5l-54.6 31.7-18.9-5c-.8-.2-1.6.3-1.8 1.1-.1.4 0 .8.2 1.1s.5.6.9.7l18.9 5 31.7 54.6c.4.7 1.3 1 2 .5.7-.4 1-1.3.5-2l-30.2-52 36.9 9.8 26.8 46c.4.7 1.3 1 2 .5s1-1.3.5-2l-25.3-43.5 36.9 9.8 15.8 27.2c.4.7 1.3 1 2 .5s1-1.5.6-2.2z"/><path fill="#46466E" d="M115.8 678.4l4.7 72.4c1.2 19.2-20 31.5-36.1 21l-60.6-39.9c-35.6-23.4-52.2-67-41.3-108.2L-5 576.5 42.2 589c41.3 10.9 70.9 46.9 73.6 89.4z"/><path fill="#EFDB9F" d="M60.7 741.3l8.8-33.1 25.4 43.7c.5.9 1.6 1.2 2.5.7s1.2-1.6.7-2.5l-25.4-43.7 33.1 8.8c1 .3 2-.3 2.2-1.3s-.3-2-1.3-2.2L70.1 702 47 662.2l58.5 15.5c1 .3 2-.3 2.2-1.3s-.3-2-1.3-2.2l-62-16.4-23.1-39.7 70.1 18.6c1 .3 2-.3 2.2-1.3s-.3-2-1.3-2.2l-73.6-19.5-11.8-20.5c-.5-.9-1.6-1.2-2.5-.7-.4.3-.7.7-.8 1.1-.1.4-.1.9.2 1.4l11.9 20.4L-3.8 689c-.3 1 .3 2 1.3 2.2 1 .3 2-.3 2.2-1.3l18.6-70.1 23.1 39.7-16.4 62c-.3 1 .3 2 1.3 2.2 1 .3 2-.3 2.2-1.3L44 663.9l23 39.9-9.7 36.6c-.3 1 .3 2 1.3 2.2.9.2 1.9-.4 2.1-1.3z"/><circle fill="#FF644B" cx="60.3" cy="242.2" r="20.8"/><path fill="#EFDB9F" d="M58 215.3c-3.1 6.8-8.3 11.9-14.6 14.8-1.9-6.6-1.5-13.9 1.5-20.7 3.1-6.8 8.3-11.9 14.6-14.8 1.9 6.6 1.5 14-1.5 20.7z"/><path fill="#B39F78" d="M64.2 230c-7 2.6-14.3 2.5-20.8.2 3.4-6 8.8-10.9 15.7-13.6 7-2.6 14.3-2.5 20.8-.2-3.4 6-8.8 10.9-15.7 13.6z"/><circle fill="#FF644B" cx="442.9" cy="435.6" r="20.8"/><path fill="#EFDB9F" d="M440.6 408.6c-3.1 6.8-8.3 11.9-14.6 14.8-1.9-6.6-1.5-13.9 1.5-20.7s8.3-11.9 14.6-14.8c1.9 6.7 1.6 14-1.5 20.7z"/><path fill="#B39F78" d="M446.8 423.3c-7 2.6-14.3 2.5-20.8.2 3.4-6 8.8-10.9 15.7-13.6 7-2.6 14.3-2.5 20.8-.2-3.3 6.1-8.7 11-15.7 13.6z"/><path fill="#EFDB9F" d="M52.7 357.6c4.1 6.2 10.1 10.3 16.8 12.2.8-6.8-.7-14-4.9-20.2-4.1-6.2-10.1-10.3-16.8-12.2-.8 6.9.8 14.1 4.9 20.2z"/><path fill="#B39F78" d="M48.9 373.1c7.3 1.5 14.5.1 20.5-3.2-4.3-5.4-10.4-9.4-17.7-10.8-7.3-1.5-14.5-.1-20.5 3.2 4.3 5.4 10.5 9.3 17.7 10.8z"/><path fill="#EFDB9F" d="M312.5 489.5c4.1 6.2 10.1 10.3 16.8 12.2.8-6.8-.7-14-4.9-20.2-4.1-6.2-10.1-10.3-16.8-12.2-.8 6.9.7 14 4.9 20.2z"/><path fill="#B39F78" d="M308.7 504.9c7.3 1.5 14.5.1 20.5-3.2-4.3-5.4-10.4-9.4-17.7-10.8-7.3-1.5-14.5-.1-20.5 3.2 4.3 5.4 10.4 9.4 17.7 10.8z"/><path fill="#EFDB9F" d="M270.8 323.6c-6.2-4.1-10.3-10.1-12.2-16.8 6.8-.8 14 .7 20.2 4.9 6.2 4.1 10.3 10.1 12.2 16.8-6.9.8-14-.8-20.2-4.9z"/><path fill="#B39F78" d="M114 298.2c-4.1 6.2-10.1 10.3-16.8 12.2-.8-6.8.7-14 4.9-20.2 4.1-6.2 10.1-10.3 16.8-12.2.7 6.8-.8 14-4.9 20.2z"/><path fill="#EFDB9F" d="M135.5 225.1c6.2 4.1 10.3 10.1 12.2 16.8-6.8.8-14-.7-20.2-4.9-6.2-4.1-10.3-10.1-12.2-16.8 6.9-.8 14.1.8 20.2 4.9zm238.6 195.5c-4.1 6.2-10.1 10.3-16.8 12.2-.8-6.8.7-14 4.9-20.2 4.1-6.2 10.1-10.3 16.8-12.2.8 6.8-.8 14-4.9 20.2z"/><g fill="#FF644B"><path d="M66.8 392.1l11 23.6-11 23.6c-13.3 28.6 21.4 55.5 45.8 35.4l71.5-59-71.5-59c-24.5-20.1-59.2 6.8-45.8 35.4z"/><path d="M160.4 533l23.6-11 23.6 11c28.6 13.3 55.5-21.4 35.4-45.8l-59-71.5-59 71.5c-20.1 24.4 6.7 59.1 35.4 45.8zm129.8-117.3l11-23.6c13.3-28.6-21.4-55.5-45.8-35.4l-71.5 59 71.5 59c24.4 20.1 59.1-6.8 45.8-35.4l-11-23.6z"/><path d="M207.6 298.5l-23.6 11-23.6-11c-28.6-13.3-55.5 21.4-35.4 45.8l59 71.5 59-71.5c20.1-24.4-6.8-59.1-35.4-45.8z"/></g><g fill="#EFA950"><path d="M102.4 399.3l7.7 16.4-7.7 16.5c-9.3 19.9 14.9 38.6 31.9 24.6l49.8-41.1-49.8-41.1c-17-13.9-41.2 4.8-31.9 24.7z"/><path d="M167.6 497.3l16.4-7.7 16.4 7.7c19.9 9.3 38.6-14.9 24.6-31.9l-41.1-49.8-41.1 49.8c-13.9 17.1 4.8 41.2 24.8 31.9zm90.3-81.6l7.7-16.4c9.3-19.9-14.9-38.6-31.9-24.6l-49.8 41.1 49.8 41.1c17 14 41.1-4.7 31.9-24.6l-7.7-16.6z"/><path d="M200.4 334.1l-16.4 7.7-16.4-7.7C147.7 324.8 129 349 143 366l41.1 49.8 41.1-49.8c13.9-17-4.9-41.1-24.8-31.9z"/></g><circle fill="#FF644B" cx="184" cy="463.8" r="20.3"/><path fill="#EFDB9F" d="M231.9 430.9l-7.3-7.6 18-18.4h-23.4c-4.5-15-18.6-26.2-35.2-26.2s-30.7 11.2-35.2 26.2h-23.4l18 18.4-7.3 7.6h14.3c1.4 3 3 5.8 5.2 8.4l-.1-.2v15.7c0 5.1 4.4 9 9.6 9h9.7c5.1 0 9.3-4.2 9.3-9.3 0 5.1 4.2 9.3 9.3 9.3h9.7c5.1 0 9.4-3.9 9.4-9v-15.7c2-2.6 3.9-5.3 5.2-8.3h14.2v.1z"/><path fill="#281E32" d="M168.6 421.7h30.7c4.6 0 6.8 5.5 3.6 8.7l-15.3 15.3c-2 2-5.2 2-7.2 0l-15.3-15.3c-3.3-3.1-1-8.7 3.5-8.7z"/><path fill="#FF644B" d="M200 382.7c3.8-5.3 10-8.8 17-8.8h3.7v34.3h-.8c-2.3-11.3-9.8-20.6-19.9-25.5zm-32 0c-3.8-5.3-10-8.8-17-8.8h-3.7v34.3h.8c2.3-11.3 9.8-20.6 19.9-25.5z"/><circle fill="#46466E" cx="212.8" cy="405.8" r="12.2"/><circle fill="#46466E" cx="155.2" cy="405.8" r="12.2"/><circle fill="#281E32" cx="155.2" cy="405.8" r="6.4"/><circle fill="#281E32" cx="212.8" cy="405.8" r="6.4"/><path fill="#B39F78" d="M-42.3 236.5c-.7-.4-1.3-.8-1.9-1.4l-.1-.1c-2.8-2.9-2.8-7.6.1-10.5 2.2-2.2 5.4-2.7 8.1-1.7L40 244.9c14.6-8.7 28.4-19.4 41.1-32 5.4-5.4 10.4-11 15.1-16.8l-72.8-25.2c-1.1-.4-2.1-1-2.9-1.8l-.1-.1c-2.9-2.9-2.9-7.7.1-10.6 1.9-1.9 4.6-2.6 7.1-2l87.2 12.4c9.9-17.2 17.2-35.6 21.8-54.4L89 105.3c-1.5-.3-2.9-1-3.9-2.1H85c-2.9-2.9-2.9-7.7 0-10.6 1.7-1.7 3.9-2.4 6.1-2.2H141c3.4-26.9 1.5-54.4-5.5-80.8-26.4-7-53.8-8.9-80.8-5.5V54c.2 2.2-.5 4.4-2.2 6.1-2.9 2.9-7.7 2.9-10.6 0l-.1-.1c-1-1-1.8-2.4-2.1-3.9L30.5 8.5C11.7 13.2-6.6 20.4-23.8 30.3l12.4 87.2c.6 2.5-.1 5.2-2 7.1-2.9 2.9-7.6 2.9-10.6.1l-.1-.1c-.8-.8-1.4-1.7-1.8-2.9l-25.2-72.8c-5.8 4.7-11.4 9.7-16.8 15.1-12.6 12.6-23.2 26.4-32 41.1l22.1 76.2c1.1 2.7.5 5.9-1.7 8.1-2.9 2.9-7.6 2.9-10.5.1l-.1-.1c-.5-.5-1-1.2-1.4-1.9l-24.8-48.2c-15.3 41.1-17.3 86-6.1 128.2 42.1 11.2 87.1 9.2 128.2-6.1l-48.1-24.9z"/><path fill="#46466E" d="M-129.6 270.3c.9.9 2.4 1 3.4 0l1 1c-.9.9-.9 2.5 0 3.4s2.5.9 3.4 0L119.4 29c.9-.9.9-2.4 0-3.4-.5-.5-1.1-.7-1.7-.7s-1.2.2-1.7.7l-245.6 241.3c-.9.9-.9 2.5 0 3.4z"/></svg>