<svg xmlns="http://www.w3.org/2000/svg" viewBox="0 0 499.9 395.8"><path fill="#FF644B" d="M140.5 305.5c-2.2 0-4.3.2-6.4.5-8-33-37.8-57.6-73.3-57.6-24.9 0-47 12.1-60.7 30.7L0 0c.7 0 1.3.1 2 .1C26.5.1 46.4 20 46.4 44.5s19.9 44.4 44.4 44.4 44.4 19.9 44.4 44.4 19.9 44.4 44.4 44.4 44.4 19.9 44.4 44.4 19.9 44.4 44.4 44.4 44.4 19.9 44.4 44.4l-172.3-5.4z"/><path fill="#281E32" d="M267.3 310.8c-3.4-4-7.3-7.8-12.3-11v-4h-5.3c-8.7-5-18.7-7.6-29.4-7.6-3.3 0-6.6.3-9.8.9-8-15.1-23.8-25.3-42-25.3-2.4 0-4.8.2-7.1.5-.7-27.1-22.9-48.9-50.2-48.9-7.5 0-14.7 1.7-21.1 4.6-10.2-40.6-46.5-70.8-90-71.6v247.4h255v-85h12.2z"/><path fill="#EFA950" d="M163.1 395.7c5-12.7 17.4-21.7 31.9-21.7 1 0 2 0 3 .1 1-19.8 17.4-35.6 37.5-35.6h.8c2-36.5 32.2-65.4 69.2-65.4 30.7 0 56.7 19.9 65.8 47.5 8-5 17.4-7.9 27.5-7.9 27.7 0 50.3 21.7 51.7 49.1 1.4-.1 2.7-.2 4.1-.2 21.5 0 39.7 14.4 45.4 34H163.1z"/><path fill="#FF644B" d="M78.2 312.9c-4.6-3.1-7.5-8.5-7-14.5.1-1.1.3-2.3.6-3.3-1 .5-2 .9-3.2 1.1-5.8 1.4-11.6-.5-15.5-4.5 1.5-5.3 5.8-9.7 11.6-11.2 1.1-.3 2.2-.4 3.3-.5-.8-.8-1.5-1.7-2.1-2.7-3.1-5.1-3.1-11.2-.5-16.1 5.6-.2 11.1 2.5 14.2 7.6.6 1 1.1 2 1.5 3 .5-1 1.1-1.9 1.9-2.8 3.8-4.6 9.7-6.5 15.1-5.5 1.9 5.2 1 11.3-2.8 15.9-.7.9-1.6 1.7-2.4 2.3 1.1.2 2.2.5 3.2.9 5.5 2.2 9.1 7.2 9.9 12.7-4.4 3.4-10.4 4.5-15.9 2.2-1.1-.4-2.1-1-3-1.6.2 1.1.2 2.2.1 3.4-.4 6.2-4 11.2-9 13.6z"/><circle fill="#FFF" cx="79.2" cy="285.3" r="8"/><path fill="#FF644B" d="M129.9 365.7c-.1-5.6 2.7-11 7.8-14.1 1-.6 2-1.1 3-1.4-1-.5-1.9-1.2-2.8-1.9-4.5-3.9-6.3-9.8-5.3-15.2 5.3-1.8 11.3-.9 15.8 3 .9.8 1.6 1.6 2.3 2.5.2-1.1.5-2.2 1-3.2 2.3-5.5 7.3-9 12.8-9.7 3.3 4.4 4.3 10.5 2 16-.4 1.1-1 2-1.6 2.9 1.1-.1 2.2-.2 3.4-.1 5.9.5 10.8 4.2 13.2 9.2-3.2 4.6-8.6 7.3-14.6 6.8-1.1-.1-2.2-.3-3.3-.6.5 1 .8 2.1 1.1 3.2 1.3 5.8-.6 11.6-4.7 15.4-5.3-1.6-9.6-6-11-11.8-.3-1.1-.4-2.2-.4-3.3-.8.8-1.7 1.4-2.7 2-5 3-11.1 3-16 .3z"/><circle fill="#FFF" cx="153.1" cy="350.7" r="8"/><path fill="#46466E" d="M125.5 278.4c1.9-2.7 5.2-4.3 8.8-4 .7.1 1.3.2 2 .4-.3-.6-.5-1.2-.6-1.9-.8-3.5.5-6.9 2.9-9.2 3.2 1 5.7 3.6 6.5 7.1.1.7.2 1.3.2 2 .5-.4 1-.8 1.6-1.2 3.1-1.8 6.7-1.7 9.6-.1 0 3.3-1.7 6.6-4.8 8.4-.6.3-1.2.6-1.8.8.6.3 1.1.7 1.6 1.2 2.7 2.4 3.7 5.9 3 9.1-3.2 1-6.8.4-9.4-1.9-.5-.5-1-1-1.4-1.5-.1.6-.3 1.3-.6 1.9-1.4 3.3-4.4 5.3-7.8 5.7-2-2.7-2.5-6.3-1.1-9.6.3-.6.6-1.2 1-1.7-.7.1-1.3.1-2 0-3.4-.3-6.3-2.5-7.7-5.5zM41.3 229.7c-.9-3.2-.1-6.8 2.4-9.3.5-.5 1-.9 1.5-1.3-.6-.2-1.3-.4-1.9-.7-3.2-1.6-5.1-4.7-5.4-8 2.8-1.8 6.4-2.2 9.6-.6.6.3 1.2.7 1.7 1.1 0-.7 0-1.3.1-2 .5-3.5 2.9-6.3 6-7.6 2.6 2.1 4.1 5.4 3.6 8.9-.1.7-.3 1.3-.5 2 .6-.2 1.3-.4 1.9-.5 3.5-.6 6.9.8 9 3.3-1.2 3.1-3.9 5.6-7.4 6.2-.7.1-1.3.2-2 .1.4.5.8 1.1 1.1 1.7 1.7 3.2 1.4 6.8-.4 9.6-3.3-.1-6.5-2-8.1-5.1-.3-.6-.6-1.2-.7-1.9-.4.6-.8 1.1-1.2 1.6-2.5 2.4-6.1 3.3-9.3 2.5z"/></svg>