<svg id="red_flower" xmlns="http://www.w3.org/2000/svg" viewBox="0 0 12.238 12.845"><path fill="#FF644B" d="M4.666 12.845c-.9-1-1.257-2.44-.81-3.814.085-.263.197-.512.33-.743-.26.055-.532.085-.81.085-1.443 0-2.702-.785-3.377-1.95.673-1.165 1.932-1.95 3.376-1.95.278 0 .55.03.81.085-.133-.23-.245-.48-.33-.744C3.408 2.44 3.765 1 4.665 0c1.317.28 2.452 1.236 2.898 2.61.086.263.14.53.17.795.18-.198.38-.38.605-.545 1.167-.848 2.646-.954 3.877-.407.14 1.34-.418 2.714-1.586 3.562-.224.163-.46.298-.704.407.244.11.48.244.705.407 1.17.847 1.726 2.222 1.587 3.56-1.23.547-2.71.442-3.878-.406-.226-.163-.428-.346-.606-.544-.03.266-.084.532-.17.796-.446 1.373-1.58 2.328-2.898 2.61z"/><circle fill="#FFF" cx="6.523" cy="6.423" r="1.932"/></svg>