<svg xmlns="http://www.w3.org/2000/svg" viewBox="0 0 659 830"><path fill="#FF644B" d="M557.7 533.2l-30.9-21.1c-4.1-2.8-8.5-5.2-13-7.1.9-1.1 1.8-2.3 2.7-3.5H307.2c-3.3 1.4-6.5 3.1-9.6 5l-32 19.5 30.9 21.1c4.1 2.8 8.5 5.2 13 7.1-3.1 3.8-5.9 7.9-8.3 12.3l-17.8 32.9 37.3 2.9c5 .4 10 .3 14.8-.3-.8 4.8-1.2 9.8-1 14.8l1 37.4 33.8-16.2c4.5-2.2 8.8-4.8 12.7-7.7 1.7 4.6 3.9 9.1 6.5 13.3l19.6 31.9 21.1-30.9c2.8-4.1 5.2-8.5 7.1-13 3.8 3.1 7.9 5.9 12.3 8.3l32.9 17.8 2.9-37.3c.4-5 .3-10-.3-14.8 4.8.8 9.8 1.2 14.8 1l37.4-1-16.2-33.8c-2.2-4.5-4.8-8.8-7.7-12.7 4.6-1.7 9.1-3.9 13.3-6.5l32-19.4z"/><path fill="#281E32" d="M562.5 377.3h95.9V100.1h-1c-52.5 0-95 42.5-95 95l.1 182.2z"/><path fill="#FF644B" d="M584.4 204.4l15.1-38.4c-.7-.5-1.5-.9-2.2-1.4l-31-18.7-31.1 17.8 11.6-29.6-37.2-22.4-17.6 10 7.1-18.1c-9.8-9-72.7-66.8-72.7-66.8l20.6 96.6 19.3 3.1-17.6 10 .4 43.5 31.4 5-31.1 17.8.4 36.2c0 .9 0 1.7.1 2.6l40.8 6.5-33.8 19.3c18.5 34.8 68.8 45.8 99.5 13l9.3-10 13.3-3c43.8-9.8 59.9-58.8 39.3-92.3l-33.9 19.3z"/><path fill="#281E32" d="M580.6 300.2L544 236.6l28.1-66.5c.5-1.1 0-2.4-1.2-2.9-1.2-.6-2.5-.1-3 1.1l-27 62.9-36.6-63.6 13.8-32.7c.5-1.1 0-2.4-1.2-2.9-1.1-.5-2.4 0-2.9 1.2l-12.6 29.2-35.1-60.9c-.7-1.3-2.3-1.7-3.5-1-1.3.7-1.7 2.3-1 3.5l34.6 61-31.4-3.9c-1.2-.2-2.3.7-2.5 1.9-.2 1.2.7 2.3 1.9 2.5l34.9 4.6 36.3 64-67.8-8.6c-1.2-.1-2.3.7-2.5 2-.2 1.3.7 2.4 1.9 2.6l71.5 9.5 36.3 63.9c.9 1.6 2.9 2.1 4.6 1.2 1.5-.9 2-3 1-4.5z"/><path fill="#EFA950" d="M370 401.6c3.2 0 6.4.1 9.6.4v-1.6c0-32.9 26.7-59.5 59.5-59.5 3.1 0 6.2.2 9.1.7 11.4-46.8 53.5-81.5 103.8-81.5 59 0 106.9 47.9 106.9 106.9v106.9H259.5c18.6-42.6 61.1-72.3 110.5-72.3z"/><path fill="#281E32" d="M656.9 368.4c-4.9 7.5-8.9 15.4-12.2 23.5-6.9-5.4-14.3-10.2-22.3-14.3l-59.5-30.4-3.4 66.7c-.5 8.9 0 17.8 1.2 26.4-8.7-1.2-17.5-1.7-26.4-1.2l-66.7 3.4L498 502c4.1 8 8.9 15.4 14.3 22.3-8.1 3.3-16 7.3-23.5 12.2l-56 36.3 56 36.3c7.5 4.9 15.4 8.9 23.5 12.2-5.4 6.9-10.2 14.3-14.3 22.3l-30.4 59.6 66.7 3.4c8.9.5 17.8 0 26.4-1.2-1.2 8.7-1.7 17.5-1.2 26.4l3.4 66.7 59.5-30.4c8-4.1 15.4-8.9 22.3-14.3 3.3 8.1 7.3 16 12.2 23.5l2.1 3.2V365.2l-2.1 3.2z"/><path fill="#FF644B" d="M562.5 616.3c4.9.9 9.3 4.3 11.1 9.4.4 1 .6 2 .7 2.9.6-.8 1.4-1.5 2.2-2.1 4.3-3.3 9.8-3.9 14.4-2 .7 5-1.2 10.2-5.5 13.4-.8.6-1.7 1.2-2.6 1.6.9.4 1.8.9 2.7 1.4 4.4 3 6.7 8.1 6.3 13.1-4.5 2.2-10 2-14.5-1.1-.9-.6-1.6-1.2-2.3-2-.1 1-.3 2-.5 3-1.5 5.2-5.6 8.9-10.5 10-3.5-3.6-5-8.9-3.5-14.1.3-1 .7-1.9 1.1-2.8-1 .2-2 .4-3 .4-5.4.2-10.2-2.6-12.8-6.9 2.4-4.4 7-7.5 12.4-7.6 1 0 2 0 3 .2-.5-.8-1-1.8-1.3-2.7-1.8-4.7-.6-10.2 2.6-14.1z"/><circle fill="#FFF" cx="571.7" cy="639.5" r="7.2"/><path fill="#FF644B" d="M642.8 412.1c-2.5 4.4-7.2 7.3-12.5 7.3-1 0-2-.1-3-.3.5.9.9 1.8 1.2 2.8 1.7 5.1.4 10.5-3 14.2-4.9-1-9.2-4.6-10.8-9.7-.3-1-.5-2-.6-3-.7.7-1.4 1.4-2.2 2-4.3 3.2-9.8 3.6-14.4 1.6-.5-5 1.5-10.1 5.8-13.3.8-.6 1.7-1.1 2.6-1.5-.9-.4-1.8-.9-2.6-1.5-4.4-3.1-6.5-8.3-6-13.2 4.6-2.1 10.1-1.7 14.5 1.4.8.6 1.6 1.3 2.3 2 .1-1 .3-2 .6-3 1.6-5.1 5.9-8.7 10.8-9.8 3.4 3.7 4.7 9.1 3.1 14.2-.3 1-.7 1.9-1.2 2.8 1-.2 2-.3 3-.3 5.2.1 9.9 3 12.4 7.3z"/><circle fill="#FFF" cx="617.9" cy="413" r="7.2"/><path fill="#46466E" d="M536.1 662.2c-.6 2.9-2.7 5.5-5.8 6.5-.6.2-1.2.3-1.8.4.4.4.9.8 1.2 1.3 1.9 2.6 2.2 5.9 1 8.6-3 .3-6.1-.9-8-3.5-.4-.5-.7-1-.9-1.6-.2.5-.5 1.1-.9 1.6-1.9 2.6-4.9 3.9-7.9 3.6-1.2-2.7-1-6 .9-8.6.4-.5.8-1 1.2-1.4-.6-.1-1.2-.2-1.8-.4-3.1-1-5.2-3.5-5.8-6.4 2.2-2 5.4-2.8 8.5-1.8.6.2 1.1.4 1.7.7-.1-.6-.2-1.2-.2-1.8 0-3.2 1.7-6 4.3-7.5 2.6 1.5 4.4 4.3 4.4 7.5 0 .6-.1 1.2-.2 1.8.5-.3 1.1-.6 1.7-.7 2.9-1.2 6.1-.4 8.4 1.7zm-22.3-102.5c1.9 2.3 2.6 5.6 1.5 8.6-.2.6-.5 1.1-.8 1.6.6-.1 1.2-.1 1.8-.1 3.2.1 5.9 2 7.3 4.7-1.6 2.5-4.5 4.2-7.7 4-.6 0-1.2-.1-1.8-.3.3.5.5 1.1.7 1.7.9 3.1-.1 6.3-2.2 8.4-2.9-.7-5.3-3-6.2-6.1-.2-.6-.3-1.2-.3-1.8-.4.4-.9.8-1.4 1.2-2.7 1.8-6 1.9-8.7.6-.2-3 1.2-6 3.9-7.8.5-.3 1.1-.6 1.6-.8-.5-.3-1-.6-1.5-1-2.5-2-3.6-5.1-3.2-8.1 2.8-1.1 6.1-.7 8.6 1.3.5.4.9.8 1.3 1.3.1-.6.2-1.2.5-1.8 1-3 3.6-5.1 6.6-5.6zm99.1 119.5c1.9 2.3 2.6 5.6 1.5 8.6-.2.6-.5 1.1-.8 1.6.6-.1 1.2-.1 1.8-.1 3.2.1 5.9 2 7.3 4.7-1.6 2.5-4.5 4.2-7.7 4-.6 0-1.2-.1-1.8-.3.3.5.5 1.1.7 1.7.9 3.1-.1 6.3-2.2 8.4-2.9-.7-5.3-3-6.2-6.1-.2-.6-.3-1.2-.3-1.8-.4.4-.9.8-1.4 1.2-2.7 1.8-6 1.9-8.7.6-.2-3 1.2-6 3.9-7.8.5-.3 1.1-.6 1.6-.8-.5-.3-1-.6-1.5-1-2.5-2-3.6-5.1-3.2-8.1 2.8-1.1 6.1-.7 8.6 1.3.5.4.9.8 1.3 1.3.1-.6.2-1.2.5-1.8 1-3.1 3.6-5.1 6.6-5.6z"/><path fill="#B39F78" d="M590.9 442.5c-33.6-12.6-70.2-15.7-105.5-8.8L321 465.6l-122.7-15.7c-21.4-2.7-43.1-.4-63.4 6.9l-67.5 24.1 11.7 28.9 83.9-22.6 97.2 36.5c35.7 13.4 74.2 17.5 111.9 11.9l29.4-4.4-7.7 24.7-32.2 27.1 12.2 16.2 23.5-17.6c13.1-9.8 24-22.1 32.3-36.2l11.8-20.1 64.5-9.7 156 150.2h.1V469.2l-71.1-26.7z"/><path fill="#EFDB9F" d="M373.9 599.3c2.2-3.7 2-8.5-.7-12.2-2.8-3.7-7.3-5.1-11.5-4.1-2.2 3.7-2 8.5.7 12.2s7.3 5.1 11.5 4.1zM76.1 510.9c4.6-4.7 6.3-11.8 3.7-18.3S71 482.1 64.4 482c-4.6 4.7-6.3 11.8-3.7 18.3s8.8 10.4 15.4 10.6z"/><path fill="#46466E" d="M152 528.5c8.3-6 13.7-14.5 16-23.7-9.5-.7-19.2 1.7-27.5 7.7s-13.7 14.5-16 23.7c9.4.8 19.2-1.7 27.5-7.7z"/><path fill="#281E32" d="M173.4 533c1.6-10.1-.5-19.9-5.5-28-7.2 6.2-12.3 14.8-14 24.9-1.6 10.1.5 19.9 5.5 28 7.2-6.2 12.4-14.9 14-24.9z"/><path fill="#46466E" d="M112.8 430.4c6 8.3 14.5 13.7 23.7 16 .7-9.5-1.7-19.2-7.7-27.5s-14.5-13.7-23.7-16c-.8 9.5 1.7 19.3 7.7 27.5z"/><path fill="#281E32" d="M108.5 451.9c10.1 1.6 19.9-.5 28-5.5-6.2-7.2-14.8-12.3-24.9-14-10.1-1.6-19.9.5-28 5.5 6.1 7.2 14.8 12.3 24.9 14zm90 49.5c-7.8-6.6-17.3-9.8-26.8-9.8 1.6 9.4 6.3 18.2 14.1 24.8 7.8 6.6 17.3 9.8 26.8 9.8-1.5-9.2-6.3-18.2-14.1-24.8z"/><path fill="#46466E" d="M352.2 550c-10-2-19.9-.3-28.2 4.3 5.9 7.5 14.3 12.9 24.3 15 10 2 19.9.3 28.2-4.3-5.9-7.5-14.3-13-24.3-15z"/><path fill="#281E32" d="M343.7 301.5h-24.2l-11.6-26.4c-4.3-9.8 5.6-19.9 15.5-15.6l20.3 8.8v33.2zm65 0h24.2l11.6-26.4c4.3-9.8-5.6-19.9-15.5-15.6l-20.3 8.8v33.2zm105.5 137V474l-16.3 16.3 3.2 3.2c6.4 6.4 16.9 6.4 23.3 0l55.3-55.3m-208.4 11.6l25.1 25.1V498h4.6c9.1 0 16.5-7.4 16.5-16.5v-78.2"/><path fill="#46466E" d="M562.1 31.9h-33.9l24.5 165.7-22.6 40.1c-11.7 20.8-14.2 45.5-6.8 68.2l6.2 19h-66.4c-10.7 0-20.4-6.7-24.5-16.6l-7.8-18.9c-19.3-46.5-84.5-48.4-106.3-3l-11.5 24c-14.7 30.7-9.4 67.3 13.1 92.8l15.9 17.7V474l-16.5 16.3 3.1 3.2c6.4 6.4 16.8 6.4 23.2 0l31.8-31.9c46 30.1 107.9 28 151.9-9l8.3-7 25.1 25.1v23.1h4.6c9.1 0 16.4-7.4 16.4-16.5v-56.9c0-8.9-2.1-17.8-6.4-25.7l-20.4-37.8h-.1v-66.7l43.3-42.9c22-22 34.7-51.8 34.7-82.9V110c0-43.5-35.6-78.1-78.9-78.1z"/><circle fill="#EFDB9F" cx="404.2" cy="300" r="11.6"/><circle fill="#EFDB9F" cx="354.5" cy="300" r="11.6"/><path fill="#281E32" d="M507.7 324.4v48.7l16.8-48.7h-16.8zm-64.9-9.4v58.1l16.8-48.7-.3-.3c-6.5-.9-12.3-4.2-16.5-9.1zm43.2 58.1l16.8-48.7H486v48.7zm-21.6 0l16.8-48.7h-16.8v48.7zm-95.3-69.9h20.6c3.1 0 4.6 3.7 2.4 5.9l-10.3 10.3c-1.3 1.3-3.5 1.3-4.9 0l-10.3-10.3c-2.1-2.2-.6-5.9 2.5-5.9z"/><path fill="#FF644B" d="M379.4 364.5c-18.8 0-37.5-7.1-51.8-21.4-6.7-6.7-6.7-17.6 0-24.3 6.7-6.7 17.6-6.7 24.3 0 15.2 15.2 39.9 15.2 55.1 0 6.7-6.7 17.6-6.7 24.3 0s6.7 17.6 0 24.3c-14.4 14.3-33.1 21.4-51.9 21.4z"/><path fill="#281E32" d="M379.4 351.9c-16.2 0-31.4-6.3-42.9-17.8-1.8-1.8-1.8-4.7 0-6.5s4.7-1.8 6.5 0c9.7 9.7 22.7 15.1 36.4 15.1 13.8 0 26.7-5.4 36.4-15.1 1.8-1.8 4.7-1.8 6.5 0s1.8 4.7 0 6.5c-11.5 11.5-26.7 17.8-42.9 17.8z"/><circle fill="#281E32" cx="404.2" cy="300" r="5.8"/><circle fill="#281E32" cx="354.5" cy="300" r="5.8"/><path fill="none" stroke="#FF644B" stroke-width="27.074" stroke-linecap="round" stroke-miterlimit="10" d="M370.5 348.1c17.3 17.3 45.3 17.3 62.5 0"/></svg>