<svg xmlns="http://www.w3.org/2000/svg" viewBox="0 0 1200 844"><path d="M223.4 549.6c-2.9 0-5.3 2.4-5.4 5.3-.8 70.7-9.5 136.7-24.7 186.8-15.1 49.9-35.3 78.5-55.2 78.5s-40-28.6-55.2-78.5C67.4 690.4 58.6 622.5 58.2 550c0-3-2.4-5.3-5.4-5.3h-.1c-3 0-5.4 2.4-5.4 5.4.4 73.6 9.3 142.6 25.2 194.9 8 26.4 17.4 47.2 27.9 61.8 11.6 16.2 24.3 24.3 37.6 24.3 13.4 0 26-8.2 37.6-24.3 10.5-14.6 19.9-35.4 27.9-61.8 15.5-51.1 24.4-118.2 25.2-189.9 0-3-2.4-5.4-5.4-5.4h.1zm20.8 190.6h-.1c-3 0-5.4-2.4-5.4-5.4V546.1l10.8-1v189.8c0 2.9-2.4 5.3-5.3 5.3z" fill="#FF644B"/><path fill="#281E32" d="M461.6 435.9c-7 0-13.8.6-20.5 1.7-16.7-31.7-50-53.3-88.3-53.3-5.1 0-10.1.4-15 1.1-1.4-57-48.1-102.8-105.5-102.8-15.8 0-30.9 3.5-44.3 9.8-21.4-85.3-97.8-148.7-189.3-150.5v471c13.2 44 54.1 76.1 102.4 76.1 50.3 0 92.5-34.7 103.8-81.5 3 .5 6 .7 9.1.7 32.9 0 59.5-26.7 59.5-59.5v-1.6c3.2.2 6.3.4 9.6.4 45.8 0 85.6-25.6 106-63.2h171.3c-22.8-29.5-58.6-48.4-98.8-48.4z"/><path fill="#FF644B" d="M1101.1 527l-30.9-21.1c-4.1-2.8-8.5-5.2-13-7.1.9-1.1 1.8-2.3 2.7-3.5H850.6c-3.3 1.4-6.5 3.1-9.6 5l-32 19.5 30.9 21.1c4.1 2.8 8.5 5.2 13 7.1-3.1 3.8-5.9 7.9-8.3 12.3l-17.8 32.9 37.3 2.9c5 .4 10 .3 14.8-.3-.8 4.8-1.2 9.8-1 14.8l1 37.4 33.8-16.2c4.5-2.2 8.8-4.8 12.7-7.7 1.7 4.6 3.9 9.1 6.5 13.3l19.6 31.9 21.1-30.9c2.8-4.1 5.2-8.5 7.1-13 3.8 3.1 7.9 5.9 12.3 8.3l32.9 17.8 2.9-37.3c.4-5 .3-10-.3-14.8 4.8.8 9.8 1.2 14.8 1l37.4-1-16.2-33.8c-2.2-4.5-4.8-8.8-7.7-12.7 4.6-1.7 9.1-3.9 13.3-6.5l32-19.4z"/><path fill="#281E32" d="M1105.9 371.1h95.9V93.9h-1c-52.5 0-95 42.5-95 95v182.2z"/><path fill="#FF644B" d="M1127.8 198.2l15.1-38.4c-.7-.5-1.5-.9-2.2-1.4l-31-18.7-31.1 17.8 11.6-29.6-37.2-22.4-17.6 10 7.1-18.1c-9.8-9-72.7-66.8-72.7-66.8l20.6 96.6 19.3 3.1-17.6 10 .4 43.5 31.4 5-31.1 17.8.4 36.2c0 .9 0 1.7.1 2.6l40.8 6.5-33.8 19.3c18.5 34.8 68.8 45.8 99.5 13l9.3-10 13.3-3c43.8-9.8 59.9-58.8 39.3-92.3l-33.9 19.3z"/><path fill="#281E32" d="M1122.9 298.5c-1.7.9-3.7.4-4.6-1.2L1005.1 97.8c-.7-1.2-.3-2.8 1-3.5 1.2-.7 2.8-.3 3.5 1L1124 294c1 1.5.5 3.6-1.1 4.5z"/><path fill="#281E32" d="M1043.3 159.3l3 5.2 15.1-35.8c.5-1.1 0-2.4-1.2-2.9-1.1-.5-2.4 0-2.9 1.2l-14 32.3zm68 2.8l-28.5 66.3 3.1 5.5 29.6-70c.5-1.1 0-2.4-1.2-2.9-1.2-.6-2.5-.1-3 1.1zm-103-7.2c-1.2-.2-2.3.7-2.5 1.9-.2 1.2.7 2.3 1.9 2.5l38.5 5.1-3-5.2-34.9-4.3zm.3 66.4c-.2 1.3.7 2.4 1.9 2.6l75.3 10-3.1-5.5-71.6-9.1c-1.2-.1-2.3.7-2.5 2z"/><path fill="#EFA950" d="M913.4 395.4c3.2 0 6.4.1 9.6.4v-1.6c0-32.9 26.7-59.5 59.5-59.5 3.1 0 6.2.2 9.1.7 11.4-46.8 53.5-81.5 103.8-81.5 59 0 106.9 47.9 106.9 106.9v106.9H802.9c18.6-42.6 61.1-72.3 110.5-72.3z"/><path fill="#281E32" d="M1200.3 362.2c-4.9 7.5-8.9 15.4-12.2 23.5-6.9-5.4-14.3-10.2-22.3-14.3l-59.5-30.4-3.4 66.7c-.5 8.9 0 17.8 1.2 26.4-8.7-1.2-17.5-1.7-26.4-1.2l-66.7 3.4 30.4 59.5c4.1 8 8.9 15.4 14.3 22.3-8.1 3.3-16 7.3-23.5 12.2l-56 36.3 56 36.3c7.5 4.9 15.4 8.9 23.5 12.2-5.4 6.9-10.2 14.3-14.3 22.3L1011 697l66.7 3.4c8.9.5 17.8 0 26.4-1.2-1.2 8.7-1.7 17.5-1.2 26.4l3.4 66.7 59.5-30.4c8-4.1 15.4-8.9 22.3-14.3 3.3 8.1 7.3 16 12.2 23.5l2.1 3.2V359l-2.1 3.2z"/><path fill="#FF644B" d="M1105.9 610.1c4.9.9 9.3 4.3 11.1 9.4.4 1 .6 2 .7 2.9.6-.8 1.4-1.5 2.2-2.1 4.3-3.3 9.8-3.9 14.4-2 .7 5-1.2 10.2-5.5 13.4-.8.6-1.7 1.2-2.6 1.6.9.4 1.8.9 2.7 1.4 4.4 3 6.7 8.1 6.3 13.1-4.5 2.2-10 2-14.5-1.1-.9-.6-1.6-1.2-2.3-2-.1 1-.3 2-.5 3-1.5 5.2-5.6 8.9-10.5 10-3.5-3.6-5-8.9-3.5-14.1.3-1 .7-1.9 1.1-2.8-1 .2-2 .4-3 .4-5.4.2-10.2-2.6-12.8-6.9 2.4-4.4 7-7.5 12.4-7.6 1 0 2 0 3 .2-.5-.8-1-1.8-1.3-2.7-1.8-4.8-.6-10.3 2.6-14.1z"/><circle fill="#FFF" cx="1115.1" cy="633.3" r="7.2"/><path fill="#FF644B" d="M1186.2 405.9c-2.5 4.4-7.2 7.3-12.5 7.3-1 0-2-.1-3-.3.5.9.9 1.8 1.2 2.8 1.7 5.1.4 10.5-3 14.2-4.9-1-9.2-4.6-10.8-9.7-.3-1-.5-2-.6-3-.7.7-1.4 1.4-2.2 2-4.3 3.2-9.8 3.6-14.4 1.6-.5-5 1.5-10.1 5.8-13.3.8-.6 1.7-1.1 2.6-1.5-.9-.4-1.8-.9-2.6-1.5-4.4-3.1-6.5-8.3-6-13.2 4.6-2.1 10.1-1.7 14.5 1.4.8.6 1.6 1.3 2.3 2 .1-1 .3-2 .6-3 1.6-5.1 5.9-8.7 10.8-9.8 3.4 3.7 4.7 9.1 3.1 14.2-.3 1-.7 1.9-1.2 2.8 1-.2 2-.3 3-.3 5.2.1 9.9 3 12.4 7.3z"/><circle fill="#FFF" cx="1161.3" cy="406.8" r="7.2"/><path d="M1079.5 655.9c-.6 2.9-2.7 5.5-5.8 6.5-.6.2-1.2.3-1.8.4.4.4.9.8 1.2 1.3 1.9 2.6 2.2 5.9 1 8.6-3 .3-6.1-.9-8-3.5-.4-.5-.7-1-.9-1.6-.2.5-.5 1.1-.9 1.6-1.9 2.6-4.9 3.9-7.9 3.6-1.2-2.7-1-6 .9-8.6.4-.5.8-1 1.2-1.4-.6-.1-1.2-.2-1.8-.4-3.1-1-5.2-3.5-5.8-6.4 2.2-2 5.4-2.8 8.5-1.8.6.2 1.1.4 1.7.7-.1-.6-.2-1.2-.2-1.8 0-3.2 1.7-6 4.3-7.5 2.6 1.5 4.4 4.3 4.4 7.5 0 .6-.1 1.2-.2 1.8.5-.3 1.1-.6 1.7-.7 2.9-1.1 6.1-.3 8.4 1.7zm-22.3-102.5c1.9 2.3 2.6 5.6 1.5 8.6-.2.6-.5 1.1-.8 1.6.6-.1 1.2-.1 1.8-.1 3.2.1 5.9 2 7.3 4.7-1.6 2.5-4.5 4.2-7.7 4-.6 0-1.2-.1-1.8-.3.3.5.5 1.1.7 1.7.9 3.1-.1 6.3-2.2 8.4-2.9-.7-5.3-3-6.2-6.1-.2-.6-.3-1.2-.3-1.8-.4.4-.9.8-1.4 1.2-2.7 1.8-6 1.9-8.7.6-.2-3 1.2-6 3.9-7.8.5-.3 1.1-.6 1.6-.8-.5-.3-1-.6-1.5-1-2.5-2-3.6-5.1-3.2-8.1 2.8-1.1 6.1-.7 8.6 1.3.5.4.9.8 1.3 1.3.1-.6.2-1.2.5-1.8 1-3 3.6-5.1 6.6-5.6zm99.1 119.5c1.9 2.3 2.6 5.6 1.5 8.6-.2.6-.5 1.1-.8 1.6.6-.1 1.2-.1 1.8-.1 3.2.1 5.9 2 7.3 4.7-1.6 2.5-4.5 4.2-7.7 4-.6 0-1.2-.1-1.8-.3.3.5.5 1.1.7 1.7.9 3.1-.1 6.3-2.2 8.4-2.9-.7-5.3-3-6.2-6.1-.2-.6-.3-1.2-.3-1.8-.4.4-.9.8-1.4 1.2-2.7 1.8-6 1.9-8.7.6-.2-3 1.2-6 3.9-7.8.5-.3 1.1-.6 1.6-.8-.5-.3-1-.6-1.5-1-2.5-2-3.6-5.1-3.2-8.1 2.8-1.1 6.1-.7 8.6 1.3.5.4.9.8 1.3 1.3.1-.6.2-1.2.5-1.8 1-3.1 3.6-5.1 6.6-5.6z" fill="#46466E"/><path fill="#B39F78" d="M1202.3 660.8l-156-150.3-133.8 19.9c-37.7 5.6-76.2 1.5-111.9-11.9L703.4 482l-83.9 22.6-11.7-28.9 67.5-24.1c20.3-7.3 42-9.6 63.4-6.9l122.7 15.7 164.4-31.9c35.3-6.9 71.9-3.8 105.5 8.8l71.1 26.7v196.8z"/><path fill="#B39F78" d="M951.6 503.7l-14.4 46-32.2 27.1 12.2 16.2 23.5-17.6c13.1-9.8 24-22.1 32.3-36.2l20.9-35.5h-42.3z"/><path fill="#EFDB9F" d="M917.3 593.1c2.2-3.7 2-8.5-.7-12.2-2.8-3.7-7.3-5.1-11.5-4.1-2.2 3.7-2 8.5.7 12.2 2.7 3.7 7.3 5.1 11.5 4.1zm-297.8-88.4c4.6-4.7 6.3-11.8 3.7-18.3-2.6-6.5-8.8-10.5-15.4-10.6-4.6 4.7-6.3 11.8-3.7 18.3 2.6 6.5 8.8 10.4 15.4 10.6z"/><path fill="#46466E" d="M695.4 522.3c8.3-6 13.7-14.5 16-23.7-9.5-.7-19.2 1.7-27.5 7.7s-13.7 14.5-16 23.7c9.4.8 19.2-1.7 27.5-7.7z"/><path fill="#281E32" d="M716.8 526.7c1.6-10.1-.5-19.9-5.5-28-7.2 6.2-12.3 14.8-14 24.9-1.6 10.1.5 19.9 5.5 28 7.2-6.2 12.4-14.9 14-24.9z"/><path fill="#46466E" d="M656.2 424.2c6 8.3 14.5 13.7 23.7 16 .7-9.5-1.7-19.2-7.7-27.5s-14.5-13.7-23.7-16c-.8 9.5 1.7 19.3 7.7 27.5z"/><path fill="#281E32" d="M651.9 445.7c10.1 1.6 19.9-.5 28-5.5-6.2-7.2-14.8-12.3-24.9-14-10.1-1.6-19.9.5-28 5.5 6.1 7.2 14.8 12.3 24.9 14zm90 49.5c-7.8-6.6-17.3-9.8-26.8-9.8 1.6 9.4 6.3 18.2 14.1 24.8s17.3 9.8 26.8 9.8c-1.5-9.3-6.3-18.2-14.1-24.8z"/><path fill="#46466E" d="M895.6 543.8c-10-2-19.9-.3-28.2 4.3 5.9 7.5 14.3 12.9 24.3 15 10 2 19.9.3 28.2-4.3-5.9-7.5-14.3-13-24.3-15z"/><path fill="#FF644B" d="M127.4 551.1l45.2 39.7c12 10.5 6.8 30.2-8.9 33.5l-59 12.1c-34.6 7.1-69.9-8.7-87.7-39.3l-20.3-35 35-20.3c30.7-17.7 69.2-14 95.7 9.3z"/><path fill="#EFDB9F" d="M132 620.3l-14.3-24.6 40.5 10.7c.8.2 1.6-.3 1.8-1.1.2-.8-.3-1.6-1.1-1.8l-40.5-10.7 24.6-14.3c.7-.4 1-1.3.5-2-.4-.7-1.3-1-2-.5l-27.2 15.8-36.8-9.8 43.5-25.3c.7-.4 1-1.3.5-2-.4-.7-1.3-1-2-.5l-46 26.8-36.9-9.8 52-30.2c.7-.4 1-1.3.5-2s-1.3-1-2-.5l-54.6 31.7-18.9-5c-.8-.2-1.6.3-1.8 1.1-.1.4 0 .8.2 1.1.2.3.5.6.9.7l18.9 5 31.7 54.6c.4.7 1.3 1 2 .5.7-.4 1-1.3.5-2l-30.2-52 36.9 9.8 26.8 46c.4.7 1.3 1 2 .5s1-1.3.5-2L76.7 585l36.9 9.8 15.8 27.2c.4.7 1.3 1 2 .5s1-1.5.6-2.2z"/><path fill="#46466E" d="M114.8 681.2l4.7 72.4c1.2 19.2-20 31.5-36.1 21l-60.6-39.9c-35.6-23.4-52.2-67-41.3-108.2L-6 579.3l47.2 12.5c41.3 10.9 70.9 46.9 73.6 89.4z"/><path fill="#EFDB9F" d="M59.7 744.1l8.8-33.1 25.4 43.7c.5.9 1.6 1.2 2.5.7.9-.5 1.2-1.6.7-2.5l-25.4-43.7 33.1 8.8c1 .3 2-.3 2.2-1.3s-.3-2-1.3-2.2l-36.6-9.7L46 665l58.5 15.5c1 .3 2-.3 2.2-1.3s-.3-2-1.3-2.2l-62-16.4-23.1-39.7 70.1 18.6c1 .3 2-.3 2.2-1.3s-.3-2-1.3-2.2l-73.6-19.5L5.9 596c-.5-.9-1.6-1.2-2.5-.7-.4.3-.7.7-.8 1.1-.1.4-.1.9.2 1.4l11.9 20.4-19.5 73.6c-.3 1 .3 2 1.3 2.2 1 .3 2-.3 2.2-1.3l18.6-70.1 23.1 39.7-16.4 62c-.3 1 .3 2 1.3 2.2 1 .3 2-.3 2.2-1.3L43 666.7l23 39.9-9.7 36.6c-.3 1 .3 2 1.3 2.2.9.2 1.9-.4 2.1-1.3z"/><circle fill="#FF644B" cx="59.3" cy="245" r="20.8"/><path fill="#EFDB9F" d="M57 218.1c-3.1 6.8-8.3 11.9-14.6 14.8-1.9-6.6-1.5-13.9 1.5-20.7 3.1-6.8 8.3-11.9 14.6-14.8 1.9 6.6 1.5 14-1.5 20.7z"/><path fill="#B39F78" d="M63.2 232.8c-7 2.6-14.3 2.5-20.8.2 3.4-6 8.8-10.9 15.7-13.6 7-2.6 14.3-2.5 20.8-.2-3.4 6-8.8 10.9-15.7 13.6z"/><circle fill="#FF644B" cx="441.9" cy="438.4" r="20.8"/><path fill="#EFDB9F" d="M439.6 411.4c-3.1 6.8-8.3 11.9-14.6 14.8-1.9-6.6-1.5-13.9 1.5-20.7s8.3-11.9 14.6-14.8c1.9 6.7 1.6 14-1.5 20.7z"/><path fill="#B39F78" d="M445.8 426.1c-7 2.6-14.3 2.5-20.8.2 3.4-6 8.8-10.9 15.7-13.6 7-2.6 14.3-2.5 20.8-.2-3.3 6.1-8.7 11-15.7 13.6z"/><path fill="#EFDB9F" d="M51.7 360.4c4.1 6.2 10.1 10.3 16.8 12.2.8-6.8-.7-14-4.9-20.2-4.1-6.2-10.1-10.3-16.8-12.2-.8 6.9.8 14.1 4.9 20.2z"/><path fill="#B39F78" d="M47.9 375.9c7.3 1.5 14.5.1 20.5-3.2-4.3-5.4-10.4-9.4-17.7-10.8-7.3-1.5-14.5-.1-20.5 3.2 4.3 5.4 10.5 9.3 17.7 10.8z"/><path fill="#EFDB9F" d="M311.5 492.3c4.1 6.2 10.1 10.3 16.8 12.2.8-6.8-.7-14-4.9-20.2-4.1-6.2-10.1-10.3-16.8-12.2-.8 6.9.7 14 4.9 20.2z"/><path fill="#B39F78" d="M307.7 507.7c7.3 1.5 14.5.1 20.5-3.2-4.3-5.4-10.4-9.4-17.7-10.8-7.3-1.5-14.5-.1-20.5 3.2 4.3 5.4 10.4 9.4 17.7 10.8z"/><path fill="#EFDB9F" d="M269.8 326.4c-6.2-4.1-10.3-10.1-12.2-16.8 6.8-.8 14 .7 20.2 4.9 6.2 4.1 10.3 10.1 12.2 16.8-6.9.8-14-.8-20.2-4.9z"/><path fill="#B39F78" d="M113 301c-4.1 6.2-10.1 10.3-16.8 12.2-.8-6.8.7-14 4.9-20.2 4.1-6.2 10.1-10.3 16.8-12.2.7 6.8-.8 14-4.9 20.2z"/><path fill="#EFDB9F" d="M134.5 227.9c6.2 4.1 10.3 10.1 12.2 16.8-6.8.8-14-.7-20.2-4.9-6.2-4.1-10.3-10.1-12.2-16.8 6.9-.8 14.1.8 20.2 4.9zm238.6 195.5c-4.1 6.2-10.1 10.3-16.8 12.2-.8-6.8.7-14 4.9-20.2 4.1-6.2 10.1-10.3 16.8-12.2.8 6.8-.8 14-4.9 20.2z"/><path fill="#281E32" d="M887.1 295.3h-24.2l-11.6-26.4c-4.3-9.8 5.6-19.9 15.5-15.6l20.3 8.8v33.2zm65 0h24.2l11.6-26.4c4.3-9.8-5.6-19.9-15.5-15.6l-20.3 8.8v33.2zm105.5 137v35.5l-16.3 16.3 3.2 3.2c6.4 6.4 16.9 6.4 23.3 0l55.3-55.3m-208.4 11.6l25.1 25.1v23.1h4.6c9.1 0 16.5-7.4 16.5-16.5v-78.2"/><path fill="#46466E" d="M1106.8 338.5V284l42.9-42.9c22-22 34.3-51.8 34.3-82.9v-54.5c0-43.4-35.2-78.5-78.5-78.5h-33.9l24.5 165.9-22.6 40.2c-11.7 20.8-14.2 45.6-6.8 68.3l19 58.8 21.1-19.9zm0 12.4v-32.7h-100.3c-10.7 0-20.4-6.5-24.5-16.4l-7.8-18.8c-19.3-46.5-84.5-48.3-106.3-2.9l-11.5 24c-14.7 30.7-9.6 67.3 12.9 92.8l32.1 36.3c45.8 51.8 124.7 57.7 177.6 13.2l8.3-7 25.1 25.1v23.1h4.6c9.1 0 16.5-7.4 16.5-16.5v-56.9c0-8.9-2.2-17.7-6.5-25.6l-20.2-37.7zM885 398v69.8l-16.3 16.3 3.2 3.2c6.4 6.4 16.9 6.4 23.3 0l55.3-55.3"/><circle fill="#EFDB9F" cx="947.6" cy="293.8" r="11.6"/><circle fill="#EFDB9F" cx="897.9" cy="293.8" r="11.6"/><path fill="#281E32" d="M1051.1 318.2v48.7l16.8-48.7h-16.8zm-64.9-9.4v58.1l16.8-48.7-.3-.3c-6.5-.9-12.3-4.2-16.5-9.1zm43.2 58.1l16.8-48.7h-16.8v48.7zm-21.6 0l16.8-48.7h-16.8v48.7zM912.5 297h20.6c3.1 0 4.6 3.7 2.4 5.9l-10.3 10.3c-1.3 1.3-3.5 1.3-4.9 0L910 302.9c-2.1-2.2-.6-5.9 2.5-5.9z"/><path fill="#FF644B" d="M922.8 358.3c-18.8 0-37.5-7.1-51.8-21.4-6.7-6.7-6.7-17.6 0-24.3 6.7-6.7 17.6-6.7 24.3 0 15.2 15.2 39.9 15.2 55.1 0 6.7-6.7 17.6-6.7 24.3 0 6.7 6.7 6.7 17.6 0 24.3-14.4 14.3-33.1 21.4-51.9 21.4z"/><path fill="#281E32" d="M922.8 345.7c-16.2 0-31.4-6.3-42.9-17.8-1.8-1.8-1.8-4.7 0-6.5 1.8-1.8 4.7-1.8 6.5 0 9.7 9.7 22.7 15.1 36.4 15.1 13.8 0 26.7-5.4 36.4-15.1 1.8-1.8 4.7-1.8 6.5 0 1.8 1.8 1.8 4.7 0 6.5-11.5 11.5-26.7 17.8-42.9 17.8z"/><circle fill="#281E32" cx="947.6" cy="293.8" r="5.8"/><circle fill="#281E32" cx="897.9" cy="293.8" r="5.8"/><path fill="none" stroke="#FF644B" stroke-width="27.074" stroke-linecap="round" stroke-miterlimit="10" d="M913.9 341.9c17.3 17.3 45.3 17.3 62.5 0"/><g fill="#FF644B"><path d="M65.8 394.9l11 23.6-11 23.6c-13.3 28.6 21.4 55.5 45.8 35.4l71.5-59-71.5-59c-24.5-20.1-59.2 6.8-45.8 35.4z"/><path d="M159.4 535.8l23.6-11 23.6 11c28.6 13.3 55.5-21.4 35.4-45.8l-59-71.5-59 71.5c-20.1 24.4 6.7 59.1 35.4 45.8zm129.8-117.3l11-23.6c13.3-28.6-21.4-55.5-45.8-35.4l-71.5 59 71.5 59c24.4 20.1 59.1-6.8 45.8-35.4l-11-23.6z"/><path d="M206.6 301.3l-23.6 11-23.6-11c-28.6-13.3-55.5 21.4-35.4 45.8l59 71.5 59-71.5c20.1-24.4-6.8-59.1-35.4-45.8z"/></g><g fill="#EFA950"><path d="M101.4 402.1l7.7 16.4-7.7 16.5c-9.3 19.9 14.9 38.6 31.9 24.6l49.8-41.1-49.8-41.1c-17-13.9-41.2 4.8-31.9 24.7z"/><path d="M166.6 500.1l16.4-7.7 16.4 7.7c19.9 9.3 38.6-14.9 24.6-31.9l-41.1-49.8-41.1 49.8c-13.9 17.1 4.8 41.2 24.8 31.9zm90.3-81.6l7.7-16.4c9.3-19.9-14.9-38.6-31.9-24.6l-49.8 41.1 49.8 41.1c17 14 41.1-4.7 31.9-24.6l-7.7-16.6z"/><path d="M199.4 336.9l-16.4 7.7-16.4-7.7c-19.9-9.3-38.6 14.9-24.6 31.9l41.1 49.8 41.1-49.8c13.9-17-4.9-41.1-24.8-31.9z"/></g><circle fill="#FF644B" cx="183" cy="466.6" r="20.3"/><path fill="#EFDB9F" d="M230.9 433.7l-7.3-7.6 18-18.4h-23.4c-4.5-15-18.6-26.2-35.2-26.2s-30.7 11.2-35.2 26.2h-23.4l18 18.4-7.3 7.6h14.3c1.4 3 3 5.8 5.2 8.4l-.1-.2v15.7c0 5.1 4.4 9 9.6 9h9.7c5.1 0 9.3-4.2 9.3-9.3 0 5.1 4.2 9.3 9.3 9.3h9.7c5.1 0 9.4-3.9 9.4-9v-15.7c2-2.6 3.9-5.3 5.2-8.3h14.2v.1z"/><path fill="#281E32" d="M167.6 424.5h30.7c4.6 0 6.8 5.5 3.6 8.7l-15.3 15.3c-2 2-5.2 2-7.2 0l-15.3-15.3c-3.3-3.1-1-8.7 3.5-8.7z"/><path fill="#FF644B" d="M199 385.5c3.8-5.3 10-8.8 17-8.8h3.7V411h-.8c-2.3-11.3-9.8-20.6-19.9-25.5zm-32 0c-3.8-5.3-10-8.8-17-8.8h-3.7V411h.8c2.3-11.3 9.8-20.6 19.9-25.5z"/><circle fill="#46466E" cx="211.8" cy="408.6" r="12.2"/><circle fill="#46466E" cx="154.2" cy="408.6" r="12.2"/><circle fill="#281E32" cx="154.2" cy="408.6" r="6.4"/><circle fill="#281E32" cx="211.8" cy="408.6" r="6.4"/><path fill="#B39F78" d="M-43.3 239.3c-.7-.4-1.3-.8-1.9-1.4l-.1-.1c-2.8-2.9-2.8-7.6.1-10.5 2.2-2.2 5.4-2.7 8.1-1.7L39 247.7c14.6-8.7 28.4-19.4 41.1-32 5.4-5.4 10.4-11 15.1-16.8l-72.8-25.2c-1.1-.4-2.1-1-2.9-1.8l-.1-.1c-2.9-2.9-2.9-7.7.1-10.6 1.9-1.9 4.6-2.6 7.1-2l87.2 12.4c9.9-17.2 17.2-35.6 21.8-54.4L88 108.1c-1.5-.3-2.9-1-3.9-2.1H84c-2.9-2.9-2.9-7.7 0-10.6 1.7-1.7 3.9-2.4 6.1-2.2H140c3.4-26.9 1.5-54.4-5.5-80.8-26.4-7-53.8-8.9-80.8-5.5v49.9c.2 2.2-.5 4.4-2.2 6.1-2.9 2.9-7.7 2.9-10.6 0l-.1-.1c-1-1-1.8-2.4-2.1-3.9l-9.2-47.6C10.7 16-7.6 23.2-24.8 33.1l12.4 87.2c.6 2.5-.1 5.2-2 7.1-2.9 2.9-7.6 2.9-10.6.1l-.1-.1c-.8-.8-1.4-1.7-1.8-2.9l-25.2-72.8c-5.8 4.7-11.4 9.7-16.8 15.1-12.6 12.6-23.2 26.4-32 41.1l22.1 76.2c1.1 2.7.5 5.9-1.7 8.1-2.9 2.9-7.6 2.9-10.5.1l-.1-.1c-.5-.5-1-1.2-1.4-1.9l-24.8-48.2c-15.3 41.1-17.3 86-6.1 128.2 42.1 11.2 87.1 9.2 128.2-6.1l-48.1-24.9z"/><path fill="#46466E" d="M-130.6 273.1c.9.9 2.4 1 3.4 0l1 1c-.9.9-.9 2.5 0 3.4.9.9 2.5.9 3.4 0L118.4 31.8c.9-.9.9-2.4 0-3.4-.5-.5-1.1-.7-1.7-.7-.6 0-1.2.2-1.7.7l-245.6 241.3c-.9.9-.9 2.5 0 3.4z"/></svg>