<svg xmlns="http://www.w3.org/2000/svg" viewBox="0 0 1333.7 484.5"><path fill="#281E32" d="M0 0v484.5h104.6c26.7 0 52.2-10.6 71.1-29.5l63.8-63.8c28.2-28.2 66.6-44.1 106.5-44.1h199c26.7 0 52.2-10.6 71.1-29.5l33.4-33.4c84.5-84.5 221.4-84.5 305.9 0L1126.2 455c18.9 18.9 44.4 29.5 71.1 29.5h135.2v-1.2l1.2 1.2V0H0z"/><path fill="#EFDB9F" d="M413.8 414.9c-18.7 0-33.9-15.2-33.9-33.9s-15.2-33.9-33.9-33.9-33.9-15.2-33.9-33.9-15.2-33.9-33.9-33.9-33.9-15.2-33.9-33.9-15.2-33.9-33.9-33.9-33.9-15.2-33.9-33.9-15.2-33.9-33.9-33.9-33.9-15.2-33.9-33.9-15.2-33.9-33.9-33.9-33.7-15-33.7-33.7c0-18.7-15.2-33.9-33.9-33.9-2.4 0-4.9-.3-7.2-.8v135.9c1.7.3 3.5.4 5.3.4 18.7 0 33.9 15.2 33.9 33.9s15.2 33.9 33.9 33.9 33.9 15.2 33.9 33.9 15.2 33.9 33.9 33.9 33.9 15.2 33.9 33.9 15.2 33.9 33.9 33.9 33.9 15.2 33.9 33.9 15.2 33.9 33.9 33.9 33.9 15.2 33.9 33.9h137.5c-.2-18.8-15.4-34-34.1-34z"/><path fill="#46466E" d="M1023.6 391.7c15.6 0 28.2-12.6 28.2-28.2s12.6-28.2 28.2-28.2 28.2-12.6 28.2-28.2 12.6-28.2 28.2-28.2 28.2-12.6 28.2-28.2 12.6-28.2 28.2-28.2 28.2-12.6 28.2-28.2 12.6-28.2 28.2-28.2 28.2-12.6 28.2-28.2 12.6-28.2 28.2-28.2 28.2-12.6 28.2-28.2V277c-3.3 0-6.7-.6-10-1.9-14.5-5.6-30.8 1.6-36.4 16.1-5.6 14.5-21.9 21.7-36.4 16.1s-30.8 1.6-36.4 16.1c-5.6 14.5-21.9 21.7-36.4 16.1s-30.8 1.6-36.4 16.1c-5.6 14.5-21.9 21.7-36.4 16.1-14.5-5.6-30.8 1.6-36.4 16.1-5.6 14.5-21.9 21.7-36.4 16.1-14.5-5.6-30.8 1.6-36.4 16.1-.8-15.7 11.9-28.3 27.4-28.3z"/><path fill="#EFA950" d="M1112.4 337.4c-1.1-1.6-.8-3.7.7-4.9l220.3-163.2v14.6l-216.2 154.3c-.8.6-1.7.7-2.6.6-.8-.1-1.7-.6-2.2-1.4z"/></svg>