<svg xmlns="http://www.w3.org/2000/svg" viewBox="0 0 1333.7 444.6"><path fill="#281E32" d="M1332.5 444.6v-1.2l1.2 1.2V0c-61-.2-117.6 39.2-136.5 100.5-23.1 75.1-102.8 117.3-177.9 94.2-75.1-23.1-154.8 19.1-177.9 94.2l-13.3 43.4c-18.5 60.3-74.2 101.4-137.3 101.4h-48c-63.1 0-118.7-41.1-137.3-101.4l-13.3-43.4c-23.1-75.1-102.8-117.3-177.9-94.2-75.1 23.1-154.8-19.1-177.9-94.2C117.6 39.2 61-.2 0 0v444.6h1332.5z"/><path fill="#46466E" d="M866.8 241.2c-11.1 13.7-19.8 29.8-25.3 47.7l-13.3 43.4c-12.3 40.1-41.2 71.8-77.6 88.4-17.7 8.1-37.2 12.7-57.5 13h57.8c63.1 0 118.7-41.1 137.3-101.4l13.3-43.4c2.2-7.1 4.9-13.9 8-20.4 13.1-27.2-23.8-50.7-42.7-27.3zm370.6-190.3c-8.8 0-17 4.3-21.9 11.6-7.8 11.4-14 24.2-18.2 38.1-8.4 27.2-24.1 50-44.4 67-12.8 10.7-1.1 31.1 14.6 25.7 41.5-14.3 75.8-47.6 89.7-92.7 1.3-4.4 2.9-8.6 4.6-12.8 7.3-17.6-5.4-36.9-24.4-36.9zM136.5 100.5c-4.3-13.9-10.5-26.6-18.2-38.1-4.9-7.3-13.2-11.6-21.9-11.6-19 0-31.7 19.3-24.4 36.9 1.7 4.1 3.2 8.4 4.6 12.8 13.1 42.6 44.4 74.6 82.6 90.1 16.8 6.8 30.4-14.9 17.1-27.1-18.1-16.5-32.1-37.9-39.8-63zm369.1 231.7l-13.3-43.4c-5.5-17.9-14.2-33.9-25.3-47.7-19-23.4-55.9.1-42.7 27.2 3.2 6.5 5.8 13.3 8 20.4l13.3 43.4c18.5 60.3 74.2 101.4 137.3 101.4h57.8c-20.4-.3-39.9-4.9-57.7-13-36.3-16.6-65.1-48.2-77.4-88.3z"/></svg>