<svg xmlns="http://www.w3.org/2000/svg" viewBox="0 0 1200 824.3"><path fill="#281E32" d="M0 0v824.3c0-22.1 18-39.9 40-39.9 22.1 0 40-17.9 40-39.9s17.9-39.9 40-39.9 40-17.9 40-39.9c0-22.1 17.9-39.9 39.9-39.9 22.1 0 39.9-17.9 39.9-39.9 0-22.1 17.9-39.9 39.9-39.9 22.1 0 39.9-17.9 39.9-39.9 0-22.1 17.9-39.9 39.9-39.9 22.1 0 39.9-17.9 39.9-39.9 0-22.1 17.9-39.9 39.9-39.9 22.1 0 39.9-17.9 39.9-39.9 0-22.1 17.9-39.9 39.9-39.9 22.1 0 39.9-17.9 39.9-39.9 0-22.1 17.9-39.9 39.9-39.9h2.4c22.1 0 39.9 17.9 39.9 39.9 0 22.1 17.9 39.9 39.9 39.9 22.1 0 39.9 17.9 39.9 39.9 0 22.1 17.9 39.9 39.9 39.9 22.1 0 39.9 17.9 39.9 39.9 0 22.1 17.9 39.9 39.9 39.9 22.1 0 39.9 17.9 39.9 39.9 0 22.1 17.9 39.9 39.9 39.9 22.1 0 39.9 17.9 39.9 39.9 0 22.1 17.9 39.9 39.9 39.9s39.9 17.9 39.9 39.9c0 22.1 17.9 39.9 39.9 39.9 22.1 0 39.9 17.9 39.9 39.9s17.5 39.9 39.5 39.9c22.1 0 39.5 17.9 39.5 39.9V0H0z"/></svg>