<svg xmlns="http://www.w3.org/2000/svg" viewBox="0 0 1200 1000"><path fill="#281E32" d="M1200 0l-71.9 72h-35.7c-13.5 0-26.5 5.3-36.1 14.9l-44.5 44.6c-9.6 9.6-14.8 22.5-14.8 36V334h-37.6c-28.2 0-51.4 22.7-51.4 50.9v51.7L768.6 576.2c-9.6 9.6-14.6 22.5-14.6 36.1V746h-33.8c-28.2 0-51.2 22.6-51.2 50.7V831H544.2c-13.5 0-26.2-5.3-35.7-14.9L455 762.4v-96.8c0-13.5-5.7-26.5-15.3-36.1l-61.3-61.4c-9.6-9.6-22.7-15.1-36.2-15.1H311v-65.7c0-28.2-22.7-51.3-50.9-51.3H237v-36.8c0-13.5-5.3-26.5-14.9-36.1L176 317V194.8c0-13.5-5.3-26.5-14.9-36.1l-32.2-32c-9.6-9.6-22.5-14.7-36-14.7h-47L0 65.7V1000h1200V0z"/><path d="M424.3 777.3l38.9 38.9c9.6 9.6 22.5 14.9 36.1 14.9h45c-13.5 0-26.5-5.4-36.1-14.9l-53.8-53.8v-96.8c0-13.5-5.4-26.5-14.9-36.1L376.9 567c-3-3-7-4.6-11.1-4.6h-.4c-14 0-21.1 17-11.1 26.9l55.2 55.2v96.8c-.1 13.5 5.2 26.5 14.8 36zM144.2 330.1l48 48v32.7c0 14.1 11.4 25.5 25.5 25.5h19.5v-37.1c0-13.5-5.4-26.5-14.9-36.1L176.1 317V194.8c0-13.5-5.4-26.5-14.9-36.1l-33.5-33.5c-3-3-7-4.6-11.1-4.6h-.4c-14 0-21.1 17-11.1 26.9l26.2 26.2v124.9c-.1 11.8 4.5 23.1 12.9 31.5zm547.3 443.5h.4c12.3 0 22.3 10 22.3 22.3v9.8c0 14.1-11.4 25.5-25.5 25.5h-19.5v-35.3c0-12.4 10-22.3 22.3-22.3zm239.8-411.2c-12.6-.2-22.9 10.4-22.9 23v51.2L768.7 576.2c-9.6 9.6-14.9 22.5-14.9 36.1v133.4h19.5c14.1 0 25.5-11.4 25.5-25.5V612.3c0-13.5 5.4-26.5 14.9-36.1l124.7-124.7c9.6-9.6 14.9-22.5 14.9-36.1v-30.6c.1-12.2-9.8-22.2-22-22.4zM48.9 279.5L0 230.5v45l18.9 18.9v32.7c0 14.1 11.4 25.5 25.5 25.5h19.5v-37.1c-.1-13.5-5.4-26.5-15-36zm962.8-148c-9.6 9.6-14.9 22.5-14.9 36.1v166.3h19.5c14.1 0 25.5-11.4 25.5-25.5V167.6c0-13.5 5.4-26.5 14.9-36.1l6.2-6.2c6.1-6.1 6.1-16.1 0-22.3l-.2-.2c-6.1-6.1-16.1-6.1-22.3 0l-28.7 28.7zM1200 0l-71.9 71.9h23.9c13.5 0 26.5-5.4 36.1-14.9l12-12V0z" fill="#46466E"/></svg>