<svg xmlns="http://www.w3.org/2000/svg" viewBox="0 0 1333.7 422.3"><path fill="#EFDB9F" d="M1333.7 0H0l16.8 16.5C57 56.7 111.5 79 168.3 79h66.4c0 51 40.8 91.4 91.1 91.4 10.8 0 21.2-1.8 30.8-5.2-.5 5-.8 10.1-.8 15.2 0 78.4 63.6 142 142 142 25.6 0 49.5-6.7 70.2-18.6 50.3 71.7 133.5 118.6 227.8 118.6 111.9 0 208.3-66.1 252.4-161.3 3.5 1.8 7.6 2.9 11.8 2.9 14.1 0 25.6-11.5 25.6-25.6 0-12.4-8.8-22.7-20.4-25.1 1.9-7.6 3.6-15.3 4.9-23.1l3.8.1c70.1 0 127-56.8 127-127v-.9c49.8-4.5 96.7-26.2 132.3-61.8l.5-.6z"/><circle fill="#EFDB9F" cx="1090" cy="278.3" r="12.8"/></svg>