<svg xmlns="http://www.w3.org/2000/svg" viewBox="0 0 281.2 161.7"><path fill="#B4A078" d="M52.8 94.1L23.6 64.8C20 61.2 18 56.4 18 51.3c0-10.6 8.6-19.2 19.2-19.2 5.3 0 10.2 2.2 13.7 5.7V16.7c-4.2-1.7-8.8-2.6-13.7-2.6C16.7 14.1 0 30.8 0 51.3c0 9.9 3.9 19.3 10.9 26.3l19.5 19.5c-3.1 5.4-2.3 12.5 2.3 17.1 5.6 5.6 14.6 5.6 20.1 0s5.6-14.6 0-20.1z"/><path fill="#F0DCA0" d="M50.8 54.1c0 59.4 48.2 107.6 107.6 107.6h15.1c59.4 0 107.6-48.2 107.6-107.6v-49c0-2.8-2.3-5.1-5.1-5.1H55.9c-2.8 0-5.1 2.3-5.1 5.1v49z"/><path fill="#46466E" d="M64.4 26.1c4.2-4.2 9.9-6.6 15.9-6.6s11.6 2.3 15.9 6.6c.7.7 1.9.7 2.5 0 8.8-8.7 23-8.7 31.7 0 .7.7 1.8.7 2.5 0 8.8-8.7 23-8.7 31.7 0 .7.7 1.8.7 2.5 0 8.8-8.7 23-8.7 31.7 0 .7.7 1.8.7 2.5 0 8.8-8.7 23-8.7 31.7 0 .7.7 1.9.7 2.5 0 4.2-4.2 9.9-6.6 15.9-6.6s11.6 2.3 15.9 6.6c.3.3.8.5 1.3.5s.9-.2 1.3-.5c3.1-3.1 6.9-5.1 11-6.1v-3.7c-4.6.8-8.8 2.9-12.3 6-4.7-4.2-10.8-6.4-17.1-6.4-6.4 0-12.4 2.3-17.1 6.4-9.8-8.6-24.5-8.6-34.3 0-4.7-4.2-10.8-6.4-17.1-6.4-6.4 0-12.4 2.3-17.1 6.4-4.7-4.2-10.8-6.4-17.1-6.4-6.4 0-12.4 2.3-17.1 6.4-9.8-8.6-24.5-8.6-34.3 0-4.7-4.2-10.8-6.4-17.1-6.4-6.4 0-12.4 2.3-17.1 6.4-3.5-3.1-7.8-5.1-12.3-6V20c4.2.9 8 3 11 6.1.6.6 1.8.6 2.5 0z"/><path fill="#F0AA50" d="M253 25.4c-.7-.7-1.8-.7-2.5 0-8.8 8.7-23 8.8-31.7 0-.7-.7-1.9-.7-2.5 0-4.2 4.2-9.9 6.6-15.9 6.6s-11.6-2.3-15.9-6.6c-.7-.7-1.9-.7-2.5 0-4.4 4.3-10 6.6-16 6.6s-11.6-2.3-15.9-6.6c-.7-.7-1.9-.7-2.5 0-4.2 4.2-9.9 6.6-15.9 6.6s-11.6-2.3-15.9-6.6c-.7-.7-1.9-.7-2.5 0-8.8 8.8-23 8.7-31.7 0-.7-.7-1.8-.7-2.5 0-7.6 7.6-19.5 8.6-28.2 2.9v4.2c9.4 5 21.2 3.9 29.5-3.3 9.8 8.6 24.5 8.6 34.3 0 4.7 4.2 10.8 6.4 17.1 6.4 6.4 0 12.4-2.3 17.1-6.4 4.7 4.2 10.8 6.4 17.1 6.4 6.4 0 12.4-2.3 17.1-6.4 4.7 4.2 10.8 6.4 17.1 6.4 6.4 0 12.4-2.3 17.1-6.4 9.8 8.6 24.5 8.6 34.3 0 8.3 7.3 20.1 8.3 29.5 3.3v-4.2c-8.7 5.7-20.5 4.8-28.1-2.9z"/></svg>