<svg xmlns="http://www.w3.org/2000/svg" viewBox="0 0 416.9 387.9"><path fill="#F0DCA0" d="M208.2 369.9c-9.8 8.6-24.5 8.6-34.3 0-4.9 4.3-11 6.4-17.1 6.4-6.1 0-12.2-2.1-17.1-6.4-9.8 8.6-24.5 8.6-34.3 0-9.5 8.3-23.5 8.5-33.3.8-2.6 5.2-4 11-4 16.9v.3h177.4v-.3c0-5.9-1.4-11.7-4-16.9-9.7 7.7-23.8 7.5-33.3-.8z"/><path fill="#46466E" d="M209.5 366.2c-.7-.7-1.8-.7-2.5 0-8.8 8.7-23 8.7-31.7 0-.7-.7-1.8-.7-2.5 0-8.8 8.7-23 8.7-31.7 0-.7-.7-1.8-.7-2.5 0-8.8 8.7-23 8.7-31.7 0-.7-.7-1.8-.7-2.5 0-8.3 8.3-21.4 8.7-30.2 1.4-.6 1-1.2 2.1-1.8 3.2 9.8 7.7 23.8 7.5 33.3-.8 9.8 8.6 24.5 8.6 34.3 0 4.9 4.3 11 6.4 17.1 6.4 6.1 0 12.2-2.1 17.1-6.4 9.8 8.6 24.5 8.6 34.3 0 9.5 8.3 23.5 8.5 33.3.8-.5-1.1-1.1-2.1-1.8-3.2-9.1 7.3-22.2 6.8-30.5-1.4z"/><path fill="#B4A078" d="M101 360.7c-7.1 0-14.1-.7-20.7-2.1l-4.7 6.4c-.6.8-1.2 1.6-1.7 2.5 8.8 7.3 22 6.9 30.2-1.4.7-.7 1.8-.7 2.5 0 8.8 8.7 23 8.8 31.7 0 .7-.7 1.8-.7 2.5 0 8.8 8.7 23 8.8 31.7 0 .7-.7 1.8-.7 2.5 0 8.8 8.7 23 8.7 31.7 0 .7-.7 1.8-.7 2.5 0 8.3 8.3 21.4 8.7 30.2 1.4-.5-.8-1.1-1.7-1.7-2.5l-4.7-6.4c-6.7 1.4-13.6 2.1-20.7 2.1H101z"/><path fill="#46466E" d="M404.8 228.5h-.4c-9 0-14.9-9.5-10.8-17.5l11-22.1 11 22.1c4 8.1-1.8 17.5-10.8 17.5z"/><path fill="#F0DCA0" d="M282.8 134.2c-.5-1.6-1.1-3.2-1.7-4.8-.8-2-2.7-3.4-4.9-3.4H37.4c-2.2 0-4.1 1.4-4.9 3.4l-1.7 4.8-5.2 18.3-22 80.7C-12 290.6 24.8 347.1 80.3 358.5c6.7 1.4 13.6 2.2 20.7 2.2h111.6c7.1 0 14-.9 20.7-2.2 55.5-11.5 92.3-67.9 76.7-125.3 0 0-8.7-31.7-22-80.7l-5.2-18.3z"/><path fill="#F0DCA0" d="M366.5 155.1V151c-7.6.9-14.7 4.2-20.1 9.7l-63 63h-5.5c-27.9 0-51.6 20.4-55.8 48l-2.1 13.7c-4.2 27.9 30.3 44.3 49.3 23.4l108.5-119.9h22.4c-18.6 0-33.7-15.1-33.7-33.8z"/><path fill="#281E32" d="M366.8 160.2c2.2 14.6 13.7 26.1 28.3 28.3-2.1-14.5-13.7-26.1-28.3-28.3z"/><path fill="#B4A078" d="M370.8 150.9h-.5c-1.3 0-2.5.1-3.8.2v4.1c0 1.7.1 3.4.4 5.1 14.6 2.2 26.1 13.7 28.3 28.3 1.7.3 3.4.4 5.1.4h4.3v-4.3c0-18.7-15.2-33.8-33.8-33.8zm-57.2 109L266 312s14.2-13.4 38.2-9.6c6.1-13.1 9.5-27.5 9.4-42.5z"/><path fill="#46466E" d="M52.7 143.7c.7.7 1.9.7 2.5 0 4.2-4.2 9.9-6.6 15.9-6.6s11.6 2.3 15.9 6.6c.7.7 1.9.7 2.5 0 8.8-8.7 23-8.7 31.7 0 .7.7 1.8.7 2.5 0 8.8-8.7 23-8.7 31.7 0 .7.7 1.8.7 2.5 0 8.8-8.7 23-8.7 31.7 0 .7.7 1.8.7 2.5 0 8.8-8.7 23-8.7 31.7 0 .7.7 1.9.7 2.5 0 4.2-4.2 9.9-6.6 15.9-6.6s11.6 2.3 15.9 6.6c.3.3.8.5 1.3.5s.9-.2 1.3-.5c4.2-4.2 9.9-6.6 15.9-6.6 2.5 0 4.9.4 7.2 1.2-.4-1.4-.8-2.8-1.3-4.1-1.9-.5-3.9-.7-6-.7-6.4 0-12.4 2.3-17.1 6.4-4.7-4.2-10.8-6.4-17.1-6.4-6.4 0-12.4 2.3-17.1 6.4-9.8-8.6-24.5-8.6-34.3 0-4.7-4.2-10.8-6.4-17.1-6.4-6.4 0-12.4 2.3-17.1 6.4-4.7-4.2-10.8-6.4-17.1-6.4-6.4 0-12.4 2.3-17.1 6.4-9.8-8.6-24.5-8.6-34.3 0-4.7-4.2-10.8-6.4-17.1-6.4-6.4 0-12.4 2.3-17.1 6.4-4.7-4.2-10.8-6.4-17.1-6.4-2 0-4 .2-6 .7l-1.3 4.1c2.3-.8 4.7-1.2 7.2-1.2 6 0 11.7 2.4 15.9 6.6z"/><path fill="#F0AA50" d="M71.1 146.8c9.8 8.6 24.5 8.6 34.3 0 4.7 4.2 10.8 6.4 17.1 6.4s12.4-2.3 17.1-6.4c4.7 4.2 10.8 6.4 17.1 6.4 6.4 0 12.4-2.3 17.1-6.4 4.7 4.2 10.8 6.4 17.1 6.4 6.4 0 12.4-2.3 17.1-6.4 9.8 8.6 24.5 8.6 34.3 0 9.8 8.6 24.5 8.6 34.3 0 3.2 2.8 7 4.8 11.2 5.7-.4-1.3-.7-2.7-1.1-4.1-3.3-1.1-6.3-2.9-8.8-5.4-.7-.7-1.8-.7-2.5 0-8.8 8.8-23 8.7-31.7 0-.7-.7-1.8-.7-2.5 0-8.8 8.7-23 8.8-31.7 0-.7-.7-1.9-.7-2.5 0-4.2 4.2-9.9 6.6-15.9 6.6s-11.6-2.3-15.9-6.6c-.7-.7-1.9-.7-2.5 0-4.2 4.2-9.9 6.6-15.9 6.6s-11.6-2.3-15.9-6.6c-.7-.7-1.9-.7-2.5 0-4.2 4.2-9.9 6.6-15.9 6.6s-11.6-2.3-15.9-6.6c-.7-.7-1.9-.7-2.5 0-8.8 8.8-23 8.7-31.7 0-.7-.7-1.8-.7-2.5 0-8.8 8.7-23 8.8-31.7 0-.7-.7-1.8-.7-2.5 0-2.5 2.5-5.5 4.3-8.8 5.4l-1.1 4.1c4.1-1 7.9-2.9 11.2-5.7 9.6 8.5 24.3 8.5 34.1 0z"/><path fill="#281E32" d="M171.2 176.4c-1 0-1.8-.8-1.8-1.8V126c0-1 .8-1.8 1.8-1.8s1.8.8 1.8 1.8v48.6c0 1-.8 1.8-1.8 1.8z"/><path fill="#FF644B" d="M202.6 192.9L176 173.5c-2.8-2-6.6-2-9.4 0L140 192.9c-2.1 1.5-3.3 3.9-3.3 6.5V249c0 4.4 3.6 8 8 8H198c4.4 0 8-3.6 8-8v-49.6c-.1-2.6-1.4-5-3.4-6.5zm-31.4-8.4c-2 0-3.6-1.6-3.6-3.6s1.6-3.6 3.6-3.6 3.6 1.6 3.6 3.6c0 1.9-1.6 3.6-3.6 3.6z"/><path fill="#281E32" d="M173.8 180.1c-.5 0-.9-.2-1.3-.5-.7-.7-.7-1.8 0-2.5l3.7-3.7c.7-.7 1.8-.7 2.5 0s.7 1.8 0 2.5l-3.7 3.7c-.3.3-.8.5-1.2.5zm-5.1 0c-.5 0-.9-.2-1.3-.5l-3.7-3.7c-.7-.7-.7-1.8 0-2.5s1.8-.7 2.5 0l3.7 3.7c.7.7.7 1.8 0 2.5-.3.3-.8.5-1.2.5z"/><circle fill="#B4A078" cx="156.8" cy="24.3" r="24.3"/><path fill="#B4A078" d="M41.7 126h230.2c3.8 0 6.3-3.9 4.7-7.3H37c-1.6 3.4.9 7.3 4.7 7.3z"/><path fill="#F0DCA0" d="M276.7 118.6C230.2 18.5 83.4 18.5 37 118.6h239.7z"/></svg>