<svg xmlns="http://www.w3.org/2000/svg" viewBox="0 0 646.4 679.7"><path fill="#46466E" d="M337.6 421.7l38.2-30.7c-.5-.9-.9-1.8-1.5-2.7l-20.9-37.5h-42.5l29.3-23.6-25.1-45h-24l18-14.5c-4.8-15.1-35.6-111.6-35.6-111.6l-35.6 111.6 18 14.5h-24l-25.1 45 29.3 23.6h-42.5l-20.9 37.5-1.5 2.7 38.2 30.7h-46.1c-1.5 46.7 43.9 87.7 94.8 72l15.4-4.8 15.4 4.8c50.9 15.7 96.3-25.3 94.8-72h-46.1z"/><path fill="#281E32" d="M345.6 375.3c-.9-1.2-2.6-1.4-3.7-.6l-64.7 48.7-.3-87.1 33.2-25.4c1.2-.9 1.4-2.5.5-3.7-.9-1.2-2.5-1.4-3.7-.5l-30 22.6-.3-83.1c0-1.7-1.4-2.9-3.1-2.9h-.1c-1.7 0-3.1 1.2-3.1 2.9l-.3 83.2-30.1-22.7c-1.2-.9-2.8-.7-3.7.5-.9 1.2-.7 2.8.5 3.7l33.3 25.4-.3 87.1-64.8-48.8c-1.2-.9-2.8-.6-3.7.5-.9 1.2-.7 2.8.5 3.7l68 51.9-.3 87.3c0 2.2 1.8 4.1 3.9 4.1h.1c2.2 0 4-1.9 3.9-4.1l-.3-87.3 67.9-51.9c1.4-.6 1.6-2.3.7-3.5zM212.1 628.7c2.3 0 4.5.1 6.8.3v-1.1c0-23.2 18.8-42 42-42 2.2 0 4.3.2 6.4.5 8-33 37.8-57.6 73.3-57.6 41.7 0 75.5 33.8 75.5 75.5v75.5h-282c13.2-30.1 43.1-51.1 78-51.1z"/><path fill="#FF644B" d="M399.3 280.4c-24.5 0-44.4 19.9-44.4 44.4s-19.9 44.4-44.4 44.4-44.4 19.9-44.4 44.4-19.9 44.4-44.4 44.4-44.4 19.9-44.4 44.4-19.9 44.4-44.4 44.4-44.2 19.7-44.2 44.2-19.9 44.4-44.4 44.4S0 655.2 0 679.7h134.1c13.2-30 43.1-51 78-51 2.3 0 4.5.1 6.8.3v-1.1c0-23.2 18.8-42 42-42 2.2 0 4.3.2 6.4.5 8-33 37.8-57.6 73.3-57.6 24.9 0 47 12.1 60.7 30.7V280.4h-2z"/><path fill="#EFDB9F" d="M618.9 679.7L572 296.4l25.7-33.4c5.1-6.7 7.9-14.8 7.9-23.3v-65.5c0-6-4.9-10.9-10.9-10.9h-20.9c-6 0-10.9 4.9-10.9 10.9v48.5h-18.1v-48.5c0-6-4.9-10.9-10.9-10.9H513c-6 0-10.9 4.9-10.9 10.9v48.5H484v-48.5c0-6-4.9-10.9-10.9-10.9h-20.9c-6 0-10.9 4.9-10.9 10.9v48.5H423v-48.5c0-6-4.9-10.9-10.9-10.9h-20.9c-6 0-10.9 4.9-10.9 10.9v48.5h-18.1v-48.5c0-6-4.9-10.9-10.9-10.9h-20.9c-6 0-10.9 4.9-10.9 10.9v65.5c0 8.4 2.8 16.6 7.9 23.3l25.7 33.4-46.9 383.3h312.7z"/><path fill="#B39F78" d="M407.8 653.7h-50.3c-1.6 0-2.8 1.3-2.8 2.8v20.3c0 1.6 1.3 2.8 2.8 2.8h50.3c1.6 0 2.8-1.3 2.8-2.8v-20.3c0-1.5-1.2-2.8-2.8-2.8zm2.8-36.8v-20.3c0-1.6-1.3-2.8-2.8-2.8h-50.3c-1.6 0-2.8 1.3-2.8 2.8v20.3c0 1.6 1.3 2.8 2.8 2.8h50.3c1.6 0 2.8-1.2 2.8-2.8zm-60-60v-20.3c0-1.6-1.3-2.8-2.8-2.8h-24.1c-1.4 0-2.6 1.1-2.8 2.5l-2.5 20.3c-.2 1.7 1.1 3.2 2.8 3.2h26.6c1.6-.1 2.8-1.3 2.8-2.9zm0 60v-20.3c0-1.6-1.3-2.8-2.8-2.8h-31.4c-1.4 0-2.6 1.1-2.8 2.5l-2.5 20.3c-.2 1.7 1.1 3.2 2.8 3.2h33.9c1.6-.1 2.8-1.3 2.8-2.9zm187.1-57.2H588c1.6 0 2.8-1.3 2.8-2.8v-20.3c0-1.6-1.3-2.8-2.8-2.8h-50.3c-1.6 0-2.8 1.3-2.8 2.8v20.3c-.1 1.6 1.2 2.8 2.8 2.8zm-210.2 64c-1.6 0-2.8 1.3-2.8 2.8v20.3c0 1.6 1.3 2.8 2.8 2.8h50.3c1.6 0 2.8-1.3 2.8-2.8v-20.3c0-1.6-1.3-2.8-2.8-2.8h-50.3zm30-64h50.3c1.6 0 2.8-1.3 2.8-2.8v-20.3c0-1.6-1.3-2.8-2.8-2.8h-50.3c-1.6 0-2.8 1.3-2.8 2.8v20.3c-.1 1.6 1.2 2.8 2.8 2.8zm23.1 27.2v-20.3c0-1.6-1.3-2.8-2.8-2.8h-50.3c-1.6 0-2.8 1.3-2.8 2.8v20.3c0 1.6 1.3 2.8 2.8 2.8h50.3c1.6 0 2.8-1.2 2.8-2.8zm127.1 62.8H558c1.6 0 2.8-1.3 2.8-2.8v-20.3c0-1.6-1.3-2.8-2.8-2.8h-50.3c-1.6 0-2.8 1.3-2.8 2.8v20.3c-.1 1.6 1.2 2.8 2.8 2.8zm-187.1-62.8v-21.5c0-.9-.7-1.6-1.6-1.6-.8 0-1.5.6-1.6 1.4l-2.6 21.4c-.2 1.7 1.1 3.2 2.8 3.2h.2c1.6-.1 2.8-1.3 2.8-2.9zM616 653.7h-18.4c-1.6 0-2.8 1.3-2.8 2.8v20.3c0 1.6 1.3 2.8 2.8 2.8h20.9c1.7 0 3-1.5 2.8-3.2l-2.5-20.3c-.1-1.3-1.3-2.4-2.8-2.4zm-295.4-6.8v-20.3c0-1.6-1.3-2.8-2.8-2.8h-5.1c-1.4 0-2.6 1.1-2.8 2.5l-2.5 20.3c-.2 1.7 1.1 3.2 2.8 3.2h7.6c1.6-.1 2.8-1.3 2.8-2.9zm27.2 6.8H309c-1.4 0-2.6 1.1-2.8 2.5l-2.5 20.3c-.2 1.7 1.1 3.2 2.8 3.2h41.2c1.6 0 2.8-1.3 2.8-2.8v-20.3c.1-1.6-1.1-2.9-2.7-2.9zm243-36.8v-20.3c0-1.6-1.3-2.8-2.8-2.8h-50.3c-1.6 0-2.8 1.3-2.8 2.8v20.3c0 1.6 1.3 2.8 2.8 2.8H588c1.6 0 2.8-1.2 2.8-2.8zm-26-50.3v20.3c0 1.6 1.3 2.8 2.8 2.8h39.8c1.7 0 3-1.5 2.8-3.2l-2.5-20.3c-.2-1.4-1.4-2.5-2.8-2.5h-37.3c-1.5 0-2.8 1.3-2.8 2.9zm23.2 87.1h-50.3c-1.6 0-2.8 1.3-2.8 2.8v20.3c0 1.6 1.3 2.8 2.8 2.8H588c1.6 0 2.8-1.3 2.8-2.8v-20.3c0-1.5-1.2-2.8-2.8-2.8zm-30-64c1.6 0 2.8-1.3 2.8-2.8v-20.3c0-1.6-1.3-2.8-2.8-2.8h-50.3c-1.6 0-2.8 1.3-2.8 2.8v20.3c0 1.6 1.3 2.8 2.8 2.8H558zm39.7-30h6.2c1.7 0 3-1.5 2.8-3.2l-2.5-20.3c-.2-1.4-1.4-2.5-2.8-2.5h-3.7c-1.6 0-2.8 1.3-2.8 2.8v20.3c-.1 1.7 1.2 2.9 2.8 2.9zm-32.9 66.9v20.3c0 1.6 1.3 2.8 2.8 2.8h47.2c1.7 0 3-1.5 2.8-3.2l-2.5-20.3c-.2-1.4-1.4-2.5-2.8-2.5h-44.7c-1.5 0-2.8 1.3-2.8 2.9zm30-30v20.3c0 1.6 1.3 2.8 2.8 2.8h13.5c1.7 0 3-1.5 2.8-3.2l-2.5-20.3c-.2-1.4-1.4-2.5-2.8-2.5h-11c-1.5 0-2.8 1.3-2.8 2.9zM322.7 255.1c1.2 2.8 2.8 5.5 4.7 8l25.7 33.4h218.8l25.7-33.4c1.9-2.5 3.5-5.2 4.7-8H322.7z"/><path fill="#46466E" d="M369.9 317.3v12c0 15 9 27.8 21.9 33.5 12.9-5.7 21.9-18.5 21.9-33.5v-12h-43.8z"/><path fill="#FF644B" d="M394.1 329.6l-2.3 1.7-2.3-1.7c-3.9-2.9-9.6-.1-9.6 4.8v.2c0 1.9.9 3.7 2.4 4.8l9.4 7 9.4-7c1.5-1.1 2.4-2.9 2.4-4.8v-.2c.1-4.9-5.5-7.7-9.4-4.8z"/><path fill="#46466E" d="M440.7 317.3v12c0 15 9 27.8 21.9 33.5 12.9-5.7 21.9-18.5 21.9-33.5v-12h-43.8z"/><path fill="#FF644B" d="M464.8 329.6l-2.3 1.7-2.3-1.7c-3.9-2.9-9.6-.1-9.6 4.8v.2c0 1.9.9 3.7 2.4 4.8l9.4 7 9.4-7c1.5-1.1 2.4-2.9 2.4-4.8v-.2c.2-4.9-5.4-7.7-9.4-4.8z"/><path fill="#46466E" d="M511.4 317.3v12c0 15 9 27.8 21.9 33.5 12.9-5.7 21.9-18.5 21.9-33.5v-12h-43.8z"/><path fill="#FF644B" d="M535.6 329.6l-2.3 1.7-2.3-1.7c-3.9-2.9-9.6-.1-9.6 4.8v.2c0 1.9.9 3.7 2.4 4.8l9.4 7 9.4-7c1.5-1.1 2.4-2.9 2.4-4.8v-.2c.1-4.9-5.5-7.7-9.4-4.8zM546.1 564c0-53.5-35.1-98.7-83.5-114-48.4 15.3-83.5 60.5-83.5 114v115.7h167V564z"/><path fill="#281E32" d="M401.7 679.7V557.9c0-19.6 6.6-38.2 19.1-53.8 10.7-13.3 25.3-23.8 41.7-30 16.4 6.2 31.1 16.6 41.7 30 12.5 15.6 19.1 34.3 19.1 53.8v121.8H401.7zm58.8-516.3V2c0-1.1.9-2 2-2s2 .9 2 2v161.4h-4z"/><path fill="#EFDB9F" d="M535.3 50.4V22.9c0-1.6-1.4-3-3-3.3L464.3 9v63l43-6.8v20.5c0 2 2 3.6 4 3.3l135.1-21.1-111.1-17.5z"/><path fill="#FF644B" d="M501 31.1l-3.2 2.4-3.2-2.4c-5.6-4.2-13.6-.2-13.6 6.8v.2c0 2.7 1.3 5.2 3.4 6.8l13.4 10 13.4-10c2.2-1.6 3.4-4.1 3.4-6.8v-.2c0-7-8-11-13.6-6.8z"/><path fill="#B39F78" d="M534.1 65.5L509.7 82c-1.3.8-2 2.3-2 3.8V65.2l24.8-3.9c2.3-.3 3.6 2.8 1.6 4.2z"/><path fill="#EFA950" d="M523.4 587.4h-19v-20h19c1.1 0 2-.9 2-2s-.9-2-2-2h-19v-64.5c0-.9-.9-1.7-2-1.7s-2 .8-2 1.7v64.5h-16V483c0-.9-.9-1.7-2-1.7s-2 .8-2 1.7v80.4h-16v-89.6c0-.9-.9-1.7-2-1.7s-2 .8-2 1.7v89.6h-16V483c0-.9-.9-1.7-2-1.7s-2 .8-2 1.7v80.4h-16v-64.5c0-.9-.9-1.7-2-1.7s-2 .8-2 1.7v64.5h-19c-1.1 0-2 .9-2 2s.9 2 2 2h19v20h-19c-1.1 0-2 .9-2 2s.9 2 2 2h19v86.3c0 .9.9 1.7 2 1.7s2-.8 2-1.7v-86.3h16v86.3c0 .9.9 1.7 2 1.7s2-.8 2-1.7v-86.3h16v86.3c0 .9.9 1.7 2 1.7s2-.8 2-1.7v-86.3h16v86.3c0 .9.9 1.7 2 1.7s2-.8 2-1.7v-86.3h16v86.3c0 .9.9 1.7 2 1.7s2-.8 2-1.7v-86.3h19c1.1 0 2-.9 2-2s-.9-2-2-2zm-83.1 0h-16v-20h16v20zm4 0v-20h16v20h-16zm20 0v-20h16v20h-16zm20 0v-20h16v20h-16z"/></svg>