<svg xmlns="http://www.w3.org/2000/svg" viewBox="0 0 664.7 968"><path fill="#46466E" d="M417.8 425.7L456 395c-.5-.9-.9-1.8-1.5-2.7l-20.9-37.5H391l29.3-23.6-25.1-45h-24l18-14.5c-4.8-15.1-35.6-111.6-35.6-111.6L318 271.7l18 14.5h-24l-25.1 45 29.3 23.6h-42.5l-20.9 37.5-1.5 2.7 38.2 30.7h-46.1c-1.5 46.7 43.9 87.7 94.8 72l15.4-4.8 15.4 4.8c50.9 15.7 96.3-25.3 94.8-72h-46z"/><path fill="#281E32" d="M353.7 526.1c-2.3 0-4-1.8-4-4l.9-272c0-1.7 1.4-3.1 3.1-3.1h.1c1.7 0 3.1 1.4 3.1 3.1l.9 272c-.1 2.2-1.9 4-4.1 4z"/><path fill="#281E32" d="M353.7 336v7.1l36.7-28c1.2-.9 1.4-2.5.5-3.7-.9-1.2-2.5-1.4-3.7-.5L353.7 336zm68.4 42.8l-68.4 51.5v7.4l71.7-54.7c1.2-.9 1.4-2.5.5-3.7-1-1.2-2.6-1.4-3.8-.5z"/><path fill="#281E32" d="M320.3 310.8c-1.2-.9-2.8-.6-3.7.5-.9 1.2-.7 2.8.5 3.7l36.7 28v-7l-33.5-25.2zm-38.7 68.5c-.9 1.2-.7 2.9.5 3.8l71.7 54.7v-7.4l-68.4-51.5c-1.3-1-3-.8-3.8.4zM496 602c-3.2-38.7-35.6-69.2-75.2-69.2-35.5 0-65.3 24.5-73.3 57.6-2.1-.3-4.3-.5-6.4-.5-11.5 0-21.9 4.6-29.5 12.1H196v120h456V602H496z"/><path fill="#FF644B" d="M479.5 284.5c-24.5 0-44.4 19.9-44.4 44.4s-19.9 44.4-44.4 44.4-44.4 19.9-44.4 44.4-19.9 44.4-44.4 44.4-44.4 19.9-44.4 44.4-19.9 44.4-44.4 44.4-44.4 19.9-44.4 44.4-19.9 44.4-44.4 44.4-44.4 19.9-44.4 44.4H214c13.2-30 43.1-51 78-51 2.3 0 4.5.1 6.8.3v-1.1c0-23.2 18.8-42 42-42 2.2 0 4.3.2 6.4.5 8-33 37.8-57.6 73.3-57.6 24.9 0 47 12.1 60.7 30.7V284.4c-.4 0-1 .1-1.7.1z"/><path fill="#EFDB9F" d="M699.1 683.8l-46.9-383.3 25.7-33.4c5.1-6.7 7.9-14.8 7.9-23.3v-65.5c0-6-4.9-10.9-10.9-10.9H654c-6 0-10.9 4.9-10.9 10.9v48.5H625v-48.5c0-6-4.9-10.9-10.9-10.9h-20.9c-6 0-10.9 4.9-10.9 10.9v48.5h-18.1v-48.5c0-6-4.9-10.9-10.9-10.9h-20.9c-6 0-10.9 4.9-10.9 10.9v48.5h-18.1v-48.5c0-6-4.9-10.9-10.9-10.9h-20.9c-6 0-10.9 4.9-10.9 10.9v48.5h-18.1v-48.5c0-6-4.9-10.9-10.9-10.9h-20.9c-6 0-10.9 4.9-10.9 10.9v65.5c0 8.4 2.8 16.6 7.9 23.3l25.7 33.4-46.9 383.3h312.5z"/><path fill="#B39F78" d="M467.7 653.8H518c1.6 0 2.8-1.3 2.8-2.8v-20.3c0-1.6-1.3-2.8-2.8-2.8h-50.3c-1.6 0-2.8 1.3-2.8 2.8V651c-.1 1.5 1.2 2.8 2.8 2.8zm20.3 4h-50.3c-1.6 0-2.8 1.3-2.8 2.8v20.3c0 1.6 1.3 2.8 2.8 2.8H488c1.6 0 2.8-1.3 2.8-2.8v-20.3c0-1.6-1.2-2.8-2.8-2.8zm62.8-36.9v-20.3c0-1.6-1.3-2.8-2.8-2.8h-50.3c-1.6 0-2.8 1.3-2.8 2.8v20.3c0 1.6 1.3 2.8 2.8 2.8H548c1.6.1 2.8-1.2 2.8-2.8zm60.2 0v-20.3c0-1.6-1.3-2.8-2.8-2.8h-50.3c-1.6 0-2.8 1.3-2.8 2.8v20.3c0 1.6 1.3 2.8 2.8 2.8h50.3c1.6.1 2.8-1.2 2.8-2.8zm-63 36.9h-50.3c-1.6 0-2.8 1.3-2.8 2.8v20.3c0 1.6 1.3 2.8 2.8 2.8H548c1.6 0 2.8-1.3 2.8-2.8v-20.3c0-1.6-1.2-2.8-2.8-2.8zm60.2 0h-50.3c-1.6 0-2.8 1.3-2.8 2.8v20.3c0 1.6 1.3 2.8 2.8 2.8h50.3c1.6 0 2.8-1.3 2.8-2.8v-20.3c0-1.6-1.2-2.8-2.8-2.8zm-80.3-4h50.3c1.6 0 2.8-1.3 2.8-2.8v-20.3c0-1.6-1.3-2.8-2.8-2.8h-50.3c-1.6 0-2.8 1.3-2.8 2.8V651c-.1 1.5 1.2 2.8 2.8 2.8zm-37.1-32.9v-20.3c0-1.6-1.3-2.8-2.8-2.8h-50.3c-1.6 0-2.8 1.3-2.8 2.8v20.3c0 1.6 1.3 2.8 2.8 2.8H488c1.6.1 2.8-1.2 2.8-2.8zm67.1-57.1h50.3c1.6 0 2.8-1.3 2.8-2.8v-20.3c0-1.6-1.3-2.8-2.8-2.8h-50.3c-1.6 0-2.8 1.3-2.8 2.8V561c-.1 1.5 1.2 2.8 2.8 2.8zm-60.2 0H548c1.6 0 2.8-1.3 2.8-2.8v-20.3c0-1.6-1.3-2.8-2.8-2.8h-50.3c-1.6 0-2.8 1.3-2.8 2.8V561c-.1 1.5 1.2 2.8 2.8 2.8zm-66.9-2.9v-20.3c0-1.6-1.3-2.8-2.8-2.8h-24.1c-1.4 0-2.6 1.1-2.8 2.5l-2.5 20.3c-.2 1.7 1.1 3.2 2.8 3.2H428c1.6 0 2.8-1.3 2.8-2.9zm0 60v-20.3c0-1.6-1.3-2.8-2.8-2.8h-31.4c-1.4 0-2.6 1.1-2.8 2.5l-2.5 20.3c-.2 1.7 1.1 3.2 2.8 3.2H428c1.6 0 2.8-1.3 2.8-2.9zm187.1-57.1h50.3c1.6 0 2.8-1.3 2.8-2.8v-20.3c0-1.6-1.3-2.8-2.8-2.8h-50.3c-1.6 0-2.8 1.3-2.8 2.8V561c-.1 1.5 1.2 2.8 2.8 2.8zm-210.2 64c-1.6 0-2.8 1.3-2.8 2.8v20.3c0 1.6 1.3 2.8 2.8 2.8H458c1.6 0 2.8-1.3 2.8-2.8v-20.3c0-1.6-1.3-2.8-2.8-2.8h-50.3zm30-64H488c1.6 0 2.8-1.3 2.8-2.8v-20.3c0-1.6-1.3-2.8-2.8-2.8h-50.3c-1.6 0-2.8 1.3-2.8 2.8V561c-.1 1.5 1.2 2.8 2.8 2.8zm140.5 30c1.6 0 2.8-1.3 2.8-2.8v-20.3c0-1.6-1.3-2.8-2.8-2.8h-50.3c-1.6 0-2.8 1.3-2.8 2.8V591c0 1.6 1.3 2.8 2.8 2.8h50.3zm-117.4-2.9v-20.3c0-1.6-1.3-2.8-2.8-2.8h-50.3c-1.6 0-2.8 1.3-2.8 2.8v20.3c0 1.6 1.3 2.8 2.8 2.8H458c1.6.1 2.8-1.2 2.8-2.8zm127.1 62.9h50.3c1.6 0 2.8-1.3 2.8-2.8v-20.3c0-1.6-1.3-2.8-2.8-2.8h-50.3c-1.6 0-2.8 1.3-2.8 2.8V651c-.1 1.5 1.2 2.8 2.8 2.8zm-187.1-62.9v-21.5c0-.9-.7-1.6-1.6-1.6-.8 0-1.5.6-1.6 1.4l-2.6 21.4c-.2 1.7 1.1 3.2 2.8 3.2h.2c1.6 0 2.8-1.3 2.8-2.9zm295.4 66.9h-18.4c-1.6 0-2.8 1.3-2.8 2.8v20.3c0 1.6 1.3 2.8 2.8 2.8h20.9c1.7 0 3-1.5 2.8-3.2l-2.5-20.3c-.1-1.4-1.3-2.4-2.8-2.4zm-295.4-6.9v-20.3c0-1.6-1.3-2.8-2.8-2.8h-5.1c-1.4 0-2.6 1.1-2.8 2.5l-2.5 20.3c-.2 1.7 1.1 3.2 2.8 3.2h7.6c1.6 0 2.8-1.3 2.8-2.9zm27.2 6.9h-38.8c-1.4 0-2.6 1.1-2.8 2.5l-2.5 20.3c-.2 1.7 1.1 3.2 2.8 3.2H428c1.6 0 2.8-1.3 2.8-2.8v-20.3c0-1.7-1.2-2.9-2.8-2.9zm90-64c1.6 0 2.8-1.3 2.8-2.8v-20.3c0-1.6-1.3-2.8-2.8-2.8h-50.3c-1.6 0-2.8 1.3-2.8 2.8V591c0 1.6 1.3 2.8 2.8 2.8H518zm153 27.1v-20.3c0-1.6-1.3-2.8-2.8-2.8h-50.3c-1.6 0-2.8 1.3-2.8 2.8v20.3c0 1.6 1.3 2.8 2.8 2.8h50.3c1.6.1 2.8-1.2 2.8-2.8zm-26-50.3v20.3c0 1.6 1.3 2.8 2.8 2.8h39.8c1.7 0 3-1.5 2.8-3.2l-2.5-20.3c-.2-1.4-1.4-2.5-2.8-2.5h-37.3c-1.5.1-2.8 1.3-2.8 2.9zm23.2 87.2h-50.3c-1.6 0-2.8 1.3-2.8 2.8v20.3c0 1.6 1.3 2.8 2.8 2.8h50.3c1.6 0 2.8-1.3 2.8-2.8v-20.3c0-1.6-1.2-2.8-2.8-2.8zm-30-64c1.6 0 2.8-1.3 2.8-2.8v-20.3c0-1.6-1.3-2.8-2.8-2.8h-50.3c-1.6 0-2.8 1.3-2.8 2.8V591c0 1.6 1.3 2.8 2.8 2.8h50.3zm39.7-30h6.2c1.7 0 3-1.5 2.8-3.2l-2.5-20.3c-.2-1.4-1.4-2.5-2.8-2.5h-3.7c-1.6 0-2.8 1.3-2.8 2.8v20.3c-.1 1.6 1.2 2.9 2.8 2.9zM645 630.6v20.3c0 1.6 1.3 2.8 2.8 2.8H695c1.7 0 3-1.5 2.8-3.2l-2.5-20.3c-.2-1.4-1.4-2.5-2.8-2.5h-44.7c-1.5.1-2.8 1.3-2.8 2.9zm30-30v20.3c0 1.6 1.3 2.8 2.8 2.8h13.5c1.7 0 3-1.5 2.8-3.2l-2.5-20.3c-.2-1.4-1.4-2.5-2.8-2.5h-11c-1.5.1-2.8 1.3-2.8 2.9zM402.9 259.1c1.2 2.8 2.8 5.5 4.7 8l25.7 33.4h218.8l25.7-33.4c1.9-2.5 3.5-5.2 4.7-8H402.9z"/><path fill="#46466E" d="M450.1 321.3v12c0 15 9 27.8 21.9 33.5 12.9-5.7 21.9-18.5 21.9-33.5v-12h-43.8z"/><path fill="#FF644B" d="M474.3 333.6l-2.3 1.7-2.3-1.7c-3.9-2.9-9.6-.1-9.6 4.8v.2c0 1.9.9 3.7 2.4 4.8l9.4 7 9.4-7c1.5-1.1 2.4-2.9 2.4-4.8v-.2c.1-4.9-5.5-7.7-9.4-4.8z"/><path fill="#46466E" d="M520.9 321.3v12c0 15 9 27.8 21.9 33.5 12.9-5.7 21.9-18.5 21.9-33.5v-12h-43.8z"/><path fill="#FF644B" d="M545 333.6l-2.3 1.7-2.3-1.7c-3.9-2.9-9.6-.1-9.6 4.8v.2c0 1.9.9 3.7 2.4 4.8l9.4 7 9.4-7c1.5-1.1 2.4-2.9 2.4-4.8v-.2c.2-4.9-5.4-7.7-9.4-4.8z"/><path fill="#46466E" d="M591.6 321.3v12c0 15 9 27.8 21.9 33.5 12.9-5.7 21.9-18.5 21.9-33.5v-12h-43.8z"/><path fill="#FF644B" d="M615.8 333.6l-2.3 1.7-2.3-1.7c-3.9-2.9-9.6-.1-9.6 4.8v.2c0 1.9.9 3.7 2.4 4.8l9.4 7 9.4-7c1.5-1.1 2.4-2.9 2.4-4.8v-.2c.1-4.9-5.5-7.7-9.4-4.8zm10.5 234.5c0-53.5-35.1-98.7-83.5-114-48.4 15.3-83.5 60.5-83.5 114v115.7h167V568.1z"/><path fill="#281E32" d="M481.9 698.8V568.1c0-21 6.6-41 19.1-57.8 10.7-14.3 25.3-25.5 41.7-32.2 16.4 6.6 31.1 17.8 41.7 32.2 12.5 16.8 19.1 36.8 19.1 57.8v130.7H481.9z"/><path fill="#46466E" d="M540.7 167.4V6c0-1.1.9-2 2-2s2 .9 2 2v161.4h-4z"/><path fill="#EFDB9F" d="M587.9 54v35.7c0 2 1.8 3.6 3.8 3.3l134.9-21.1-134.9-21.1c-2-.3-3.8 1.2-3.8 3.2z"/><path fill="#B39F78" d="M614.3 69.5L589.9 86c-1.3.8-2 2.3-2 3.8V69.3l24.8-3.9c2.3-.4 3.6 2.8 1.6 4.1z"/><path fill="#EFDB9F" d="M612.5 23.6L544.7 13v63l70.5-11V26.9c.1-1.6-1.1-3-2.7-3.3z"/><path fill="#FF644B" d="M581.2 35.1l-3.2 2.4-3.2-2.4c-5.6-4.2-13.6-.2-13.6 6.8v.2c0 2.7 1.3 5.2 3.4 6.8l13.4 10 13.4-10c2.2-1.6 3.4-4.1 3.4-6.8v-.2c0-7-7.9-11-13.6-6.8z"/><path fill="#EFA950" d="M542.7 737.3c-1.1 0-2-.9-2-2.1V478.3c0-1.2.9-2.1 2-2.1s2 .9 2 2.1v256.9c0 1.2-.9 2.1-2 2.1zM562.7 740.8c-1.1 0-2-1-2-2.1V489.3c0-1.2.9-2.1 2-2.1s2 1 2 2.1v249.4c0 1.1-.9 2.1-2 2.1zM582.7 723.4c-1.1 0-2-.9-2-2V508.1c0-1.1.9-2 2-2s2 .9 2 2v213.4c0 1.1-.9 1.9-2 1.9zM522.7 723.4c-1.1 0-2-.9-2-2V489.1c0-1.1.9-2 2-2s2 .9 2 2v232.3c0 1.2-.9 2-2 2zM502.7 723.4c-1.1 0-2-.9-2-2V508.1c0-1.1.9-2 2-2s2 .9 2 2v213.4c0 1.1-.9 1.9-2 1.9z"/><path fill="#EFA950" d="M603.6 595.8H481.5c-1.1 0-2-.9-2-2s.9-2 2-2h122.1c1.1 0 2 .9 2 2s-.9 2-2 2zM603.6 570.9H481.5c-1.1 0-2-.9-2-2s.9-2 2-2h122.1c1.1 0 2 .9 2 2s-.9 2-2 2z"/><path fill="#281E32" d="M572.4 684.2c2.3 0 4.5.1 6.8.3v-1.1c0-23.2 18.8-42 42-42 2.2 0 4.3.2 6.4.5 8-33 37.8-57.6 73.3-57.6 41.7 0 75.5 33.8 75.5 75.5v75.5h-282c13.1-30.1 43.1-51.1 78-51.1z"/><path fill="#46466E" d="M3.1 737.5c5-12.7 17.4-21.7 31.9-21.7 1 0 2 0 3 .1 1-19.8 17.4-35.6 37.5-35.6h.8c2-36.5 32.2-65.4 69.2-65.4 30.7 0 56.7 19.9 65.8 47.5 8-5 17.4-7.9 27.5-7.9 27.7 0 50.3 21.7 51.7 49.1 1.4-.1 2.7-.2 4.1-.2 21.5 0 39.7 14.4 45.4 34H3.1z"/><path fill="#EFA950" d="M540.2 739.5C536.4 729.8 527 723 516 723c-.8 0-1.5 0-2.3.1-.8-15-13.2-27-28.4-27h-.6c-1.5-27.7-24.5-49.6-52.5-49.6-23.3 0-43 15.1-49.9 36-6-3.8-13.2-6-20.8-6-21 0-38.1 16.5-39.2 37.2-1-.1-2.1-.1-3.1-.1-16.3 0-30.1 10.9-34.4 25.8h255.4z"/><path fill="#46466E" d="M354.9 942.8c15.6 0 28.2-12.6 28.2-28.2s12.6-28.2 28.2-28.2 28.2-12.6 28.2-28.2 12.6-28.2 28.2-28.2 28.2-12.6 28.2-28.2 12.6-28.2 28.2-28.2 28.2-12.6 28.2-28.2 12.6-28.2 28.2-28.2 28.2-12.6 28.2-28.2 12.6-28.2 28.2-28.2 28.2-12.6 28.2-28.2v195.1c-3.3 0-6.7-.6-10-1.9-14.5-5.6-30.8 1.6-36.4 16.1-5.6 14.5-21.9 21.7-36.4 16.1s-30.8 1.6-36.4 16.1c-5.6 14.5-21.9 21.7-36.4 16.1-14.5-5.6-30.8 1.6-36.4 16.1-5.6 14.5-21.9 21.7-36.4 16.1-14.5-5.6-30.8 1.6-36.4 16.1-5.6 14.5-21.9 21.7-36.4 16.1-14.5-5.6-30.8 1.6-36.4 16.1-.7-15.2 11.9-27.9 27.4-27.9z"/><path fill="#EFA950" d="M443.7 888.5c-1.1-1.6-.8-3.7.7-4.9l220.3-163.2V735L448.6 889.3c-.8.6-1.7.7-2.6.6-.9-.1-1.7-.6-2.3-1.4z"/></svg>