<svg xmlns="http://www.w3.org/2000/svg" viewBox="0 0 143.1 308"><path fill="#F0DCA0" d="M143.1 182.3c0 39.5-32 71.6-71.6 71.6S0 221.8 0 182.3c0-16.7 5.9-32.8 16.7-45.5l.3-.4c10.8-12.7 16.7-28.8 16.7-45.5v-53c0-21 17-38 38-37.9 20.9.1 37.8 17.4 37.8 38.3v52.6c0 16.7 5.9 32.8 16.7 45.5l.3.4c10.7 12.7 16.6 28.8 16.6 45.5z"/><path fill="#46466E" d="M128.7 170.3c-1.9-1.9-4.9-2-6.8-.1l-43.4 42.3-.5-41.4 31-31.9c1.8-1.9 1.8-4.9 0-6.8l-.1-.1c-1.9-1.9-4.9-1.9-6.8 0L77.7 156l-1.3-96.3c0-2.6-2.2-4.6-4.8-4.6h-.1c-2.6 0-4.8 2-4.8 4.6l-1.3 96.4L41 132.3c-1.9-1.8-4.9-1.8-6.8 0l-.1.1c-1.9 1.9-1.9 4.9 0 6.8l31 31.9-.5 41.4-43.4-42.3c-1.9-1.8-4.9-1.8-6.8 0l-.1.1c-1.9 1.9-1.9 4.9 0 6.8l50.1 51.5-1 79.6h16.2l-1-79.6 50.1-51.5c1.9-1.8 1.8-4.9 0-6.8z"/></svg>